<svg width="358" height="358" viewBox="0 0 358 358" fill="none" xmlns="http://www.w3.org/2000/svg">
<rect width="358" height="358" fill="white"/>
<ellipse cx="178.998" cy="259.482" rx="156.494" ry="81.7549" fill="#DAC7F0"/>
<path d="M136.322 62.0997C130.879 56.2581 100.223 59.6005 92.3066 77.2347C83.4832 96.8897 80.9435 163.643 115.658 181.346C166.177 207.108 228.891 190.252 255.708 169.215C277.11 152.427 274.163 112.294 257.75 68.7608C250.514 49.5685 220.012 49.2107 216.463 57.1356C214.315 61.9291 217.569 71.5033 217.569 71.5033C191.224 67.9812 179.385 64.0763 138.082 77.0172C138.082 77.0172 143.552 69.8575 136.322 62.0997Z" fill="#F87B7B"/>
<path d="M130.373 160.921C131.548 161.156 133.615 162.753 132.487 167.262C131.077 172.899 132.487 177.126 137.419 175.012C142.351 172.899 137.419 179.239 141.646 179.944C145.873 180.649 141.646 170.08 150.101 171.489" stroke="white" stroke-linecap="round"/>
<ellipse cx="6.01498" cy="6.64594" rx="6.01498" ry="6.64594" transform="matrix(-0.995378 0.0960336 0.0960336 0.995378 201.284 120.013)" fill="white"/>
<ellipse cx="6.08775" cy="6.72634" rx="6.08775" ry="6.72634" transform="matrix(-0.995378 0.0960336 0.0960336 0.995378 167.857 121.466)" fill="white"/>
<path fill-rule="evenodd" clip-rule="evenodd" d="M152.958 143.674C150.704 142.425 148.037 142.281 144.723 143.175C144.688 143.185 144.653 143.195 144.618 143.207C140.093 144.707 136.891 146.879 135.038 149.452C133.168 152.049 132.753 154.953 133.637 157.68C135.39 163.088 142 167.337 151.106 167.906C158.487 168.367 163.086 166.145 165.414 162.72C166.895 160.541 167.339 158.038 167.142 155.793C175.169 158.501 184.522 160.806 192.731 161.195C197.376 161.416 201.801 161.031 205.444 159.652C209.151 158.249 212.03 155.816 213.417 152.087C213.732 151.24 213.224 150.323 212.283 150.04C211.341 149.756 210.323 150.213 210.008 151.061C208.991 153.795 206.933 155.579 204.051 156.67C201.104 157.785 197.286 158.172 192.92 157.965C184.283 157.555 174.067 154.854 165.647 151.798C163.015 149.828 160.279 148.309 157.35 148.146C156.144 146.343 154.797 144.693 152.958 143.674ZM153.214 148.361C152.329 148.55 151.418 148.862 150.564 149.341C148.406 150.552 146.833 152.717 146.833 156.048C146.833 156.941 147.638 157.665 148.63 157.665C149.623 157.665 150.427 156.941 150.427 156.048C150.427 153.771 151.419 152.674 152.466 152.086C153.639 151.427 155.131 151.281 156.134 151.376C156.243 151.386 156.353 151.388 156.462 151.38C158.311 151.25 160.411 152.118 163.169 154.152C163.853 156.171 163.796 158.901 162.348 161.031C160.898 163.164 157.779 165.08 151.355 164.679C143.206 164.169 138.284 160.465 137.087 156.774C136.496 154.951 136.752 153.02 138.054 151.211C139.369 149.386 141.828 147.588 145.808 146.26C148.452 145.555 149.966 145.815 151.074 146.429C151.818 146.841 152.5 147.474 153.214 148.361Z" fill="white"/>
<path d="M102.715 164.401C101.447 167.432 100.139 170.457 98.8714 173.514C97.8544 175.944 96.1441 179.689 98.6072 181.874C100.252 183.347 102.913 182.667 104.531 181.491C107.179 179.55 108.381 175.72 109.298 172.722C110.811 167.763 112.019 162.665 113.241 157.626C113.617 156.061 113.908 153.664 114.978 152.403C115.314 152.013 115.856 151.703 116.364 151.643C118.332 151.425 120.122 152.766 122.05 152.938C123.906 153.109 125.774 152.601 127.194 151.373C130.02 148.929 131.434 145.132 132.325 141.606C133.507 136.904 133.725 132.044 134.115 127.23C134.564 121.604 135.31 115.997 135.132 110.344C135.026 107.228 134.901 99.6202 129.717 100.512C127.306 100.928 125.959 104.91 125.18 106.891C121.423 116.42 118.226 126.16 114.231 135.603C110.21 145.119 106.697 154.925 102.715 164.401Z" fill="#BED2D7"/>
<path d="M211.78 106.409C212.683 106.396 213.621 109.356 214.032 110.212C214.76 111.755 215.554 113.871 216.615 115.82C216.624 115.837 216.632 115.849 216.64 115.86C216.716 115.994 216.795 116.141 216.887 116.292C216.978 116.436 217.068 116.575 217.153 116.72C217.744 117.639 218.562 118.675 219.392 118.982C220.336 119.336 221.77 118.554 221.959 117.571C222.272 115.969 221.014 113.239 221.03 113.136C220.5 111.816 218.974 107.792 218.122 105.072C218.06 104.866 217.586 103.671 218.57 103.096C219.03 102.831 219.725 103.038 220.228 103.748C221.715 105.843 224.076 110.041 224.404 110.719C224.439 110.784 224.476 110.861 224.504 110.926C224.504 110.926 224.512 110.937 224.513 110.944C224.579 111.086 226.236 114.458 227.591 115.282C228.3 115.715 229.653 115.711 230.501 114.56C230.838 114.099 230.925 113.454 230.906 112.812C230.434 108.473 227.545 104.72 226.524 102.778C226.234 102.232 224.924 100.561 226.052 100.147C227.749 99.5224 233.06 105.915 234.169 107.427C236.916 111.194 238.99 115.593 239.103 120.326C239.162 122.948 238.18 125.542 236.365 127.379C235.561 128.187 234.603 128.936 233.531 129.595C238.053 138.906 242.81 148.606 245.623 153.932C247.747 157.938 249.949 161.963 251.701 166.15C252.749 168.652 254.059 171.607 253.387 174.376C252.684 177.269 248.774 177.772 246.719 175.604C244.409 173.156 243.25 169.641 241.299 164.155C239.347 158.663 236.599 151.208 235.125 147.195C232.954 141.287 230.884 136.198 228.924 131.586C225.809 132.421 222.515 132.301 219.95 130.569C218.826 129.812 217.878 128.833 217.055 127.759C215.802 126.136 214.711 124.235 213.996 122.311C213.347 120.535 208.877 106.454 211.78 106.409Z" fill="#BED2D7"/>
<path d="M275.658 153.005C288.736 154.961 293.846 165.65 294.766 170.75C299.091 197.565 272.117 207.079 261.408 207.591C252.841 208.001 248.898 201.105 247.997 197.606C240.759 196.025 238.255 191.94 237.907 190.094C236.629 191.212 233.477 191.473 231.096 183.574C228.715 175.675 243.156 168.062 250.673 165.242C251.368 156.86 259.309 150.561 275.658 153.005Z" fill="#F95D5D"/>
<path d="M76.6879 161.963C64.5164 167.133 62.2482 178.762 62.6356 183.931C65.1681 210.973 93.6654 213.424 104.161 211.237C112.558 209.487 114.647 201.823 114.643 198.21C121.254 194.866 122.654 190.283 122.528 188.409C124.046 189.171 127.163 188.634 127.488 180.39C127.814 172.147 111.926 168.395 103.941 167.549C101.168 159.608 91.9023 155.5 76.6879 161.963Z" fill="#F95D5D"/>
<ellipse cx="185.827" cy="270.132" rx="104.119" ry="30.9963" fill="#E8F3FF"/>
<ellipse cx="185.828" cy="270.132" rx="65.6255" ry="20.9346" fill="#E1ECFA"/>
<rect x="131.186" y="270.469" width="109.992" height="8.76747" rx="4" fill="black" style="mix-blend-mode:overlay"/>
<path d="M243.004 247.457H137.219V263.968C137.127 265.43 137.808 268.353 141.261 268.353H243.004V247.457Z" fill="#FDFDF3"/>
<path d="M164.624 171.475C154.918 174.535 134.135 186.438 128.654 209.568H207.722C211.997 200.421 216.119 197.54 217.645 197.244L164.624 171.475Z" fill="#F28D8A"/>
<path d="M128.654 209.568V218.201H137.219H208.37C207.534 214.857 207.487 211.618 207.722 209.568H128.654Z" fill="#EF6A67"/>
<path d="M137.219 247.457H243.004C233.802 247.457 226.963 243.484 222.312 238.892H137.219V218.201H128.654V270.066C128.654 274.451 132.537 276.278 134.478 276.643H237.249C241.908 276.643 243.027 272.533 243.004 270.477V268.353H141.261C137.808 268.353 137.127 265.43 137.219 263.968V247.457Z" fill="#FDEEBD"/>
<path d="M137.219 218.201V238.892H222.312C218.698 235.323 216.406 231.38 215.355 228.636C211.405 226.167 209.348 222.112 208.37 218.201H137.219Z" fill="#FFFCF4"/>
<path d="M227.569 221.384C226.758 220.56 225.803 219.479 224.808 218.201C222.985 215.858 221.029 212.855 219.58 209.568C219.086 208.446 218.65 207.291 218.299 206.117C216.478 206.921 211.942 210.464 208.37 218.201C209.348 222.112 211.405 226.167 215.355 228.636C216.406 231.38 218.698 235.323 222.312 238.892C226.1 239.426 233.599 239.554 233.294 235.792C232.175 234.218 231.132 232.63 230.241 231.09C228.009 227.231 226.727 223.671 227.569 221.384Z" fill="#F2EFE8"/>
<path d="M243.004 247.457C240.929 245.299 238.203 242.229 235.606 238.892C234.816 237.877 234.038 236.838 233.294 235.792C233.599 239.554 226.1 239.426 222.312 238.892C226.963 243.484 233.802 247.457 243.004 247.457Z" fill="#F2E4B5"/>
<path d="M217.645 197.244C216.119 197.54 211.997 200.421 207.722 209.568C207.487 211.618 207.534 214.857 208.37 218.201C211.942 210.464 216.478 206.921 218.299 206.117C217.426 203.195 217.076 200.16 217.645 197.244Z" fill="#E36562"/>
<path d="M183.782 180.477C181.459 175.696 177.623 174.033 175.996 173.8C176.018 177.425 173.224 177.796 171.191 179.706C165.74 178.855 159.073 179.61 156.128 180.59C153.697 178.809 152.706 176.641 148.651 176.037C141.877 175.028 139.378 184.328 143.927 189.737C147.567 194.064 151.128 195.957 153.13 195.666C153.13 195.666 153.898 196.328 154.856 197.042C160.605 201.326 170.477 196.823 173.701 193.854C175.536 194.291 177.681 193.913 179.663 193.439C184.283 192.334 186.684 186.454 183.782 180.477Z" fill="#FFF8E4"/>
<path d="M175.977 172.617C177.701 179.335 173.306 186.267 166.16 188.102C159.014 189.936 151.823 185.978 150.099 179.261C148.374 172.543 152.218 166.028 160.447 165.846C167.161 161.916 174.252 165.9 175.977 172.617Z" fill="url(#paint0_linear_361_6704)"/>
<path d="M175.977 172.617C177.701 179.335 173.306 186.267 166.16 188.102C159.014 189.936 151.823 185.978 150.099 179.261C148.374 172.543 152.218 166.028 160.447 165.846C167.161 161.916 174.252 165.9 175.977 172.617Z" fill="url(#paint1_linear_361_6704)" fill-opacity="0.2"/>
<path d="M158.885 168.359C159.558 169.028 161.505 169.791 163.91 167.493" stroke="#525252" stroke-opacity="0.3" stroke-linecap="round" style="mix-blend-mode:hard-light"/>
<path d="M161.594 148.841C152.112 146.148 157.027 158.682 161.676 168.916C162.737 168.644 158.126 159.583 157.282 155.07C156.229 149.43 166.694 150.29 161.594 148.841Z" fill="#A02B2B"/>
<path d="M142.592 186.393C144.309 181.327 148.101 179.131 149.783 178.666C150.315 182.257 153.319 182.222 155.758 183.82C161.378 182.194 168.527 181.983 171.784 182.529C174.076 180.418 174.789 178.129 178.975 176.949C185.967 174.976 190.029 183.82 186.058 189.827C182.881 194.633 179.414 197.018 177.258 197.018C177.258 197.018 176.549 197.784 175.648 198.628C170.239 203.694 159.134 200.656 155.277 198.182C153.408 198.878 151.087 198.812 148.924 198.628C143.88 198.199 140.445 192.725 142.592 186.393Z" fill="white"/>
<defs>
<linearGradient id="paint0_linear_361_6704" x1="171.461" y1="167.568" x2="154.286" y2="188.56" gradientUnits="userSpaceOnUse">
<stop stop-color="#F94343"/>
<stop offset="1" stop-color="#E03C3C"/>
</linearGradient>
<linearGradient id="paint1_linear_361_6704" x1="169.553" y1="170.24" x2="169.553" y2="181.309" gradientUnits="userSpaceOnUse">
<stop stop-color="white" stop-opacity="0"/>
<stop offset="1" stop-color="white"/>
</linearGradient>
</defs>
</svg>
