<svg width="358" height="358" viewBox="0 0 358 358" fill="none" xmlns="http://www.w3.org/2000/svg">
<g clip-path="url(#clip0_361_6611)">
<rect width="358" height="358" fill="white"/>
<rect x="-15" y="98" width="64" height="32" rx="16" fill="#D9D9D9"/>
<path d="M10.1055 108.988V109.891H6.90625C6.96484 111.045 8.48242 112.064 10.4336 112.293L10.0117 113.195C8.21289 112.943 6.73633 112.1 6.17383 110.916C5.59961 112.1 4.12891 112.943 2.33594 113.195L1.91406 112.293C3.87695 112.064 5.37695 111.045 5.42969 109.891H2.26562V108.988H10.1055ZM1.38672 115V114.098H5.61719V112.434H6.71875V114.098H10.9844V115H1.38672ZM2.59375 118.773V115.785H3.71875V117.871H9.88281V118.773H2.59375ZM16.2578 109.387V110.289H13.3047V113.23C14.6172 113.225 15.5898 113.166 16.7031 112.938L16.8086 113.852C15.5254 114.086 14.459 114.139 12.8945 114.145H12.2031V109.387H16.2578ZM13.0586 118.082C15.0332 117.795 16.5918 116.623 16.5977 115.316V114.93H17.7109V115.316C17.7109 116.623 19.2695 117.795 21.25 118.082L20.7812 118.949C19.1758 118.674 17.7988 117.871 17.1602 116.758C16.5098 117.871 15.127 118.674 13.5273 118.949L13.0586 118.082ZM17.3242 114.508V108.684H18.3672V111.168H19.6562V108.496H20.7109V115.422H19.6562V112.082H18.3672V114.508H17.3242ZM30.3789 108.496V110.688H31.9023V111.613H30.3789V113.805H29.2656V108.496H30.3789ZM22.5391 113.312V109.059H27.4492V113.312H22.5391ZM23.5938 115.152V114.285H30.3789V116.945H24.707V117.977H30.7422V118.867H23.6172V116.113H29.2773V115.152H23.5938ZM23.6289 112.422H26.3594V109.949H23.6289V112.422Z" fill="white"/>
<rect x="57" y="98" width="53" height="32" rx="16" fill="#D9D9D9"/>
<path d="M81.6367 108.508V111.602H83.1602V112.539H81.6367V116.219H80.5234V108.508H81.6367ZM73.7969 114.484V109.258H74.8867V110.934H77.6406V109.258H78.7422V114.484H73.7969ZM74.8867 113.594H77.6406V111.812H74.8867V113.594ZM74.9805 118.773V115.457H76.0938V117.871H82.082V118.773H74.9805ZM92.0078 108.496V110.688H93.5312V111.613H92.0078V113.805H90.8945V108.496H92.0078ZM84.168 113.312V109.059H89.0781V113.312H84.168ZM85.2227 115.152V114.285H92.0078V116.945H86.3359V117.977H92.3711V118.867H85.2461V116.113H90.9062V115.152H85.2227ZM85.2578 112.422H87.9883V109.949H85.2578V112.422Z" fill="white"/>
<rect x="118" y="98" width="64" height="32" rx="16" fill="url(#paint0_linear_361_6611)"/>
<path d="M143.984 114.426V115.34H141.547V118.996H140.422V115.34H137.914V118.996H136.766V115.34H134.375V114.426H143.984ZM135.418 111.215C135.424 109.797 136.936 108.895 139.156 108.895C141.377 108.895 142.9 109.797 142.895 111.215C142.9 112.615 141.377 113.5 139.156 113.488C136.936 113.5 135.424 112.615 135.418 111.215ZM136.566 111.215C136.561 112.076 137.598 112.609 139.156 112.609C140.721 112.609 141.752 112.076 141.758 111.215C141.752 110.33 140.721 109.791 139.156 109.785C137.598 109.791 136.561 110.33 136.566 111.215ZM153.711 108.496V115.117H152.656V112.188H151.438V114.754H150.395V108.695H151.438V111.273H152.656V108.496H153.711ZM144.699 110.57V109.691H146.82V108.578H147.922V109.691H150.008V110.57H144.699ZM145.109 112.867C145.109 111.777 146.047 111.062 147.359 111.062C148.701 111.062 149.633 111.777 149.633 112.867C149.633 113.957 148.701 114.672 147.359 114.672C146.047 114.672 145.109 113.957 145.109 112.867ZM146.105 112.867C146.105 113.465 146.615 113.857 147.359 113.863C148.115 113.857 148.631 113.465 148.625 112.867C148.631 112.27 148.115 111.877 147.359 111.883C146.615 111.877 146.105 112.27 146.105 112.867ZM146.645 117.133C146.633 115.943 147.969 115.27 150.195 115.27C152.428 115.27 153.764 115.943 153.77 117.133C153.764 118.311 152.428 118.979 150.195 118.973C147.969 118.979 146.633 118.311 146.645 117.133ZM147.746 117.133C147.734 117.766 148.637 118.129 150.195 118.117C151.76 118.129 152.65 117.766 152.656 117.133C152.65 116.471 151.76 116.119 150.195 116.125C148.637 116.119 147.734 116.471 147.746 117.133ZM157.977 109.281C159.406 109.287 160.443 110.494 160.613 112.434H162.781V108.496H163.883V119.02H162.781V113.336H160.625C160.502 115.387 159.441 116.658 157.977 116.652C156.412 116.658 155.305 115.229 155.316 112.961C155.305 110.717 156.412 109.287 157.977 109.281ZM156.371 112.961C156.377 114.631 157.027 115.656 157.977 115.656C158.926 115.656 159.576 114.631 159.582 112.961C159.576 111.314 158.926 110.283 157.977 110.277C157.027 110.283 156.377 111.314 156.371 112.961Z" fill="white"/>
<rect x="190" y="98" width="98" height="32" rx="16" fill="#D9D9D9"/>
<path d="M215.141 108.508V114.719H214.027V113.441H211.379V112.527H214.027V111.25H211.49C210.811 112.938 209.234 114.127 206.961 114.777L206.516 113.91C209 113.201 210.453 111.865 210.652 110.172H207.055V109.258H211.859C211.859 109.645 211.818 110.02 211.748 110.371H214.027V108.508H215.141ZM208.145 116.887C208.145 115.615 209.527 114.842 211.684 114.836C213.811 114.842 215.205 115.615 215.211 116.887C215.205 118.164 213.811 118.949 211.684 118.949C209.527 118.949 208.145 118.164 208.145 116.887ZM209.246 116.887C209.246 117.625 210.184 118.053 211.684 118.059C213.154 118.053 214.092 117.625 214.098 116.887C214.092 116.137 213.154 115.709 211.684 115.715C210.184 115.709 209.246 116.137 209.246 116.887ZM220.379 110.172C220.373 111.549 221.346 112.832 222.91 113.348L222.312 114.227C221.164 113.822 220.303 113.002 219.846 111.965C219.389 113.143 218.498 114.068 217.273 114.52L216.676 113.629C218.316 113.049 219.266 111.648 219.277 110.078V109.047H220.379V110.172ZM218.094 117.027C218.094 115.797 219.436 115.076 221.621 115.082C223.777 115.076 225.102 115.797 225.102 117.027C225.102 118.27 223.777 118.979 221.621 118.973C219.436 118.979 218.094 118.27 218.094 117.027ZM219.207 117.027C219.201 117.719 220.104 118.094 221.621 118.105C223.127 118.094 224.018 117.719 224.012 117.027C224.018 116.359 223.127 115.961 221.621 115.961C220.104 115.961 219.201 116.359 219.207 117.027ZM223.895 114.836V108.496H225.008V111.133H226.531V112.07H225.008V114.836H223.895ZM235.637 113.336V114.227H232.461V116.793H236.738V117.707H227.129V116.793H231.359V114.227H228.324V109.305H235.543V110.207H229.438V113.336H235.637ZM244.074 111.168C244.062 113.025 245.146 114.93 246.711 115.691L246.02 116.582C244.877 115.984 243.992 114.812 243.529 113.412C243.061 114.9 242.141 116.16 240.945 116.781L240.254 115.879C241.865 115.105 242.955 113.09 242.961 111.168V109.375H244.074V111.168ZM247.496 118.996V108.496H248.609V112.68H250.297V113.629H248.609V118.996H247.496ZM260.398 114.801V115.715H256.133V118.996H255.031V115.715H250.789V114.801H260.398ZM252.055 113.828V108.965H259.215V109.855H253.145V110.934H258.98V111.801H253.145V112.938H259.332V113.828H252.055ZM269.891 108.496V119.02H268.777V108.496H269.891ZM261.758 110.348V109.445H266.68V113.277H262.906V115.574C264.611 115.568 266.094 115.486 267.852 115.199L267.957 116.113C266.1 116.424 264.518 116.494 262.66 116.5H261.77V112.387H265.543V110.348H261.758Z" fill="white"/>
<rect x="296" y="98" width="90" height="32" rx="16" fill="url(#paint1_linear_361_6611)"/>
<path d="M321.398 108.496V118.996H320.332V108.496H321.398ZM312.234 116.102C313.723 115.205 314.479 113.295 314.484 111.426V110.582H312.551V109.68H317.355V110.582H315.551V111.426C315.551 113.219 316.277 115.018 317.754 115.867L317.086 116.688C316.084 116.09 315.398 115.018 315.029 113.752C314.654 115.123 313.939 116.295 312.914 116.934L312.234 116.102ZM316.582 113.125V112.211H318.211V108.719H319.266V118.469H318.211V113.125H316.582ZM332.332 114.414V115.316H328.066V118.984H326.977V115.316H322.758V114.414H332.332ZM323.297 112.738C325.254 112.469 326.883 111.303 326.918 110.008H323.648V109.117H331.43V110.008H328.184C328.201 111.303 329.818 112.469 331.805 112.738L331.395 113.617C329.672 113.348 328.184 112.498 327.545 111.303C326.9 112.498 325.418 113.348 323.719 113.617L323.297 112.738ZM341.637 113.336V114.227H338.461V116.793H342.738V117.707H333.129V116.793H337.359V114.227H334.324V109.305H341.543V110.207H335.438V113.336H341.637ZM350.074 111.168C350.062 113.025 351.146 114.93 352.711 115.691L352.02 116.582C350.877 115.984 349.992 114.812 349.529 113.412C349.061 114.9 348.141 116.16 346.945 116.781L346.254 115.879C347.865 115.105 348.955 113.09 348.961 111.168V109.375H350.074V111.168ZM353.496 118.996V108.496H354.609V112.68H356.297V113.629H354.609V118.996H353.496ZM365.273 111.742V112.527H358.031V108.684H365.203V109.48H359.156V110.207H364.934V110.969H359.156V111.742H365.273ZM356.812 114.051V113.219H366.363V114.051H362.133V114.859H365.168V117.215H359.051V118.07H365.461V118.891H357.961V116.441H364.066V115.656H357.949V114.859H361.02V114.051H356.812ZM369.059 117.191L368.121 120.426H367.125L367.746 117.191H369.059ZM367.535 112.609C367.529 112.152 367.91 111.777 368.367 111.777C368.818 111.777 369.193 112.152 369.199 112.609C369.193 113.066 368.818 113.436 368.367 113.441C367.91 113.436 367.529 113.066 367.535 112.609Z" fill="white"/>
<path d="M260.406 103.394C264.707 97.4832 292.968 97.3608 302.138 112.676C312.359 129.747 317.587 188.408 287.982 208.21C244.899 237.027 190.499 230.272 163.754 213.804C142.411 200.662 140.611 163.631 150.683 122.09C155.124 103.776 182.832 100.283 186.946 107.167C189.434 111.331 187.543 120.43 187.543 120.43C211.117 114.473 221.451 109.671 260.471 117.228C260.471 117.228 254.696 111.243 260.406 103.394Z" fill="#F95D5D"/>
<path fill-rule="evenodd" clip-rule="evenodd" d="M239.169 175.985C241.098 174.797 243.379 174.66 246.214 175.51C246.244 175.519 246.274 175.529 246.304 175.54C250.175 176.967 252.914 179.031 254.499 181.476C256.099 183.944 256.454 186.705 255.698 189.297C254.198 194.436 248.544 198.475 240.753 199.016C234.439 199.454 230.505 197.342 228.513 194.086C227.246 192.016 226.867 189.637 227.035 187.503C220.168 190.077 212.167 192.267 205.144 192.637C201.17 192.847 197.385 192.481 194.269 191.171C191.098 189.837 188.634 187.525 187.448 183.981C187.179 183.175 187.613 182.304 188.419 182.035C189.224 181.765 190.095 182.2 190.364 183.005C191.234 185.604 192.995 187.299 195.461 188.336C197.982 189.396 201.247 189.764 204.982 189.567C212.372 189.177 221.111 186.61 228.314 183.706C230.566 181.833 232.907 180.39 235.412 180.235C236.443 178.521 237.596 176.953 239.169 175.985ZM238.951 180.439C239.708 180.619 240.487 180.915 241.218 181.371C243.064 182.522 244.409 184.58 244.409 187.745C244.409 188.594 243.721 189.282 242.871 189.282C242.022 189.282 241.334 188.594 241.334 187.745C241.334 185.581 240.486 184.538 239.59 183.979C238.587 183.354 237.31 183.214 236.452 183.305C236.359 183.314 236.265 183.316 236.172 183.308C234.59 183.185 232.793 184.01 230.434 185.943C229.849 187.862 229.898 190.457 231.136 192.482C232.376 194.508 235.045 196.33 240.54 195.948C247.511 195.464 251.722 191.944 252.746 188.435C253.252 186.703 253.033 184.867 251.919 183.148C250.794 181.413 248.691 179.705 245.286 178.442C243.024 177.772 241.729 178.019 240.781 178.603C240.145 178.995 239.561 179.596 238.951 180.439Z" fill="white"/>
<circle cx="199.284" cy="163.182" r="4.41336" fill="white"/>
<circle cx="225.753" cy="163.061" r="4.41336" fill="white"/>
<path d="M218.516 244.095C228.699 289.671 200.903 334.673 156.432 344.609C111.96 354.546 67.6538 325.654 57.4706 280.077L218.516 244.095Z" fill="url(#paint2_linear_361_6611)"/>
<ellipse cx="137.995" cy="262.086" rx="82.5083" ry="48.685" transform="rotate(-12.5948 137.995 262.086)" fill="#9272B8"/>
<path d="M148.609 309.599C120.074 315.975 93.049 312.818 75.7955 302.804C72.806 297.116 69.6458 283.947 80.9202 276.772C95.0132 267.804 96.6273 282.052 121.406 260.117C137.036 246.28 129.861 220.4 174.703 246.536C190.333 252.686 194.689 246.446 202.889 244.095C211.089 241.743 217.023 250.038 218.966 254.48C215.983 277.663 187.275 300.96 148.609 309.599Z" fill="#FFEEC2"/>
<ellipse cx="188.284" cy="219.632" rx="13.5806" ry="11.7869" transform="rotate(-9.22706 188.284 219.632)" fill="#FFEEC2"/>
<ellipse cx="133.712" cy="214.159" rx="6.40592" ry="5.38097" transform="rotate(-51.2998 133.712 214.159)" fill="#FFEEC2"/>
<path d="M65.2245 273.764C63.8781 276.004 58.3734 275.491 54.2726 274.577C47.099 272.977 45.7131 270.112 48.6363 265.242C50.3281 262.423 56.5569 261.16 60.8023 263.711C65.0477 266.262 67.0276 270.763 65.2245 273.764Z" fill="#FFEEC2"/>
<path d="M226.304 265.799C242.858 257.609 257.743 264.856 263.116 269.502C290.78 294.334 268.125 325.483 256.363 334.413C246.953 341.558 236.613 337.39 232.62 334.413C223.036 338.421 216.719 336.083 214.759 334.413C214.25 336.592 210.881 339.336 201.472 332.889C192.062 326.441 202.053 307.113 208.224 298.255C201.908 288.889 205.611 276.037 226.304 265.799Z" fill="#F95D5D"/>
<path fill-rule="evenodd" clip-rule="evenodd" d="M158.425 282.136C157.839 273.776 153.434 264.247 147.173 254.18C141.093 244.405 132.163 237.672 123.615 234.109C119.342 232.328 115.21 231.359 111.624 231.176C108.013 230.991 105.098 231.61 103.12 232.84C101.142 234.07 99.298 236.411 97.8664 239.732C96.4446 243.029 95.4872 247.164 95.1951 251.784C94.6107 261.026 96.7008 272.013 102.78 281.788C109.041 291.856 115.64 300.02 122.88 304.242C126.464 306.333 130.175 307.438 134.08 307.356C137.988 307.273 142.218 305.999 146.833 303.128C151.449 300.258 154.462 297.027 156.264 293.558C158.065 290.092 158.715 286.276 158.425 282.136ZM147.754 304.608C167.067 292.596 161.232 273.486 148.652 253.26C136.073 233.033 111.737 225.429 102.199 231.36C92.6617 237.292 88.7211 262.482 101.3 282.709C113.88 302.935 128.44 316.619 147.754 304.608Z" fill="#D9D9D9"/>
<path fill-rule="evenodd" clip-rule="evenodd" d="M152.548 286.046C150.913 278.234 146.116 268.83 139.841 258.74C133.691 248.852 125.748 241.405 118.591 236.948C115.008 234.718 111.679 233.271 108.919 232.618C106.092 231.949 104.178 232.182 103.12 232.84C102.062 233.498 101.006 235.112 100.356 237.944C99.7218 240.708 99.547 244.333 99.9637 248.533C100.796 256.923 103.963 267.341 110.112 277.228C116.387 287.319 122.701 295.779 128.985 300.701C132.112 303.149 135.133 304.643 138.051 305.094C140.925 305.538 143.832 304.994 146.833 303.128C149.834 301.262 151.607 298.895 152.48 296.121C153.366 293.303 153.362 289.933 152.548 286.046ZM147.754 304.608C161.086 296.316 153.9 278.046 141.321 257.819C128.741 237.593 108.783 227.266 102.199 231.36C95.6153 235.455 96.053 257.922 108.632 278.149C121.212 298.375 134.421 312.9 147.754 304.608Z" fill="#D9D9D9"/>
<path fill-rule="evenodd" clip-rule="evenodd" d="M146.471 290.138C143.702 282.878 138.488 273.594 132.203 263.49C125.986 253.493 119.085 245.263 113.341 239.828C110.462 237.102 107.925 235.128 105.952 233.978C104.96 233.399 104.184 233.074 103.63 232.939C103.378 232.877 103.222 232.866 103.136 232.867C103.098 232.943 103.038 233.088 102.982 233.342C102.858 233.899 102.808 234.738 102.888 235.884C103.047 238.162 103.696 241.311 104.867 245.098C107.203 252.653 111.532 262.482 117.75 272.479C124.034 282.583 130.055 291.366 135.342 297.059C137.996 299.917 140.359 301.878 142.379 302.878C144.359 303.857 145.747 303.803 146.833 303.128C147.919 302.453 148.581 301.232 148.578 299.023C148.575 296.769 147.86 293.782 146.471 290.138ZM147.754 304.608C154.856 300.191 146.263 282.796 133.683 262.569C121.104 242.343 105.707 229.179 102.199 231.36C98.692 233.542 103.69 253.172 116.27 273.399C128.849 293.626 140.651 309.025 147.754 304.608Z" fill="#D9D9D9"/>
<path d="M54.5001 171.158C52.4671 167.889 53.469 163.591 56.738 161.558L59.6975 159.718C62.9665 157.685 67.2646 158.686 69.2976 161.955L108.22 224.539C110.253 227.808 109.251 232.106 105.982 234.139L103.022 235.98C99.7534 238.013 95.4552 237.011 93.4222 233.742L54.5001 171.158Z" fill="#BABABA"/>
<path d="M92.5684 164.977C87.8489 158.442 73.1387 147.856 52.0535 157.789C25.697 170.205 25.9148 207.888 44.6475 210.502C45.1558 216.819 49.7011 228.886 63.816 226.621C66.7929 232.865 75.8759 242.83 90.3393 233.246C91.6904 232.123 91.2548 229.727 90.3393 228.454C88.856 226.392 83.8046 209.068 88.3789 207.979C90.6444 206.974 95.6984 205.566 97.7895 207.979C99.8806 210.391 103.25 216.428 104.76 219.054C106.502 218.836 113.915 213.333 111.519 200.482C109.123 187.63 97.1426 169.654 92.5684 164.977Z" fill="url(#paint3_linear_361_6611)"/>
<path d="M92.5684 164.977C87.8489 158.442 73.1387 147.856 52.0535 157.789C25.697 170.205 25.9148 207.888 44.6475 210.502C45.1558 216.819 49.7011 228.886 63.816 226.621C66.7929 232.865 75.8759 242.83 90.3393 233.246C91.6904 232.123 91.2548 229.727 90.3393 228.454C88.856 226.392 83.8046 209.068 88.3789 207.979C90.6444 206.974 95.6984 205.566 97.7895 207.979C99.8806 210.391 103.25 216.428 104.76 219.054C106.502 218.836 113.915 213.333 111.519 200.482C109.123 187.63 97.1426 169.654 92.5684 164.977Z" fill="url(#paint4_linear_361_6611)" fill-opacity="0.2"/>
<path d="M142.214 308.557C126.578 312.051 111.768 310.321 102.314 304.833C100.676 301.716 98.944 294.5 105.122 290.568C112.845 285.654 113.729 293.461 127.307 281.442C135.872 273.859 131.941 259.678 156.513 274C165.078 277.37 167.465 273.95 171.958 272.662C176.452 271.373 179.704 275.919 180.768 278.352C179.134 291.056 163.402 303.823 142.214 308.557Z" fill="#FFEEC2"/>
<path d="M46.8769 244.49C47.6864 243.407 48.6899 242.446 50.0933 241.855C53.0755 240.6 59.7909 241.25 60.7013 245.229C60.9535 246.332 60.8031 247.721 59.8618 248.407C58.8262 249.161 56.9188 248.798 56.2515 247.486C55.2843 245.584 58.3109 244.622 59.985 244.572C60.7993 244.548 61.6482 244.63 62.4826 244.803C67.4906 245.839 68.3775 250.633 67.1905 253.593" stroke="#F95D5D" stroke-miterlimit="1.5" stroke-linecap="round" stroke-linejoin="round"/>
<path d="M49.6637 222.686C50.828 221.998 52.1244 221.498 53.6469 221.493C56.8825 221.484 62.8292 224.671 62.1362 228.694C61.9441 229.808 61.2699 231.033 60.137 231.303C58.8909 231.6 57.2706 230.53 57.1603 229.062C57.0005 226.934 60.1641 227.213 61.7283 227.811C62.4891 228.103 63.2406 228.506 63.9441 228.987C68.1665 231.872 67.1375 236.638 64.9019 238.912" stroke="#F89391" stroke-miterlimit="1.5" stroke-linecap="round" stroke-linejoin="round"/>
<path d="M232.608 229.809C231.798 228.726 230.795 227.765 229.391 227.174C226.409 225.919 219.694 226.569 218.783 230.548C218.531 231.651 218.682 233.04 219.623 233.726C220.658 234.48 222.566 234.117 223.233 232.805C224.2 230.903 221.174 229.941 219.5 229.891C218.685 229.867 217.836 229.949 217.002 230.122C211.994 231.158 211.107 235.952 212.294 238.912" stroke="#FBE750" stroke-miterlimit="1.5" stroke-linecap="round" stroke-linejoin="round"/>
<path d="M213.825 219.413C213.065 219.125 212.245 218.962 211.342 219.115C209.424 219.442 206.227 221.941 207.05 224.254C207.278 224.894 207.803 225.551 208.503 225.595C209.271 225.643 210.122 224.842 210.037 223.961C209.913 222.684 208.067 223.174 207.201 223.689C206.78 223.939 206.376 224.256 206.009 224.613C203.802 226.756 204.901 229.475 206.459 230.593" stroke="#FBEC7E" stroke-miterlimit="1.5" stroke-linecap="round" stroke-linejoin="round"/>
<path d="M2 159.16L71.9527 300.09C81.6897 307.777 111.606 321.018 157.28 307.265C180.329 300.324 195.748 289.902 205.452 279.523C207.502 273.729 212.889 268.343 215.048 266.68C221.077 253.109 218.952 248.754 218.952 245.893C218.952 243.031 203.915 105.35 203.915 105.35L2 159.16Z" fill="url(#paint5_linear_361_6611)" style="mix-blend-mode:overlay"/>
<rect x="-15" y="18" width="53" height="32" rx="16" fill="#D9D9D9"/>
<path d="M10.4102 28.4961V38.9961H9.35547V28.4961H10.4102ZM8.19531 28.7656V38.4805H7.14062V33.6055H5.08984C4.46289 34.8242 3.4668 35.8906 1.98438 36.7578L1.35156 35.9609C3.57812 34.6367 4.65039 32.873 4.84375 30.7109H1.84375V29.7969H5.94531C5.93945 30.8223 5.79883 31.8008 5.47656 32.7148H7.14062V28.7656H8.19531ZM20.4648 28.5078V34.4844H19.3516V28.5078H20.4648ZM20.4648 35.0117V38.8672H13.5625V35.0117H20.4648ZM14.6641 35.9023V37.9648H19.375V35.9023H14.6641ZM14.7695 29.0352C16.375 29.0352 17.5586 30.043 17.5586 31.5195C17.5586 32.9609 16.375 33.9805 14.7695 33.9805C13.1641 33.9805 11.9688 32.9609 11.9688 31.5195C11.9688 30.043 13.1641 29.0352 14.7695 29.0352ZM14.7695 29.9727C13.7734 29.9727 13.0586 30.582 13.0586 31.5195C13.0586 32.4219 13.7734 33.043 14.7695 33.043C15.7539 33.043 16.4688 32.4219 16.4688 31.5195C16.4688 30.582 15.7539 29.9727 14.7695 29.9727Z" fill="white"/>
<rect x="46" y="18" width="78" height="32" rx="16" fill="#D9D9D9"/>
<path d="M68.2344 29.6211V30.2656C68.2344 31.1445 68.2344 32.5039 67.9297 34.3789L66.8281 34.2969C67.0918 32.6152 67.1211 31.4023 67.1328 30.5234H62.8672V29.6211H68.2344ZM65.5391 32.6211V35.7617C66.6582 35.7266 67.7949 35.6504 68.8438 35.5156L68.9023 36.3477C66.7109 36.6992 64.2734 36.7461 62.4102 36.7344L62.2812 35.832C62.9375 35.8262 63.6699 35.8203 64.4375 35.7969V32.6211H65.5391ZM70.5664 28.4961V32.832H72.1719V33.7812H70.5664V38.9961H69.4414V28.4961H70.5664ZM79.0273 29.5625V30.4531H72.7695V29.5625H75.3477V28.4492H76.4609V29.5625H79.0273ZM75.8984 30.9219C77.4102 30.9336 78.4414 31.6836 78.4414 32.832C78.4414 33.9805 77.4102 34.7422 75.8984 34.7422C74.375 34.7422 73.3438 33.9805 73.3438 32.832C73.3438 31.6836 74.375 30.9336 75.8984 30.9219ZM75.8984 31.7773C75.0078 31.7773 74.4102 32.1875 74.4219 32.832C74.4102 33.4883 75.0078 33.875 75.8984 33.875C76.7891 33.875 77.3867 33.4883 77.3984 32.832C77.3867 32.1875 76.7891 31.7773 75.8984 31.7773ZM81.0078 28.4961V31.3438H82.5312V32.2695H81.0078V35.0586H79.8945V28.4961H81.0078ZM81.0078 35.5977V38.9961H79.8945V36.5H74.0703V35.5977H81.0078ZM86.7383 29.1172L84.0078 39.2773H82.8945L85.625 29.1172H86.7383ZM96.0195 28.4961V38.9961H94.8945V28.4961H96.0195ZM92.8906 29.6211C92.8906 32.6914 91.5781 35.3633 87.9805 37.0859L87.3945 36.1836C90.1895 34.8535 91.5488 32.9609 91.7656 30.5117H87.8984V29.6211H92.8906ZM103.016 28.8945C103.016 30.1016 104.68 31.1094 106.73 31.3438L106.344 32.1875C104.621 31.9824 103.115 31.2559 102.441 30.1836C101.762 31.2559 100.256 31.9824 98.5508 32.1875L98.1641 31.3438C100.215 31.1094 101.879 30.1016 101.879 28.8945V28.543H103.016V28.8945ZM107.234 32.7969V33.6875H102.992V34.625H106.027V37.1094H99.9102V38.0352H106.32V38.8906H98.8203V36.3008H104.926V35.4805H98.8086V34.625H101.879V33.6875H97.6602V32.7969H107.234Z" fill="white"/>
<rect x="132" y="18" width="53" height="32" rx="16" fill="#D9D9D9"/>
<path d="M156.918 29.5039V30.6289C156.906 31.9531 156.906 33.3359 156.531 35.3398L155.441 35.2227C155.805 33.3242 155.805 31.918 155.805 30.6289V30.4062H149.371V29.5039H156.918ZM157.961 36.6523V37.5781H148.387V36.6523H150.648V33.2539H151.762V36.6523H153.273V33.2539H154.363V36.6523H157.961ZM168.332 33.5V34.4023H165.859V35.6211H167.16V38.9961H166.035V36.5H159.824V35.6211H161.207V34.4023H158.758V33.5H168.332ZM163.539 28.7305C165.836 28.7188 167.289 29.4922 167.289 30.7578C167.289 32.0234 165.836 32.7969 163.539 32.7852C161.242 32.7969 159.789 32.0234 159.789 30.7578C159.789 29.4922 161.242 28.7188 163.539 28.7305ZM163.539 29.6094C161.922 29.5977 160.926 30.0312 160.938 30.7578C160.926 31.4961 161.922 31.918 163.539 31.918C165.145 31.918 166.141 31.4961 166.141 30.7578C166.141 30.0312 165.145 29.5977 163.539 29.6094ZM162.32 35.6211H164.77V34.4023H162.32V35.6211Z" fill="white"/>
<rect x="193" y="18" width="99" height="32" rx="16" fill="url(#paint6_linear_361_6611)"/>
<path d="M217.906 33.1836V34.0977H214.73V36.7695H218.996V37.6836H209.387V36.7695H213.617V34.0977H210.535V29.3633H211.66V33.1836H217.906ZM227.938 28.4961V32.75H229.625V33.6758H227.938V38.9961H226.836V28.4961H227.938ZM225.922 30.1367V31.0508H219.699V30.1367H222.289V28.6367H223.402V30.1367H225.922ZM222.852 31.8242C224.352 31.8242 225.453 32.832 225.465 34.2617C225.453 35.7031 224.352 36.6992 222.852 36.7109C221.34 36.6992 220.238 35.7031 220.238 34.2617C220.238 32.832 221.34 31.8242 222.852 31.8242ZM222.852 32.7383C221.961 32.7383 221.293 33.3594 221.305 34.2617C221.293 35.1758 221.961 35.7852 222.852 35.7734C223.742 35.7852 224.398 35.1758 224.398 34.2617C224.398 33.3594 223.742 32.7383 222.852 32.7383ZM239.727 34.4609V35.3867H235.438V38.9961H234.348V35.3867H230.117V34.4609H239.727ZM234.898 28.8945C237.113 28.8945 238.637 29.7969 238.637 31.2266C238.637 32.6445 237.113 33.5352 234.898 33.5352C232.672 33.5352 231.16 32.6445 231.16 31.2266C231.16 29.7969 232.672 28.8945 234.898 28.8945ZM234.898 29.7852C233.34 29.7969 232.297 30.3359 232.309 31.2266C232.297 32.1055 233.34 32.6445 234.898 32.6445C236.457 32.6445 237.5 32.1055 237.5 31.2266C237.5 30.3359 236.457 29.7969 234.898 29.7852ZM244.109 29.1172L241.379 39.2773H240.266L242.996 29.1172H244.109ZM249.992 29.9844C249.992 31.6953 251.82 33.3125 253.836 33.6758L253.32 34.6016C251.645 34.2383 250.098 33.1367 249.418 31.6602C248.727 33.125 247.186 34.2266 245.504 34.6016L245.012 33.6758C247.004 33.3008 248.82 31.6953 248.82 29.9844V29.1875H249.992V29.9844ZM254.27 36.6875V37.6133H244.66V36.6875H254.27ZM260.422 29.4219V30.3359H256.602V32.3633H260.211V33.2539H256.602V35.6094C258.354 35.6035 259.648 35.5273 261.172 35.2812L261.277 36.1836C259.66 36.4531 258.254 36.5117 256.32 36.5117H255.477V29.4219H260.422ZM263.211 28.4961V32.6328H264.898V33.5703H263.211V38.9961H262.098V28.4961H263.211ZM268.379 28.8477C269.961 28.8594 271.121 29.832 271.133 31.2031C271.121 32.5859 269.961 33.5469 268.379 33.5469C266.785 33.5469 265.613 32.5859 265.613 31.2031C265.613 29.832 266.785 28.8594 268.379 28.8477ZM268.379 29.7852C267.406 29.7734 266.691 30.3477 266.703 31.2031C266.691 32.0703 267.406 32.6445 268.379 32.6445C269.34 32.6445 270.055 32.0703 270.055 31.2031C270.055 30.3477 269.34 29.7734 268.379 29.7852ZM274.109 28.4961V33.8398H272.996V28.4961H274.109ZM274.109 34.3203V36.9688H268.32V37.9766H274.461V38.8672H267.242V36.1367H273.008V35.2109H267.207V34.3203H274.109Z" fill="white"/>
<rect x="300" y="18" width="78" height="32" rx="16" fill="#D9D9D9"/>
<path d="M324.859 31.9648V32.8672H317.582V29.0117H318.707V31.9648H324.859ZM325.961 34.2852V35.1875H323.57V38.9961H322.445V35.1875H319.902V38.9961H318.789V35.1875H316.387V34.2852H325.961ZM332.09 29.9844C332.09 31.6953 333.918 33.3125 335.934 33.6758L335.418 34.6016C333.742 34.2383 332.195 33.1367 331.516 31.6602C330.824 33.125 329.283 34.2266 327.602 34.6016L327.109 33.6758C329.102 33.3008 330.918 31.6953 330.918 29.9844V29.1875H332.09V29.9844ZM336.367 36.6875V37.6133H326.758V36.6875H336.367ZM340.738 29.1172L338.008 39.2773H336.895L339.625 29.1172H340.738ZM350.043 28.4961V34.7422H348.93V32.082H346.973V31.168H348.93V28.4961H350.043ZM346.527 35.0352C348.73 35.0352 350.078 35.7617 350.078 37.0156C350.078 38.2695 348.73 38.9844 346.527 38.9961C344.324 38.9844 342.965 38.2695 342.977 37.0156C342.965 35.7617 344.324 35.0352 346.527 35.0352ZM346.527 35.9023C344.992 35.9023 344.078 36.3008 344.078 37.0156C344.078 37.7188 344.992 38.1289 346.527 38.1172C348.062 38.1289 348.977 37.7188 348.977 37.0156C348.977 36.3008 348.062 35.9023 346.527 35.9023ZM345.051 30.3477C345.051 31.6836 346 32.9727 347.582 33.5117L347.008 34.3906C345.83 33.9805 344.963 33.1426 344.512 32.1055C344.049 33.2832 343.129 34.2266 341.875 34.6836L341.289 33.793C342.918 33.2305 343.914 31.8125 343.914 30.3594V30.125H341.641V29.2227H347.301V30.125H345.051V30.3477ZM360.355 28.4961V38.9961H359.242V28.4961H360.355ZM355.609 31.8711C355.609 33.5469 356.723 35.2578 358.352 35.9492L357.742 36.8047C356.535 36.2773 355.568 35.1875 355.082 33.8633C354.607 35.2637 353.658 36.4297 352.434 36.9805L351.812 36.125C353.441 35.3984 354.52 33.6289 354.52 31.8711V31.1797H352.129V30.2891H354.508V28.707H355.609V30.2891H357.965V31.1797H355.609V31.8711Z" fill="white"/>
<rect x="2" y="58" width="99" height="32" rx="16" fill="#D9D9D9"/>
<path d="M20.7656 69.3398C22.1484 69.3281 23.0508 70.7578 23.0508 73.0312C23.0508 75.3047 22.1484 76.7461 20.7656 76.7344C19.3945 76.7461 18.5039 75.3047 18.5039 73.0312C18.5039 70.7578 19.3945 69.3281 20.7656 69.3398ZM20.7656 70.3828C20.0039 70.3828 19.5352 71.3555 19.5352 73.0312C19.5352 74.707 20.0039 75.6797 20.7656 75.6797C21.5391 75.6797 22.0195 74.707 22.0195 73.0312C22.0195 71.3555 21.5391 70.3828 20.7656 70.3828ZM27.4219 68.4961V78.9961H26.3555V73.5234H25.0547V78.4805H24V68.6953H25.0547V72.6094H26.3555V68.4961H27.4219ZM31.9453 68.9648C33.4805 68.9648 34.5586 69.8086 34.5703 71.0625C34.5586 72.1289 33.75 72.9141 32.5312 73.1016V74.0273C33.4629 73.9805 34.3945 73.8984 35.2617 73.7695L35.3438 74.5898C33.1406 74.9883 30.668 75.0234 28.8633 75.0234L28.7461 74.1211C29.5312 74.127 30.4512 74.1211 31.418 74.0859V73.1133C30.1641 72.9375 29.3203 72.1465 29.332 71.0625C29.3203 69.8086 30.4102 68.9648 31.9453 68.9648ZM31.9453 69.8203C31.0195 69.8203 30.3633 70.3008 30.375 71.0625C30.3633 71.8008 31.0195 72.293 31.9453 72.293C32.8828 72.293 33.5156 71.8008 33.5156 71.0625C33.5156 70.3008 32.8828 69.8203 31.9453 69.8203ZM37.0195 68.5078V71.9766H38.5195V72.9141H37.0195V76.5352H35.9062V68.5078H37.0195ZM37.3945 77.8594V78.7734H30.2344V75.832H31.3477V77.8594H37.3945ZM48.7148 73.6055V74.4961H39.1289V73.6055H43.3828V72.4922H40.3242V68.9766H47.5312V69.8555H41.4258V71.6016H47.6016V72.4922H44.4609V73.6055H48.7148ZM43.9102 75.1758C46.1719 75.1758 47.5312 75.8672 47.5312 77.0859C47.5312 78.3047 46.1719 78.9844 43.9102 78.9961C41.6367 78.9844 40.2656 78.3047 40.2656 77.0859C40.2656 75.8672 41.6367 75.1758 43.9102 75.1758ZM43.9102 76.043C42.3047 76.043 41.3906 76.418 41.3906 77.0859C41.3906 77.7539 42.3047 78.1289 43.9102 78.1172C45.4922 78.1289 46.418 77.7539 46.418 77.0859C46.418 76.418 45.4922 76.043 43.9102 76.043ZM59.0742 72.8438V73.7344H54.832V74.6484H57.8672V77.1094H51.75V78.0352H58.1602V78.8906H50.6602V76.3008H56.7656V75.5039H50.6484V74.6484H53.7188V73.7344H49.5V72.8438H59.0742ZM57.8438 68.8359V72.0703H50.7305V68.8359H57.8438ZM51.8203 69.7148V71.1914H56.7305V69.7148H51.8203ZM63.4805 69.1172L60.75 79.2773H59.6367L62.3672 69.1172H63.4805ZM73.6172 73.6055V74.4961H64.0312V73.6055H68.2852V72.4922H65.2266V68.9766H72.4336V69.8555H66.3281V71.6016H72.5039V72.4922H69.3633V73.6055H73.6172ZM68.8125 75.1758C71.0742 75.1758 72.4336 75.8672 72.4336 77.0859C72.4336 78.3047 71.0742 78.9844 68.8125 78.9961C66.5391 78.9844 65.168 78.3047 65.168 77.0859C65.168 75.8672 66.5391 75.1758 68.8125 75.1758ZM68.8125 76.043C67.207 76.043 66.293 76.418 66.293 77.0859C66.293 77.7539 67.207 78.1289 68.8125 78.1172C70.3945 78.1289 71.3203 77.7539 71.3203 77.0859C71.3203 76.418 70.3945 76.043 68.8125 76.043ZM83.9766 72.8438V73.7344H79.7344V74.6484H82.7695V77.1094H76.6523V78.0352H83.0625V78.8906H75.5625V76.3008H81.668V75.5039H75.5508V74.6484H78.6211V73.7344H74.4023V72.8438H83.9766ZM82.7461 68.8359V72.0703H75.6328V68.8359H82.7461ZM76.7227 69.7148V71.1914H81.6328V69.7148H76.7227Z" fill="white"/>
<rect x="109" y="58" width="95" height="32" rx="16" fill="url(#paint7_linear_361_6611)"/>
<path d="M127.883 69.3047C129.143 69.3047 130.098 70.1543 130.273 71.4492H131.246V68.6836H132.289V76.0312H131.246V72.375H130.262C130.062 73.623 129.119 74.4609 127.883 74.4492C126.477 74.4609 125.469 73.3945 125.48 71.8828C125.469 70.3477 126.477 69.3047 127.883 69.3047ZM127.883 70.2539C127.062 70.2539 126.477 70.9102 126.477 71.8828C126.477 72.8555 127.062 73.5 127.883 73.5C128.691 73.5 129.289 72.8555 129.301 71.8828C129.289 70.9102 128.691 70.2539 127.883 70.2539ZM134.34 68.4961V76.3477H133.285V68.4961H134.34ZM134.645 77.8711V78.7734H127.379V75.3281H128.48V77.8711H134.645ZM144.512 68.4961V79.0195H143.41V73.2891H141.324V72.375H143.41V68.4961H144.512ZM141.148 69.4336V70.3359H137.363V72.375H140.703V73.2656H137.363V75.6094C139.121 75.6035 140.34 75.5625 141.734 75.3164L141.852 76.2188C140.328 76.4648 139.004 76.5234 137.059 76.5352H136.238V69.4336H141.148ZM150.43 69.7383V70.6289H147.57V72.5625H149.961V73.4297H147.57V75.6328C148.941 75.6211 149.838 75.5566 150.922 75.3633L151.016 76.2656C149.809 76.5117 148.812 76.5352 147.184 76.5352H146.504V69.7383H150.43ZM155.152 68.4961V78.9961H154.074V68.4961H155.152ZM152.984 68.7188V78.4688H151.93V73.3359H150.512V72.4336H151.93V68.7188H152.984ZM165.207 68.5078V76.1367H164.094V68.5078H165.207ZM165.523 77.8711V78.7734H158.34V75.3633H159.465V77.8711H165.523ZM159.512 69.2109C161.094 69.2109 162.301 70.2891 162.301 71.8125C162.301 73.3594 161.094 74.4258 159.512 74.4258C157.93 74.4258 156.711 73.3594 156.711 71.8125C156.711 70.2891 157.93 69.2109 159.512 69.2109ZM159.512 70.1836C158.527 70.1836 157.801 70.8516 157.801 71.8125C157.801 72.7969 158.527 73.4531 159.512 73.4531C160.473 73.4531 161.211 72.7969 161.211 71.8125C161.211 70.8516 160.473 70.1836 159.512 70.1836ZM172.227 69.3867V71.3789H174.512V68.5078H175.625V76.1602H174.512V72.2695H172.227V74.3203H167.352V69.3867H172.227ZM168.453 70.2891V73.4414H171.137V70.2891H168.453ZM175.906 77.8711V78.7734H168.805V75.4453H169.918V77.8711H175.906ZM185.762 74.0859V74.9766H178.449V69.3633H185.656V70.2656H179.574V71.6836H185.434V72.5625H179.574V74.0859H185.762ZM186.852 76.7578V77.6719H177.242V76.7578H186.852Z" fill="white"/>
<rect x="212" y="58" width="89" height="32" rx="16" fill="#D9D9D9"/>
<path d="M231.234 69.2812C232.189 69.2812 232.98 69.832 233.449 70.7812H236.039V68.4961H237.141V79.0195H236.039V74.9883H233.52C233.068 76.043 232.242 76.6523 231.234 76.6523C229.664 76.6523 228.562 75.2227 228.574 72.9609C228.562 70.7109 229.664 69.2812 231.234 69.2812ZM231.234 70.2773C230.285 70.2773 229.629 71.3086 229.629 72.9609C229.629 74.625 230.285 75.6562 231.234 75.6562C232.184 75.6562 232.84 74.625 232.84 72.9609C232.84 71.3086 232.184 70.2773 231.234 70.2773ZM233.766 71.6953C233.842 72.082 233.895 72.5039 233.895 72.9609C233.895 73.3594 233.859 73.7285 233.789 74.0742H236.039V71.6953H233.766ZM247.711 68.4961V75.1172H246.656V72.1875H245.438V74.7539H244.395V68.6953H245.438V71.2734H246.656V68.4961H247.711ZM244.008 69.6914V70.5703H238.699V69.6914H240.82V68.5781H241.922V69.6914H244.008ZM241.359 71.0625C242.695 71.0625 243.633 71.7773 243.633 72.8672C243.633 73.957 242.695 74.6719 241.359 74.6719C240.047 74.6719 239.109 73.957 239.109 72.8672C239.109 71.7773 240.047 71.0625 241.359 71.0625ZM241.359 71.8828C240.621 71.8828 240.105 72.2695 240.105 72.8672C240.105 73.4648 240.621 73.8633 241.359 73.8633C242.121 73.8633 242.625 73.4648 242.625 72.8672C242.625 72.2695 242.121 71.8828 241.359 71.8828ZM244.195 75.2695C246.422 75.2695 247.758 75.9375 247.77 77.1328C247.758 78.3047 246.422 78.9844 244.195 78.9727C241.969 78.9844 240.633 78.3047 240.645 77.1328C240.633 75.9375 241.969 75.2695 244.195 75.2695ZM244.195 76.125C242.637 76.125 241.734 76.4766 241.746 77.1328C241.734 77.7656 242.637 78.1289 244.195 78.1172C245.766 78.1289 246.645 77.7656 246.656 77.1328C246.645 76.4766 245.766 76.125 244.195 76.125ZM252.738 69.1172L250.008 79.2773H248.895L251.625 69.1172H252.738ZM261.984 68.4961V79.0195H260.871V68.4961H261.984ZM256.371 69.2812C257.93 69.2812 259.078 70.7109 259.078 72.9609C259.078 75.2227 257.93 76.6523 256.371 76.6523C254.789 76.6523 253.652 75.2227 253.652 72.9609C253.652 70.7109 254.789 69.2812 256.371 69.2812ZM256.371 70.2773C255.398 70.2773 254.73 71.3086 254.73 72.9609C254.73 74.625 255.398 75.6562 256.371 75.6562C257.332 75.6562 258 74.625 258 72.9609C258 71.3086 257.332 70.2773 256.371 70.2773ZM272.613 68.4961V76.4648H271.559V68.4961H272.613ZM270.562 68.6836V76.1367H269.508V72.3984H268.219V74.5195H264.105V69.3281H265.16V71.0508H267.188V69.3281H268.219V71.4961H269.508V68.6836H270.562ZM265.16 73.6172H267.188V71.9062H265.16V73.6172ZM272.918 77.8711V78.7734H265.652V75.3867H266.754V77.8711H272.918ZM282.551 74.0859V74.9766H275.238V69.3633H282.445V70.2656H276.363V71.6836H282.223V72.5625H276.363V74.0859H282.551ZM283.641 76.7578V77.6719H274.031V76.7578H283.641Z" fill="white"/>
<rect x="309" y="58" width="53" height="32" rx="16" fill="#D9D9D9"/>
<path d="M334.41 68.4961V78.9961H333.355V68.4961H334.41ZM332.195 68.7656V78.4805H331.141V73.6055H329.09C328.463 74.8242 327.467 75.8906 325.984 76.7578L325.352 75.9609C327.578 74.6367 328.65 72.873 328.844 70.7109H325.844V69.7969H329.945C329.939 70.8223 329.799 71.8008 329.477 72.7148H331.141V68.7656H332.195ZM344.465 68.5078V74.4844H343.352V68.5078H344.465ZM344.465 75.0117V78.8672H337.562V75.0117H344.465ZM338.664 75.9023V77.9648H343.375V75.9023H338.664ZM338.77 69.0352C340.375 69.0352 341.559 70.043 341.559 71.5195C341.559 72.9609 340.375 73.9805 338.77 73.9805C337.164 73.9805 335.969 72.9609 335.969 71.5195C335.969 70.043 337.164 69.0352 338.77 69.0352ZM338.77 69.9727C337.773 69.9727 337.059 70.582 337.059 71.5195C337.059 72.4219 337.773 73.043 338.77 73.043C339.754 73.043 340.469 72.4219 340.469 71.5195C340.469 70.582 339.754 69.9727 338.77 69.9727Z" fill="white"/>
</g>
<defs>
<linearGradient id="paint0_linear_361_6611" x1="150" y1="98" x2="150" y2="130" gradientUnits="userSpaceOnUse">
<stop stop-color="#386FFD"/>
<stop offset="1" stop-color="#1E5DFD"/>
</linearGradient>
<linearGradient id="paint1_linear_361_6611" x1="341" y1="98" x2="341" y2="130" gradientUnits="userSpaceOnUse">
<stop stop-color="#FBE750"/>
<stop offset="1" stop-color="#FBCB50"/>
</linearGradient>
<linearGradient id="paint2_linear_361_6611" x1="39.7178" y1="278.745" x2="277.558" y2="387.203" gradientUnits="userSpaceOnUse">
<stop stop-color="#A989CF"/>
<stop offset="1" stop-color="#8D63C0"/>
</linearGradient>
<linearGradient id="paint3_linear_361_6611" x1="51.059" y1="143.091" x2="100.221" y2="228.007" gradientUnits="userSpaceOnUse">
<stop stop-color="#F95D5D"/>
<stop offset="1" stop-color="#E65656"/>
</linearGradient>
<linearGradient id="paint4_linear_361_6611" x1="35.5229" y1="195.473" x2="111.991" y2="226.092" gradientUnits="userSpaceOnUse">
<stop stop-color="white"/>
<stop offset="1" stop-color="white" stop-opacity="0"/>
</linearGradient>
<linearGradient id="paint5_linear_361_6611" x1="85.2769" y1="204.77" x2="110.644" y2="313.244" gradientUnits="userSpaceOnUse">
<stop stop-color="#D9D9D9" stop-opacity="0"/>
<stop offset="1" stop-color="#FBE750"/>
</linearGradient>
<linearGradient id="paint6_linear_361_6611" x1="242.5" y1="18" x2="242.5" y2="50" gradientUnits="userSpaceOnUse">
<stop stop-color="#F95D5D"/>
<stop offset="1" stop-color="#F94343"/>
</linearGradient>
<linearGradient id="paint7_linear_361_6611" x1="156.5" y1="58" x2="156.5" y2="90" gradientUnits="userSpaceOnUse">
<stop stop-color="#9C76C8"/>
<stop offset="1" stop-color="#7F47BF"/>
</linearGradient>
<clipPath id="clip0_361_6611">
<rect width="358" height="358" fill="white"/>
</clipPath>
</defs>
</svg>
