<svg width="358" height="358" viewBox="0 0 358 358" fill="none" xmlns="http://www.w3.org/2000/svg">
<g clip-path="url(#clip0_361_6669)">
<rect width="358" height="358" fill="white"/>
<rect x="48" y="29" width="263" height="301" rx="16" fill="url(#paint0_linear_361_6669)"/>
<path d="M86.668 56.0234V60.2422H89.0312V62.2734H86.668V66.3164H84.1289V56.0234H86.668ZM73.1523 65.3594V57.2148H81.1406V59.207H75.6328V63.3477C78.9336 63.3281 80.7402 63.2207 82.7227 62.8008L82.9375 64.793C80.7402 65.2715 78.6504 65.3496 74.6367 65.3594H73.1523ZM74.7148 70.1836C74.7051 67.9473 77.0879 66.6289 80.8086 66.6289C84.4609 66.6289 86.7949 67.9473 86.8047 70.1836C86.7949 72.4688 84.4609 73.8066 80.8086 73.7969C77.0879 73.8066 74.7051 72.4688 74.7148 70.1836ZM77.1758 70.1836C77.166 71.2578 78.4746 71.8242 80.8086 71.8242C83.0645 71.8242 84.373 71.2578 84.3828 70.1836C84.373 69.1387 83.0645 68.5918 80.8086 68.6016C78.4746 68.5918 77.166 69.1387 77.1758 70.1836ZM104.695 56.043V69.0117H102.195V56.043H104.695ZM89.7539 64.6172C92.7324 63.6211 94.0312 61.1504 94.0312 58.7383V57.0195H96.6289V58.7383C96.6094 61.0918 97.8691 63.3867 100.789 64.3242L99.5195 66.2773C97.5078 65.6133 96.1309 64.2852 95.3398 62.5957C94.5391 64.4121 93.123 65.877 91.043 66.5898L89.7539 64.6172ZM92.7812 73.4844V67.7617H95.3008V71.4922H105.164V73.4844H92.7812ZM115.203 56.2773C119.295 56.2773 121.658 57.3516 121.668 59.3047C121.658 61.2871 119.295 62.3516 115.203 62.3516C111.102 62.3516 108.719 61.2871 108.719 59.3047C108.719 57.3516 111.102 56.2773 115.203 56.2773ZM107.098 65.1641V63.1914H123.309V65.1641H107.098ZM108.973 68.0156V66.1992H121.336V70.7305H111.434V71.8047H121.805V73.6797H108.992V68.9922H118.875V68.0156H108.973ZM111.336 59.3047C111.326 60.1738 112.596 60.5156 115.203 60.5156C117.83 60.5156 119.09 60.1738 119.09 59.3047C119.09 58.5137 117.83 58.0938 115.203 58.0938C112.596 58.0938 111.326 58.5137 111.336 59.3047ZM134.793 56.7656C137.508 56.7461 139.48 58.2988 139.48 60.5352C139.48 62.752 137.508 64.3242 134.793 64.3047C132.088 64.3242 130.115 62.752 130.125 60.5352C130.115 58.2988 132.088 56.7461 134.793 56.7656ZM129.031 65.3984C132.186 65.3887 136.648 65.3301 140.438 64.7539L140.594 66.5898C139.129 66.8828 137.625 67.0684 136.141 67.1855V73.2695H133.66V67.332C132.098 67.4004 130.623 67.4102 129.344 67.4297L129.031 65.3984ZM132.527 60.5352C132.518 61.6484 133.465 62.293 134.793 62.2734C136.16 62.293 137.117 61.6484 137.117 60.5352C137.117 59.4023 136.16 58.748 134.793 58.7578C133.465 58.748 132.518 59.4023 132.527 60.5352ZM141.512 73.7969V56.043H143.973V73.7969H141.512ZM160.379 56.043V61.4922H162.781V63.5234H160.379V69.3047H157.879V56.043H160.379ZM146.277 59.8711V57.8984H150.32V56.0039H152.801V57.8984H156.824V59.8711H146.277ZM147.137 63.9336C147.137 61.873 148.963 60.4961 151.551 60.4961C154.129 60.4961 155.926 61.873 155.926 63.9336C155.926 65.9844 154.129 67.332 151.551 67.332C148.963 67.332 147.137 65.9844 147.137 63.9336ZM148.855 73.4844V68.2891H151.336V71.4922H161.023V73.4844H148.855ZM149.578 63.9336C149.568 64.9102 150.359 65.4375 151.551 65.4375C152.752 65.4375 153.562 64.9102 153.562 63.9336C153.562 62.9473 152.752 62.4004 151.551 62.3906C150.359 62.4004 149.568 62.9473 149.578 63.9336ZM81.8828 82.3672C81.873 84.9746 84.1875 87.7578 88.2109 88.4414L87.1172 90.5117C84.0117 89.8965 81.7168 88.1484 80.5645 85.873C79.3926 88.1289 77.0879 89.8867 74.0117 90.5117L72.9375 88.4414C76.8926 87.7383 79.207 84.9453 79.2266 82.3672V81.0781H81.8828V82.3672ZM72.5273 95.6094V93.5586H88.7969V95.6094H72.5273ZM104.363 81.5859V83.6562C104.354 86.2441 104.354 88.7051 103.543 92.5625L101.062 92.3281C101.414 90.8535 101.619 89.5449 101.746 88.3438L91.4336 88.8516L91.1211 86.8594L101.873 86.4688C101.912 85.4922 101.922 84.5742 101.922 83.6562V83.5781H91.668V81.5859H104.363ZM89.8125 95.668V93.6367H106.023V95.668H89.8125ZM121.98 80.043V89.9453H119.48V80.043H121.98ZM108.016 82.8164V80.8242H116.258V86.1172H110.477V87.6016C113.445 87.582 115.545 87.5234 117.938 87.1133L118.25 89.1055C115.525 89.5645 113.123 89.6328 109.598 89.6328H108.035V84.2227H113.777V82.8164H108.016ZM110.086 97.6016V90.6875H112.566V92.2109H119.5V90.6875H121.98V97.6016H110.086ZM112.566 95.6094H119.5V94.1445H112.566V95.6094ZM138.875 89.2031V91.1758H126.297V81.332H138.738V83.3438H128.836V85.2188H138.328V87.1719H128.836V89.2031H138.875ZM124.383 95.7266V93.6953H140.652V95.7266H124.383ZM155.691 80.0234V86.8398H158.211V88.8906H155.691V97.7578H153.191V80.0234H155.691ZM141.473 92.7773C145.682 90.668 147.947 87.8359 148.416 83.8711H142.488V81.8398H150.945C150.926 87.1523 148.855 91.752 142.879 94.6914L141.473 92.7773ZM178.055 87.9727V89.9453H172.898V93.7344H179.832V95.7656H163.562V93.7344H170.418V89.9453H165.477V81.2734H177.918V83.2656H167.977V87.9727H178.055ZM187.391 83.8516C187.4 85.6875 188.67 87.6016 191.57 88.3633L190.418 90.3359C188.396 89.7891 186.99 88.6172 186.18 87.1523C185.398 88.7637 183.982 90.0332 181.902 90.6289L180.711 88.6758C183.592 87.8945 184.91 85.8438 184.91 83.8516H181.336V81.8789H184.91V79.9648H187.43V81.8789H190.984V83.8516H187.391ZM182.977 93.6367V91.6445H194.949V97.8164H192.449V93.6367H182.977ZM192.449 90.9219V80.0234H194.949V84.3984H197.352V86.4883H194.949V90.9219H192.449ZM213.406 80.043V90.9805H211.043V86.6055H209.656V90.7852H207.332V80.2773H209.656V84.5938H211.043V80.043H213.406ZM198.035 83.6953V81.7227H201.18V80.1211H203.66V81.7227H206.766V83.6953H198.035ZM198.582 87.3672C198.572 85.502 200.203 84.2617 202.43 84.2617C204.686 84.2617 206.307 85.502 206.316 87.3672C206.307 89.1934 204.686 90.4629 202.43 90.4727C200.203 90.4629 198.572 89.1934 198.582 87.3672ZM199.129 95.7266C201.434 95.0625 202.469 93.4609 202.469 91.8984V91.5273H204.949V91.8984C204.93 93.1973 205.516 94.5352 206.912 95.4238C208.328 94.4863 208.953 93.0898 208.973 91.8984V91.5273H211.453V91.8984C211.434 93.5488 212.43 95.1309 214.793 95.7266L213.641 97.582C211.922 97.0547 210.789 96.0195 210.164 94.7109C209.598 96.0195 208.572 97.1719 206.961 97.7578C205.311 97.1816 204.266 96.0977 203.689 94.7988C203.055 96.0488 201.932 97.0547 200.301 97.582L199.129 95.7266ZM200.809 87.3672C200.799 88.1973 201.453 88.6758 202.43 88.6758C203.396 88.6758 204.061 88.1973 204.07 87.3672C204.061 86.498 203.396 86.0391 202.43 86.0391C201.463 86.0391 200.799 86.498 200.809 87.3672ZM220.32 81.2734C222.723 81.2734 224.52 83.2461 224.871 86.4492H227.957V80.0234H230.418V97.8359H227.957V88.4414H224.9C224.637 91.8594 222.801 93.9492 220.32 93.9492C217.625 93.9492 215.691 91.5078 215.711 87.6016C215.691 83.7246 217.625 81.2734 220.32 81.2734ZM218.094 87.6016C218.084 90.248 218.992 91.6934 220.32 91.6836C221.658 91.6934 222.547 90.248 222.547 87.6016C222.547 84.9648 221.658 83.5195 220.32 83.5195C218.992 83.5195 218.084 84.9648 218.094 87.6016ZM248.973 93.6758V95.7266H232.703V93.6758H236.336V89.3203C234.959 88.4902 234.129 87.2305 234.129 85.668C234.129 82.7871 236.941 80.8926 240.809 80.8828C244.656 80.8926 247.498 82.7871 247.508 85.668C247.498 87.2012 246.697 88.4414 245.359 89.2715V93.6758H248.973ZM236.59 85.668C236.59 87.4062 238.26 88.4805 240.809 88.4805C243.318 88.4805 245.037 87.4062 245.047 85.668C245.037 83.8809 243.318 82.8457 240.809 82.8555C238.26 82.8457 236.59 83.8809 236.59 85.668ZM238.797 93.6758H242.84V90.2188C242.205 90.3457 241.521 90.4141 240.809 90.4141C240.096 90.4141 239.422 90.3457 238.797 90.2285V93.6758ZM254.031 81.8594L253.777 91.7617H251.277L251.023 81.8594H254.031ZM250.906 94.5352C250.887 93.6367 251.629 92.9043 252.547 92.9141C253.416 92.9043 254.168 93.6367 254.168 94.5352C254.168 95.4434 253.416 96.1758 252.547 96.1758C251.629 96.1758 250.887 95.4434 250.906 94.5352Z" fill="white"/>
<path d="M76.1836 114.576V115.561H74.625V119.867C74.6182 120.817 75.0967 120.975 75.5957 120.975C75.8076 120.975 76.1221 120.954 76.293 120.947V122.041C76.1084 122.068 75.8213 122.096 75.4727 122.096C74.4814 122.096 73.4424 121.48 73.4355 120.168V115.561H72.3145V114.576H73.4355V112.799H74.625V114.576H76.1836ZM77.7012 122V114.576H78.877V122H77.7012ZM77.4688 112.566C77.4619 112.129 77.8379 111.78 78.2891 111.787C78.7402 111.78 79.1162 112.129 79.123 112.566C79.1162 112.997 78.7402 113.346 78.2891 113.346C77.8379 113.346 77.4619 112.997 77.4688 112.566ZM83.9902 114.576V115.561H82.4316V119.867C82.4248 120.817 82.9033 120.975 83.4023 120.975C83.6143 120.975 83.9287 120.954 84.0996 120.947V122.041C83.915 122.068 83.6279 122.096 83.2793 122.096C82.2881 122.096 81.249 121.48 81.2422 120.168V115.561H80.1211V114.576H81.2422V112.799H82.4316V114.576H83.9902ZM86.8477 112.102V122H85.6719V112.102H86.8477ZM91.8379 122.15C89.6914 122.157 88.3652 120.626 88.3652 118.35C88.3652 116.066 89.7119 114.48 91.7285 114.48C93.2871 114.48 94.9346 115.438 94.9277 118.186V118.678H89.541C89.6025 120.25 90.5186 121.111 91.8379 121.111C92.7266 121.111 93.2871 120.722 93.5605 120.264H94.8184C94.4697 121.392 93.3691 122.157 91.8379 122.15ZM89.5479 117.68H93.7383C93.7314 116.442 92.9521 115.52 91.7285 115.52C90.4434 115.52 89.6299 116.531 89.5479 117.68ZM97.293 122.082C96.8145 122.075 96.4043 121.679 96.418 121.193C96.4043 120.715 96.8145 120.318 97.293 120.318C97.7783 120.318 98.1748 120.715 98.168 121.193C98.1748 121.679 97.7783 122.075 97.293 122.082ZM96.418 115.697C96.4043 115.219 96.8145 114.822 97.293 114.822C97.7783 114.822 98.1748 115.219 98.168 115.697C98.1748 116.183 97.7783 116.579 97.293 116.586C96.8145 116.579 96.4043 116.183 96.418 115.697ZM113.262 110.953V118.295H112.209V110.953H113.262ZM103.555 117.27V111.979H106.863V112.867H104.58V116.374C105.243 116.36 106.07 116.299 106.973 116.094L107.082 116.982C105.872 117.235 104.895 117.263 104.115 117.27H103.555ZM105.141 120.797C105.127 119.341 106.686 118.479 109.242 118.486C111.771 118.479 113.337 119.341 113.33 120.797C113.337 122.26 111.771 123.094 109.242 123.107C106.686 123.094 105.127 122.26 105.141 120.797ZM106.193 120.797C106.2 121.692 107.349 122.253 109.242 122.246C111.102 122.253 112.264 121.692 112.264 120.797C112.264 119.874 111.102 119.341 109.242 119.348C107.349 119.341 106.2 119.874 106.193 120.797ZM107.561 117.215V111.979H110.938V112.867H108.586V116.34C109.536 116.333 110.384 116.285 111.375 116.066L111.471 116.955C110.281 117.194 109.345 117.201 108.176 117.215H107.561ZM126.264 116.969V117.83H115.176V116.969H120.193V115.547H116.584V111.527H124.883V112.389H117.637V114.672H124.965V115.547H121.232V116.969H126.264ZM116.516 120.906C116.509 119.519 118.088 118.726 120.713 118.719C123.317 118.726 124.883 119.519 124.896 120.906C124.883 122.308 123.317 123.094 120.713 123.107C118.088 123.094 116.509 122.308 116.516 120.906ZM117.609 120.906C117.596 121.761 118.765 122.253 120.713 122.246C122.641 122.253 123.81 121.761 123.816 120.906C123.81 120.065 122.641 119.566 120.713 119.566C118.765 119.566 117.596 120.065 117.609 120.906ZM129.244 112.102L129.148 119.211H128L127.904 112.102H129.244ZM127.699 121.193C127.686 120.715 128.096 120.318 128.574 120.318C129.06 120.318 129.456 120.715 129.449 121.193C129.456 121.679 129.06 122.075 128.574 122.082C128.096 122.075 127.686 121.679 127.699 121.193ZM139.922 111.746C142.506 111.76 144.365 113.018 144.365 114.932C144.365 116.743 142.752 117.939 140.441 118.097V120.646H145.514V121.549H134.385V120.646H139.389V118.097C137.092 117.933 135.479 116.736 135.479 114.932C135.479 113.018 137.345 111.76 139.922 111.746ZM136.518 114.932C136.511 116.333 137.953 117.242 139.922 117.256C141.891 117.242 143.326 116.333 143.326 114.932C143.326 113.558 141.891 112.628 139.922 112.635C137.953 112.628 136.511 113.558 136.518 114.932ZM149.027 111.473V113.031H155.043V111.473H156.109V116.326H147.961V111.473H149.027ZM146.484 118.377V117.488H157.559V118.377H146.484ZM147.92 122.848V119.457H149V121.945H156.328V122.848H147.92ZM149.027 115.465H155.043V113.865H149.027V115.465ZM169.002 110.953V123.107H167.963V110.953H169.002ZM158.734 116.203C158.741 113.619 159.767 111.985 161.346 111.979C162.822 111.985 163.82 113.407 163.957 115.697H165.529V111.213H166.555V122.492H165.529V116.586H163.964C163.861 118.951 162.843 120.435 161.346 120.428C159.767 120.435 158.741 118.787 158.734 116.203ZM159.746 116.203C159.732 118.172 160.361 119.416 161.346 119.402C162.337 119.416 162.966 118.172 162.959 116.203C162.966 114.228 162.337 112.99 161.346 112.99C160.361 112.99 159.732 114.228 159.746 116.203ZM174.963 114.221C174.956 116.422 176.371 118.637 178.135 119.443L177.492 120.318C176.111 119.607 174.97 118.158 174.43 116.429C173.89 118.247 172.748 119.806 171.367 120.537L170.67 119.676C172.454 118.801 173.862 116.463 173.869 114.221V112.006H174.963V114.221ZM176.809 115.984V115.109H179.693V110.953H180.76V123.135H179.693V115.984H176.809ZM192.354 112.744C192.36 114.829 194.739 116.682 196.852 117.078L196.359 117.98C194.521 117.557 192.593 116.251 191.807 114.467C191.014 116.251 189.093 117.55 187.254 117.98L186.762 117.078C188.867 116.675 191.226 114.836 191.232 112.744V111.814H192.354V112.744ZM186.297 121.453V120.564H197.426V121.453H186.297ZM208.09 112.197V113.701C208.097 115.492 208.097 117.146 207.584 119.607L206.504 119.512C206.777 118.343 206.907 117.331 206.976 116.388L199.559 116.791L199.408 115.902L207.023 115.588C207.044 114.945 207.051 114.323 207.051 113.701V113.1H199.736V112.197H208.09ZM198.396 121.398V120.496H209.471V121.398H198.396ZM220.531 110.967V117.639H219.465V110.967H220.531ZM211.111 112.443V111.555H216.662V114.836H212.178V116.49C214.352 116.477 215.972 116.429 217.947 116.107L218.07 116.996C216.026 117.317 214.365 117.379 212.123 117.393H211.139V113.988H215.596V112.443H211.111ZM212.629 122.943V118.254H213.709V119.703H219.465V118.254H220.531V122.943H212.629ZM213.709 122.068H219.465V120.564H213.709V122.068ZM232.439 117.529V118.404H224.031V112.006H232.303V112.908H225.125V114.713H232.043V115.574H225.125V117.529H232.439ZM222.596 121.521V120.633H233.725V121.521H222.596ZM244.102 110.953V115.902H246.07V116.805H244.102V123.107H243.035V110.953H244.102ZM234.777 119.949C237.915 118.391 239.624 116.046 239.87 113.168H235.338V112.266H240.957C240.95 115.704 239.337 118.842 235.379 120.797L234.777 119.949ZM261.684 115.807V116.709H259.715V123.107H258.648V110.953H259.715V115.807H261.684ZM250.814 120.018V112.156H251.881V119.115C253.658 119.115 255.47 118.979 257.473 118.555L257.609 119.471C255.511 119.895 253.624 120.018 251.785 120.018H250.814ZM271.896 110.967V114.262H273.715V115.15H271.896V118.377H270.816V110.967H271.896ZM262.395 116.969C263.345 116.969 264.452 116.962 265.607 116.928V115.807C264.09 115.656 263.099 114.802 263.105 113.605C263.099 112.266 264.315 111.377 266.113 111.377C267.897 111.377 269.128 112.266 269.135 113.605C269.128 114.781 268.157 115.629 266.688 115.8V116.887C267.822 116.832 268.978 116.736 270.037 116.572L270.119 117.352C267.542 117.803 264.644 117.844 262.531 117.844L262.395 116.969ZM262.832 122.15C264.391 121.645 265.293 120.441 265.307 119.225V118.91H266.332V119.225C266.332 120.243 266.913 121.385 268.068 122.027C269.217 121.371 269.818 120.236 269.818 119.225V118.91H270.857V119.225C270.851 120.455 271.767 121.651 273.332 122.15L272.799 122.971C271.603 122.554 270.762 121.74 270.338 120.763C269.962 121.74 269.217 122.622 268.068 123.066C266.913 122.622 266.182 121.747 265.812 120.77C265.375 121.74 264.541 122.554 263.379 122.971L262.832 122.15ZM264.117 113.605C264.104 114.446 264.91 115.027 266.113 115.027C267.303 115.027 268.116 114.446 268.123 113.605C268.116 112.744 267.303 112.184 266.113 112.184C264.91 112.184 264.104 112.744 264.117 113.605ZM276.982 118.254V119.676H283.053V118.254H284.133V122.943H275.916V118.254H276.982ZM274.508 117.393V116.504H285.582V117.393H274.508ZM275.137 114.781C277.304 114.487 279.498 113.209 279.498 111.664V111.09H280.605V111.664C280.599 113.161 282.813 114.508 284.953 114.781L284.557 115.643C282.677 115.362 280.824 114.405 280.052 113.045C279.279 114.412 277.42 115.362 275.547 115.643L275.137 114.781ZM276.982 122.082H283.053V120.523H276.982V122.082ZM82.5137 127.953V140.107H81.4473V127.953H82.5137ZM73.2852 136.977V129.156H74.3379V136.047C76.1973 136.033 78.1113 135.89 80.1484 135.459L80.2988 136.375C78.1387 136.826 76.2178 136.977 74.2695 136.977H73.2852ZM93.998 127.953V132.766H96.0352V133.668H93.998V140.135H92.9316V127.953H93.998ZM85.125 137.086V129.143H90.7988V130.031H86.1914V136.184C88.3926 136.177 89.9443 136.081 91.7559 135.746L91.8926 136.676C89.9854 137.018 88.3926 137.086 86.082 137.086H85.125ZM97.9766 139.082C97.498 139.075 97.0879 138.679 97.1016 138.193C97.0879 137.715 97.498 137.318 97.9766 137.318C98.4619 137.318 98.8584 137.715 98.8516 138.193C98.8584 138.679 98.4619 139.075 97.9766 139.082ZM75.9785 156.15C73.873 156.157 72.5879 154.551 72.5879 152.322C72.5879 150.066 73.9346 148.48 75.9512 148.48C77.5303 148.48 78.7197 149.417 78.9043 150.818H77.7285C77.5576 150.142 76.9697 149.52 75.9785 149.52C74.6523 149.52 73.7705 150.613 73.7637 152.281C73.7705 153.997 74.6318 155.098 75.9785 155.098C76.8535 155.098 77.5234 154.626 77.7285 153.812H78.9043C78.7197 155.139 77.626 156.157 75.9785 156.15ZM83.3887 156.15C81.3652 156.157 79.998 154.626 79.998 152.322C79.998 150.005 81.3652 148.48 83.3887 148.48C85.4053 148.48 86.7588 150.005 86.752 152.322C86.7588 154.626 85.4053 156.157 83.3887 156.15ZM81.1738 152.322C81.1807 153.806 81.8779 155.111 83.3887 155.111C84.8857 155.111 85.5762 153.806 85.5762 152.322C85.5762 150.846 84.8857 149.52 83.3887 149.52C81.8779 149.52 81.1807 150.846 81.1738 152.322ZM89.4727 151.543V156H88.2969V148.576H89.4316V149.738H89.5273C89.876 148.979 90.5732 148.48 91.7012 148.48C93.2051 148.48 94.21 149.396 94.2031 151.283V156H93.0273V151.365C93.0273 150.217 92.3984 149.533 91.3457 149.533C90.2656 149.533 89.4727 150.258 89.4727 151.543ZM99.3301 148.576V149.561H97.7715V153.867C97.7646 154.817 98.2432 154.975 98.7422 154.975C98.9541 154.975 99.2686 154.954 99.4395 154.947V156.041C99.2549 156.068 98.9678 156.096 98.6191 156.096C97.6279 156.096 96.5889 155.48 96.582 154.168V149.561H95.4609V148.576H96.582V146.799H97.7715V148.576H99.3301ZM103.883 156.15C101.736 156.157 100.41 154.626 100.41 152.35C100.41 150.066 101.757 148.48 103.773 148.48C105.332 148.48 106.979 149.438 106.973 152.186V152.678H101.586C101.647 154.25 102.563 155.111 103.883 155.111C104.771 155.111 105.332 154.722 105.605 154.264H106.863C106.515 155.392 105.414 156.157 103.883 156.15ZM101.593 151.68H105.783C105.776 150.442 104.997 149.52 103.773 149.52C102.488 149.52 101.675 150.531 101.593 151.68ZM109.68 151.543V156H108.504V148.576H109.639V149.738H109.734C110.083 148.979 110.78 148.48 111.908 148.48C113.412 148.48 114.417 149.396 114.41 151.283V156H113.234V151.365C113.234 150.217 112.605 149.533 111.553 149.533C110.473 149.533 109.68 150.258 109.68 151.543ZM119.537 148.576V149.561H117.979V153.867C117.972 154.817 118.45 154.975 118.949 154.975C119.161 154.975 119.476 154.954 119.646 154.947V156.041C119.462 156.068 119.175 156.096 118.826 156.096C117.835 156.096 116.796 155.48 116.789 154.168V149.561H115.668V148.576H116.789V146.799H117.979V148.576H119.537ZM125.047 150.504C124.883 149.889 124.411 149.485 123.543 149.479C122.627 149.485 121.978 149.978 121.971 150.6C121.978 151.092 122.374 151.427 123.242 151.639L124.35 151.912C125.676 152.227 126.325 152.89 126.332 153.922C126.325 155.207 125.279 156.157 123.42 156.15C121.752 156.157 120.761 155.412 120.562 154.059H121.793C121.93 154.783 122.456 155.132 123.393 155.125C124.452 155.132 125.115 154.688 125.115 153.99C125.115 153.464 124.739 153.122 123.898 152.924L122.777 152.664C121.485 152.363 120.795 151.659 120.795 150.668C120.795 149.396 121.909 148.48 123.543 148.48C125.081 148.48 126.045 149.301 126.195 150.504H125.047ZM128.697 156.082C128.219 156.075 127.809 155.679 127.822 155.193C127.809 154.715 128.219 154.318 128.697 154.318C129.183 154.318 129.579 154.715 129.572 155.193C129.579 155.679 129.183 156.075 128.697 156.082ZM127.822 149.697C127.809 149.219 128.219 148.822 128.697 148.822C129.183 148.822 129.579 149.219 129.572 149.697C129.579 150.183 129.183 150.579 128.697 150.586C128.219 150.579 127.809 150.183 127.822 149.697ZM135.492 158.789V145.678H138.391V146.648H136.6V157.805H138.391V158.789H135.492ZM150.381 154.688V155.604H139.252V154.688H144.242V151.885H140.264V151.023H142.164V147.031H140.236V146.143H149.314V147.031H147.387V151.023H149.287V151.885H145.295V154.688H150.381ZM143.23 151.023H146.334V147.031H143.23V151.023ZM157.682 146.156V154.059H152.062V146.156H157.682ZM153.115 153.184H156.629V147.018H153.115V153.184ZM160.293 157.135V144.953H161.373V157.135H160.293ZM172.857 144.953V149.902H174.826V150.805H172.857V157.107H171.791V144.953H172.857ZM163.533 153.949C166.671 152.391 168.38 150.046 168.626 147.168H164.094V146.266H169.713C169.706 149.704 168.093 152.842 164.135 154.797L163.533 153.949ZM184.424 146.402C184.417 147.551 184.287 148.692 183.938 149.766H185.887V145.281H186.912V156.492H185.887V150.654H183.59C182.906 152.151 181.717 153.505 179.762 154.578L179.146 153.812C181.02 152.794 182.134 151.516 182.749 150.08L179.283 150.436L179.119 149.479L183.05 149.232C183.228 148.604 183.33 147.961 183.371 147.291H179.707V146.402H184.424ZM188.443 157.107V144.953H189.469V157.107H188.443ZM201.186 144.953V157.135H200.105V144.953H201.186ZM191.615 150.135C191.622 147.551 192.907 145.903 194.719 145.896C196.523 145.903 197.829 147.551 197.822 150.135C197.829 152.726 196.523 154.366 194.719 154.359C192.907 154.366 191.622 152.726 191.615 150.135ZM192.654 150.135C192.654 152.11 193.502 153.409 194.719 153.402C195.942 153.409 196.783 152.11 196.783 150.135C196.783 148.159 195.942 146.86 194.719 146.854C193.502 146.86 192.654 148.159 192.654 150.135ZM212.957 146.197V147.701C212.964 149.492 212.964 151.146 212.451 153.607L211.371 153.512C211.645 152.343 211.774 151.331 211.843 150.388L204.426 150.791L204.275 149.902L211.891 149.588C211.911 148.945 211.918 148.323 211.918 147.701V147.1H204.604V146.197H212.957ZM203.264 155.398V154.496H214.338V155.398H203.264ZM226.479 150.6V151.447H215.35V150.6H226.479ZM216.689 153.225V152.418H225.084V155.002H217.783V156.164H225.48V156.943H216.703V154.264H224.018V153.225H216.689ZM216.758 146.102V145.322H225.043V147.838H217.865V148.904H225.262V149.684H216.799V147.1H223.963V146.102H216.758ZM242.105 154.66V155.549H230.977V154.66H235.98V152.035H232.289V145.814H233.369V148.016H239.686V145.814H240.738V152.035H237.033V154.66H242.105ZM233.369 151.16H239.686V148.891H233.369V151.16ZM246.344 145.896C247.458 145.903 248.367 146.553 248.894 147.674H252.086V144.953H253.152V157.135H252.086V152.418H248.969C248.463 153.648 247.52 154.366 246.344 154.359C244.546 154.366 243.288 152.726 243.295 150.135C243.288 147.551 244.546 145.903 246.344 145.896ZM244.32 150.135C244.327 152.11 245.147 153.409 246.344 153.402C247.533 153.409 248.367 152.11 248.367 150.135C248.367 148.159 247.533 146.86 246.344 146.854C245.147 146.86 244.327 148.159 244.32 150.135ZM249.201 148.576C249.317 149.048 249.379 149.567 249.379 150.135C249.379 150.634 249.331 151.105 249.242 151.529H252.086V148.576H249.201ZM261.314 146.676C261.308 148.303 263.475 149.684 265.594 149.998L265.197 150.846C263.304 150.524 261.451 149.513 260.713 148.05C259.975 149.513 258.122 150.524 256.256 150.846L255.832 149.998C257.944 149.684 260.104 148.303 260.111 146.676V146.594H256.215V145.719H265.197V146.594H261.314V146.676ZM255.176 152.773V151.885H266.25V152.773H261.219V157.107H260.166V152.773H255.176ZM273.305 146.17V147.879H276.285V144.953H277.352V157.135H276.285V152.117H273.305V154.031H267.768V146.17H273.305ZM268.834 153.17H272.266V147.018H268.834V153.17ZM273.305 151.229H276.285V148.768H273.305V151.229ZM282.15 158.789H279.252V157.805H281.043V146.648H279.252V145.678H282.15V158.789ZM83.6211 171.688V172.604H72.4922V171.688H77.4824V168.885H73.5039V168.023H75.4043V164.031H73.4766V163.143H82.5547V164.031H80.627V168.023H82.5273V168.885H78.5352V171.688H83.6211ZM76.4707 168.023H79.5742V164.031H76.4707V168.023ZM90.9219 163.156V171.059H85.3027V163.156H90.9219ZM86.3555 170.184H89.8691V164.018H86.3555V170.184ZM93.5332 174.135V161.953H94.6133V174.135H93.5332ZM106.521 165.645V166.506H98.1953V162.404H99.2617V165.645H106.521ZM96.6777 169.035V168.16H107.807V169.035H96.6777ZM98.127 173.807V170.279H99.1934V172.918H106.59V173.807H98.127ZM123.379 168.092V168.967H112.305V168.092H115.381V166.492H116.447V168.092H119.264V166.492H120.316V168.092H123.379ZM112.947 165.781C115.121 165.487 117.295 164.223 117.295 162.65V162.076H118.375V162.65C118.375 164.209 120.569 165.508 122.723 165.781L122.326 166.615C120.46 166.328 118.607 165.412 117.842 164.045C117.069 165.412 115.224 166.328 113.357 166.615L112.947 165.781ZM113.152 173.219C115.354 172.904 117.274 171.722 117.281 170.115V169.746H118.375V170.115C118.375 171.722 120.303 172.904 122.518 173.219L122.094 174.053C120.234 173.745 118.539 172.891 117.828 171.558C117.11 172.891 115.415 173.745 113.562 174.053L113.152 173.219ZM135.479 168.092V168.967H124.404V168.092H129.395V166.684H125.484V165.795H127.316V163.238H125.443V162.35H134.426V163.238H132.553V165.795H134.385V166.684H130.461V168.092H135.479ZM125.758 173.943V170.143H134.125V173.943H125.758ZM126.824 173.068H133.072V170.977H126.824V173.068ZM128.383 165.795H131.486V163.238H128.383V165.795ZM146.908 161.953V174.107H145.883V161.953H146.908ZM136.49 170.703C139.136 169.138 140.462 166.943 140.674 164.4H137.037V163.512H141.74C141.74 164.134 141.686 164.749 141.576 165.344H143.422V162.281H144.447V173.492H143.422V169.281H141.166V168.393H143.422V166.232H141.364C140.776 168.29 139.443 170.108 137.146 171.482L136.49 170.703ZM159.719 167.6V168.447H148.59V167.6H159.719ZM149.93 170.225V169.418H158.324V172.002H151.023V173.164H158.721V173.943H149.943V171.264H157.258V170.225H149.93ZM149.998 163.102V162.322H158.283V164.838H151.105V165.904H158.502V166.684H150.039V164.1H157.203V163.102H149.998ZM170.314 163.088C170.321 164.804 172.55 166.28 174.744 166.588L174.307 167.463C172.42 167.148 170.547 166.103 169.768 164.612C168.988 166.116 167.122 167.148 165.229 167.463L164.791 166.588C166.985 166.28 169.207 164.831 169.207 163.088V162.391H170.314V163.088ZM164.217 169.705V168.803H175.291V169.705H170.26V174.107H169.207V169.705H164.217ZM186.816 163.758V164.646H176.863V163.758H181.32V162.158H182.373V163.758H186.816ZM176.316 172.686V171.797H181.32V170.088C179.153 169.972 177.848 169.131 177.861 167.764C177.848 166.321 179.372 165.467 181.854 165.48C184.301 165.467 185.853 166.321 185.846 167.764C185.853 169.131 184.52 169.972 182.373 170.088V171.797H187.445V172.686H176.316ZM178.941 167.764C178.928 168.687 180.042 169.22 181.854 169.227C183.645 169.22 184.759 168.687 184.752 167.764C184.759 166.861 183.645 166.328 181.854 166.328C180.042 166.328 178.928 166.861 178.941 167.764ZM197.822 161.953V166.971H199.859V167.859H197.822V174.107H196.756V161.953H197.822ZM188.348 164.797V163.908H191.479V162.104H192.545V163.908H195.58V164.797H188.348ZM189.045 168.598C189.038 166.957 190.296 165.809 192.025 165.809C193.741 165.809 194.992 166.957 195.006 168.598C194.992 170.245 193.741 171.387 192.025 171.387C190.296 171.387 189.038 170.245 189.045 168.598ZM190.07 168.598C190.063 169.705 190.891 170.484 192.025 170.471C193.146 170.484 193.967 169.705 193.98 168.598C193.967 167.497 193.146 166.704 192.025 166.711C190.891 166.704 190.063 167.497 190.07 168.598ZM210.346 165.645V166.506H202.02V162.404H203.086V165.645H210.346ZM200.502 169.035V168.16H211.631V169.035H200.502ZM201.951 173.807V170.279H203.018V172.918H210.414V173.807H201.951ZM227.258 171.646V172.549H216.129V171.646H218.891V168.372C217.852 167.832 217.223 166.957 217.223 165.85C217.223 163.97 219.068 162.732 221.666 162.719C224.264 162.732 226.109 163.97 226.109 165.85C226.109 166.937 225.501 167.798 224.496 168.338V171.646H227.258ZM218.262 165.85C218.255 167.21 219.67 168.119 221.666 168.119C223.642 168.119 225.07 167.21 225.07 165.85C225.07 164.489 223.642 163.594 221.666 163.607C219.67 163.594 218.255 164.489 218.262 165.85ZM219.943 171.646H223.416V168.755C222.89 168.892 222.302 168.967 221.666 168.967C221.044 168.967 220.463 168.898 219.943 168.762V171.646ZM238.305 161.953V169.199H237.225V166.014H234.777V165.125H237.225V161.953H238.305ZM228.283 168.229C230.088 167.579 231.373 165.932 231.373 164.195V163.744H228.625V162.842H235.174V163.744H232.453V164.182C232.453 165.768 233.67 167.278 235.447 167.887L234.887 168.748C233.526 168.256 232.467 167.23 231.94 165.979C231.421 167.401 230.293 168.536 228.844 169.09L228.283 168.229ZM230.197 171.838C230.19 170.409 231.742 169.575 234.271 169.582C236.794 169.575 238.346 170.409 238.346 171.838C238.346 173.273 236.794 174.094 234.271 174.107C231.742 174.094 230.19 173.273 230.197 171.838ZM231.264 171.838C231.257 172.72 232.405 173.253 234.271 173.246C236.131 173.253 237.279 172.72 237.279 171.838C237.279 170.949 236.131 170.416 234.271 170.416C232.405 170.416 231.257 170.949 231.264 171.838ZM250.35 161.953V174.135H249.27V161.953H250.35ZM240.779 167.135C240.786 164.551 242.071 162.903 243.883 162.896C245.688 162.903 246.993 164.551 246.986 167.135C246.993 169.726 245.688 171.366 243.883 171.359C242.071 171.366 240.786 169.726 240.779 167.135ZM241.818 167.135C241.818 169.11 242.666 170.409 243.883 170.402C245.106 170.409 245.947 169.11 245.947 167.135C245.947 165.159 245.106 163.86 243.883 163.854C242.666 163.86 241.818 165.159 241.818 167.135ZM262.846 161.953V174.107H261.807V161.953H262.846ZM252.578 167.203C252.585 164.619 253.61 162.985 255.189 162.979C256.666 162.985 257.664 164.407 257.801 166.697H259.373V162.213H260.398V173.492H259.373V167.586H257.808C257.705 169.951 256.687 171.435 255.189 171.428C253.61 171.435 252.585 169.787 252.578 167.203ZM253.59 167.203C253.576 169.172 254.205 170.416 255.189 170.402C256.181 170.416 256.81 169.172 256.803 167.203C256.81 165.228 256.181 163.99 255.189 163.99C254.205 163.99 253.576 165.228 253.59 167.203ZM275.656 171.646V172.549H264.527V171.646H267.289V168.372C266.25 167.832 265.621 166.957 265.621 165.85C265.621 163.97 267.467 162.732 270.064 162.719C272.662 162.732 274.508 163.97 274.508 165.85C274.508 166.937 273.899 167.798 272.895 168.338V171.646H275.656ZM266.66 165.85C266.653 167.21 268.068 168.119 270.064 168.119C272.04 168.119 273.469 167.21 273.469 165.85C273.469 164.489 272.04 163.594 270.064 163.607C268.068 163.594 266.653 164.489 266.66 165.85ZM268.342 171.646H271.814V168.755C271.288 168.892 270.7 168.967 270.064 168.967C269.442 168.967 268.861 168.898 268.342 168.762V171.646ZM277.912 173.082C277.434 173.075 277.023 172.679 277.037 172.193C277.023 171.715 277.434 171.318 277.912 171.318C278.397 171.318 278.794 171.715 278.787 172.193C278.794 172.679 278.397 173.075 277.912 173.082ZM82.5137 178.953V191.135H81.4336V178.953H82.5137ZM72.9434 184.135C72.9502 181.551 74.2354 179.903 76.0469 179.896C77.8516 179.903 79.1572 181.551 79.1504 184.135C79.1572 186.726 77.8516 188.366 76.0469 188.359C74.2354 188.366 72.9502 186.726 72.9434 184.135ZM73.9824 184.135C73.9824 186.11 74.8301 187.409 76.0469 187.402C77.2705 187.409 78.1113 186.11 78.1113 184.135C78.1113 182.159 77.2705 180.86 76.0469 180.854C74.8301 180.86 73.9824 182.159 73.9824 184.135ZM93.4648 180.402C93.458 181.551 93.3281 182.692 92.9795 183.766H94.9277V179.281H95.9531V190.492H94.9277V184.654H92.6309C91.9473 186.151 90.7578 187.505 88.8027 188.578L88.1875 187.812C90.0605 186.794 91.1748 185.516 91.79 184.08L88.3242 184.436L88.1602 183.479L92.0908 183.232C92.2686 182.604 92.3711 181.961 92.4121 181.291H88.748V180.402H93.4648ZM97.4844 191.107V178.953H98.5098V191.107H97.4844ZM110.227 178.953V191.135H109.146V178.953H110.227ZM100.656 184.135C100.663 181.551 101.948 179.903 103.76 179.896C105.564 179.903 106.87 181.551 106.863 184.135C106.87 186.726 105.564 188.366 103.76 188.359C101.948 188.366 100.663 186.726 100.656 184.135ZM101.695 184.135C101.695 186.11 102.543 187.409 103.76 187.402C104.983 187.409 105.824 186.11 105.824 184.135C105.824 182.159 104.983 180.86 103.76 180.854C102.543 180.86 101.695 182.159 101.695 184.135ZM121.998 180.197V181.701C122.005 183.492 122.005 185.146 121.492 187.607L120.412 187.512C120.686 186.343 120.815 185.331 120.884 184.388L113.467 184.791L113.316 183.902L120.932 183.588C120.952 182.945 120.959 182.323 120.959 181.701V181.1H113.645V180.197H121.998ZM112.305 189.398V188.496H123.379V189.398H112.305ZM133.975 180.744C133.981 182.829 136.36 184.682 138.473 185.078L137.98 185.98C136.142 185.557 134.214 184.251 133.428 182.467C132.635 184.251 130.714 185.55 128.875 185.98L128.383 185.078C130.488 184.675 132.847 182.836 132.854 180.744V179.814H133.975V180.744ZM127.918 189.453V188.564H139.047V189.453H127.918ZM149.711 180.197V181.701C149.718 183.492 149.718 185.146 149.205 187.607L148.125 187.512C148.398 186.343 148.528 185.331 148.597 184.388L141.18 184.791L141.029 183.902L148.645 183.588C148.665 182.945 148.672 182.323 148.672 181.701V181.1H141.357V180.197H149.711ZM140.018 189.398V188.496H151.092V189.398H140.018ZM162.152 178.967V185.639H161.086V178.967H162.152ZM152.732 180.443V179.555H158.283V182.836H153.799V184.49C155.973 184.477 157.593 184.429 159.568 184.107L159.691 184.996C157.647 185.317 155.986 185.379 153.744 185.393H152.76V181.988H157.217V180.443H152.732ZM154.25 190.943V186.254H155.33V187.703H161.086V186.254H162.152V190.943H154.25ZM155.33 190.068H161.086V188.564H155.33V190.068ZM174.061 185.529V186.404H165.652V180.006H173.924V180.908H166.746V182.713H173.664V183.574H166.746V185.529H174.061ZM164.217 189.521V188.633H175.346V189.521H164.217ZM187.432 184.6V185.447H176.303V184.6H187.432ZM177.643 187.225V186.418H186.037V189.002H178.736V190.164H186.434V190.943H177.656V188.264H184.971V187.225H177.643ZM177.711 180.102V179.322H185.996V181.838H178.818V182.904H186.215V183.684H177.752V181.1H184.916V180.102H177.711ZM195.197 179.896C196.312 179.903 197.221 180.553 197.747 181.674H200.939V178.953H202.006V191.135H200.939V186.418H197.822C197.316 187.648 196.373 188.366 195.197 188.359C193.399 188.366 192.142 186.726 192.148 184.135C192.142 181.551 193.399 179.903 195.197 179.896ZM193.174 184.135C193.181 186.11 194.001 187.409 195.197 187.402C196.387 187.409 197.221 186.11 197.221 184.135C197.221 182.159 196.387 180.86 195.197 180.854C194.001 180.86 193.181 182.159 193.174 184.135ZM198.055 182.576C198.171 183.048 198.232 183.567 198.232 184.135C198.232 184.634 198.185 185.105 198.096 185.529H200.939V182.576H198.055ZM214.092 178.953V191.135H213.025V184.531H210.66V183.629H213.025V178.953H214.092ZM204.453 180.977V180.088H209.922V184.34H205.561V187.293C207.659 187.293 209.177 187.225 210.947 186.896L211.029 187.799C209.204 188.127 207.625 188.202 205.424 188.209H204.494V183.451H208.883V180.977H204.453ZM227.244 185.393V186.268H222.295V188.646H221.229V186.268H216.115V185.393H227.244ZM217.537 190.848V187.525H218.604V189.945H226V190.848H217.537ZM217.605 184.203V179.35H218.672V180.908H224.688V179.35H225.754V184.203H217.605ZM218.672 183.328H224.688V181.729H218.672V183.328ZM232.207 179.842C234.114 179.849 235.468 181.011 235.475 182.699C235.468 184.395 234.114 185.55 232.207 185.557C230.286 185.55 228.919 184.395 228.926 182.699C228.919 181.011 230.286 179.849 232.207 179.842ZM228.297 187.539C230.539 187.546 233.636 187.525 236.322 187.129L236.404 187.922C233.622 188.441 230.635 188.455 228.447 188.455L228.297 187.539ZM229.979 182.699C229.972 183.834 230.908 184.613 232.207 184.613C233.492 184.613 234.429 183.834 234.422 182.699C234.429 181.571 233.492 180.785 232.207 180.785C230.908 180.785 229.972 181.571 229.979 182.699ZM237.129 191.135V178.953H238.195V191.135H237.129ZM247.191 179.664C248.23 179.657 249.112 180.047 249.673 180.703H252.838V178.953H253.918V185.939H252.838V184.34H249.673C249.112 184.996 248.23 185.386 247.191 185.393C245.373 185.386 244.026 184.21 244.033 182.521C244.026 180.833 245.373 179.657 247.191 179.664ZM245.059 182.521C245.059 183.67 245.947 184.477 247.191 184.49C248.395 184.477 249.297 183.67 249.297 182.521C249.297 181.394 248.395 180.566 247.191 180.566C245.947 180.566 245.059 181.394 245.059 182.521ZM245.975 190.943V186.568H253.918V190.943H245.975ZM247.041 190.068H252.865V187.443H247.041V190.068ZM250.179 181.592C250.281 181.879 250.336 182.193 250.336 182.521C250.336 182.843 250.281 183.144 250.192 183.424H252.838V181.592H250.179ZM265.963 178.967V188.195H264.883V186.938H262.367V186.158H264.883V178.967H265.963ZM255.873 184.6C258.136 184.586 261.185 184.565 263.789 184.244L263.857 185.023C262.777 185.194 261.636 185.304 260.521 185.372V187.771H259.441V185.427C258.211 185.475 257.042 185.475 256.023 185.475L255.873 184.6ZM256.857 181.578C256.851 180.3 258.067 179.459 259.865 179.459C261.649 179.459 262.866 180.3 262.873 181.578C262.866 182.877 261.649 183.684 259.865 183.684C258.067 183.684 256.851 182.877 256.857 181.578ZM257.623 190.848V187.293H258.703V189.945H266.264V190.848H257.623ZM257.883 181.578C257.869 182.371 258.676 182.884 259.865 182.891C261.021 182.884 261.841 182.371 261.848 181.578C261.841 180.799 261.021 180.266 259.865 180.279C258.676 180.266 257.869 180.799 257.883 181.578ZM273.578 179.746C276.114 179.753 278.021 181.079 278.021 183.082C278.021 185.105 276.114 186.432 273.578 186.418C271.042 186.432 269.135 185.105 269.135 183.082C269.135 181.079 271.042 179.753 273.578 179.746ZM268.041 189.494V188.592H279.17V189.494H268.041ZM270.16 183.082C270.146 184.559 271.616 185.543 273.578 185.543C275.526 185.543 276.982 184.559 276.982 183.082C276.982 181.626 275.526 180.614 273.578 180.621C271.616 180.614 270.146 181.626 270.16 183.082ZM83.6211 205.701V206.604H72.4922V205.701H77.4961V203.404H73.8867V199.658H81.1602V197.744H73.8594V196.855H82.2129V200.533H74.9531V202.516H82.5V203.404H78.5488V205.701H83.6211ZM99.1797 201.859V202.762H94.1621V208.121H93.0957V202.762H88.1055V201.859H91.2979C91.7969 199.993 91.8857 198.585 91.9131 197.689H88.9941V196.814H92.959V197.184C92.959 197.949 92.959 199.549 92.3984 201.859H96.3906C96.8145 199.973 96.8623 198.592 96.8691 197.689H93.8613V196.814H97.9355V197.348C97.9287 198.188 97.9287 199.692 97.4775 201.859H99.1797ZM106.549 196.637V201.586H100.848V196.637H106.549ZM101.9 200.738H105.496V197.512H101.9V200.738ZM102.338 203.691V202.83H110.227V205.729H103.418V207.096H110.664V207.971H102.352V204.936H109.174V203.691H102.338ZM109.174 202.229V195.953H110.227V202.229H109.174ZM122.367 195.953V208.107H121.301V201.736H118.402V200.848H121.301V195.953H122.367ZM112.318 204.936C115.606 203.343 117.131 200.998 117.35 198.154H112.852V197.279H118.43C118.423 200.725 116.967 203.78 112.906 205.797L112.318 204.936ZM134.822 195.953V208.107H133.783V195.953H134.822ZM124.555 201.203C124.562 198.619 125.587 196.985 127.166 196.979C128.643 196.985 129.641 198.407 129.777 200.697H131.35V196.213H132.375V207.492H131.35V201.586H129.784C129.682 203.951 128.663 205.435 127.166 205.428C125.587 205.435 124.562 203.787 124.555 201.203ZM125.566 201.203C125.553 203.172 126.182 204.416 127.166 204.402C128.157 204.416 128.786 203.172 128.779 201.203C128.786 199.228 128.157 197.99 127.166 197.99C126.182 197.99 125.553 199.228 125.566 201.203ZM147.633 205.646V206.549H136.504V205.646H139.266V202.372C138.227 201.832 137.598 200.957 137.598 199.85C137.598 197.97 139.443 196.732 142.041 196.719C144.639 196.732 146.484 197.97 146.484 199.85C146.484 200.937 145.876 201.798 144.871 202.338V205.646H147.633ZM138.637 199.85C138.63 201.21 140.045 202.119 142.041 202.119C144.017 202.119 145.445 201.21 145.445 199.85C145.445 198.489 144.017 197.594 142.041 197.607C140.045 197.594 138.63 198.489 138.637 199.85ZM140.318 205.646H143.791V202.755C143.265 202.892 142.677 202.967 142.041 202.967C141.419 202.967 140.838 202.898 140.318 202.762V205.646ZM73.5039 226.789V213.678H76.4023V214.648H74.6113V225.805H76.4023V226.789H73.5039ZM82.623 214.402C82.6162 215.551 82.4863 216.692 82.1377 217.766H84.0859V213.281H85.1113V224.492H84.0859V218.654H81.7891C81.1055 220.151 79.916 221.505 77.9609 222.578L77.3457 221.812C79.2188 220.794 80.333 219.516 80.9482 218.08L77.4824 218.436L77.3184 217.479L81.249 217.232C81.4268 216.604 81.5293 215.961 81.5703 215.291H77.9062V214.402H82.623ZM86.6426 225.107V212.953H87.668V225.107H86.6426ZM99.3848 212.953V225.135H98.3047V212.953H99.3848ZM89.8145 218.135C89.8213 215.551 91.1064 213.903 92.918 213.896C94.7227 213.903 96.0283 215.551 96.0215 218.135C96.0283 220.726 94.7227 222.366 92.918 222.359C91.1064 222.366 89.8213 220.726 89.8145 218.135ZM90.8535 218.135C90.8535 220.11 91.7012 221.409 92.918 221.402C94.1416 221.409 94.9824 220.11 94.9824 218.135C94.9824 216.159 94.1416 214.86 92.918 214.854C91.7012 214.86 90.8535 216.159 90.8535 218.135ZM111.156 214.197V215.701C111.163 217.492 111.163 219.146 110.65 221.607L109.57 221.512C109.844 220.343 109.974 219.331 110.042 218.388L102.625 218.791L102.475 217.902L110.09 217.588C110.11 216.945 110.117 216.323 110.117 215.701V215.1H102.803V214.197H111.156ZM101.463 223.398V222.496H112.537V223.398H101.463ZM123.98 212.953V225.107H122.941V212.953H123.98ZM113.713 218.203C113.72 215.619 114.745 213.985 116.324 213.979C117.801 213.985 118.799 215.407 118.936 217.697H120.508V213.213H121.533V224.492H120.508V218.586H118.942C118.84 220.951 117.821 222.435 116.324 222.428C114.745 222.435 113.72 220.787 113.713 218.203ZM114.725 218.203C114.711 220.172 115.34 221.416 116.324 221.402C117.315 221.416 117.944 220.172 117.938 218.203C117.944 216.228 117.315 214.99 116.324 214.99C115.34 214.99 114.711 216.228 114.725 218.203ZM132.799 215.373C132.806 216.72 133.742 218.08 135.301 218.668L134.74 219.488C133.571 219.037 132.73 218.169 132.293 217.123C131.849 218.278 130.974 219.311 129.777 219.83L129.189 218.996C130.789 218.299 131.767 216.727 131.773 215.373V213.719H132.799V215.373ZM131.404 222.92C131.391 221.546 132.949 220.739 135.479 220.746C137.994 220.739 139.56 221.546 139.566 222.92C139.56 224.28 137.994 225.08 135.479 225.08C132.949 225.08 131.391 224.28 131.404 222.92ZM132.471 222.92C132.457 223.747 133.612 224.253 135.479 224.246C137.324 224.253 138.486 223.747 138.5 222.92C138.486 222.079 137.324 221.573 135.479 221.566C133.612 221.573 132.457 222.079 132.471 222.92ZM135.848 220.09V213.199H136.859V216.234H138.473V212.967H139.498V220.473H138.473V217.123H136.859V220.09H135.848ZM150.969 214.197V215.701C150.976 217.492 150.976 219.146 150.463 221.607L149.383 221.512C149.656 220.343 149.786 219.331 149.854 218.388L142.438 218.791L142.287 217.902L149.902 217.588C149.923 216.945 149.93 216.323 149.93 215.701V215.1H142.615V214.197H150.969ZM141.275 223.398V222.496H152.35V223.398H141.275ZM163.41 212.967V220.172H162.344V212.967H163.41ZM153.99 214.566V213.705H159.541V217H155.057V218.682C157.23 218.695 158.851 218.627 160.826 218.299L160.949 219.201C158.905 219.516 157.244 219.584 155.002 219.584H154.018V216.152H158.475V214.566H153.99ZM155.508 224.943V220.828H163.41V224.943H155.508ZM156.561 224.068H162.357V221.703H156.561V224.068ZM171.012 213.172C173.712 213.172 175.298 213.917 175.305 215.264C175.298 216.645 173.712 217.39 171.012 217.396C168.298 217.39 166.705 216.645 166.705 215.264C166.705 213.917 168.298 213.172 171.012 213.172ZM165.475 219.092V218.217H176.549V219.092H165.475ZM166.814 220.965V220.145H175.127V222.865H167.908V224.123H175.496V224.971H166.842V222.072H174.074V220.965H166.814ZM167.826 215.264C167.812 216.111 168.995 216.576 171.012 216.576C173.028 216.576 174.204 216.111 174.211 215.264C174.204 214.464 173.028 213.985 171.012 213.979C168.995 213.985 167.812 214.464 167.826 215.264ZM190.494 212.953V217.738H192.531V218.668H190.494V225.107H189.428V212.953H190.494ZM181.594 222.195V213.992H182.66V217.205H186.215V213.992H187.281V222.195H181.594ZM182.66 221.293H186.215V218.066H182.66V221.293ZM204.316 222.674V223.576H193.188V222.674H204.316ZM194.555 214.771V213.883H202.908V217.561H195.648V219.557H203.195V220.418H194.582V216.686H201.855V214.771H194.555ZM211.316 214.17V215.879H214.297V212.953H215.363V225.135H214.297V220.117H211.316V222.031H205.779V214.17H211.316ZM206.846 221.17H210.277V215.018H206.846V221.17ZM211.316 219.229H214.297V216.768H211.316V219.229ZM220.162 226.789H217.264V225.805H219.055V214.648H217.264V213.678H220.162V226.789ZM235.078 212.953V217.971H237.115V218.859H235.078V225.107H234.012V212.953H235.078ZM225.604 215.797V214.908H228.734V213.104H229.801V214.908H232.836V215.797H225.604ZM226.301 219.598C226.294 217.957 227.552 216.809 229.281 216.809C230.997 216.809 232.248 217.957 232.262 219.598C232.248 221.245 230.997 222.387 229.281 222.387C227.552 222.387 226.294 221.245 226.301 219.598ZM227.326 219.598C227.319 220.705 228.146 221.484 229.281 221.471C230.402 221.484 231.223 220.705 231.236 219.598C231.223 218.497 230.402 217.704 229.281 217.711C228.146 217.704 227.319 218.497 227.326 219.598ZM249.078 215.168V216.07H247.273V218.135H249.078V219.051H247.273V221.922H246.207V212.953H247.273V215.168H249.078ZM238.004 216.809C237.997 215.045 239.378 213.821 241.189 213.814C243.015 213.821 244.375 215.045 244.389 216.809C244.375 218.565 243.015 219.803 241.189 219.803C239.378 219.803 237.997 218.565 238.004 216.809ZM239.057 216.809C239.05 218.005 239.986 218.859 241.189 218.859C242.413 218.859 243.329 218.005 243.336 216.809C243.329 215.605 242.413 214.758 241.189 214.758C239.986 214.758 239.05 215.605 239.057 216.809ZM239.672 224.848V220.992H240.725V223.945H247.834V224.848H239.672ZM257.008 215.373C257.015 216.72 257.951 218.08 259.51 218.668L258.949 219.488C257.78 219.037 256.939 218.169 256.502 217.123C256.058 218.278 255.183 219.311 253.986 219.83L253.398 218.996C254.998 218.299 255.976 216.727 255.982 215.373V213.719H257.008V215.373ZM255.613 222.92C255.6 221.546 257.158 220.739 259.688 220.746C262.203 220.739 263.769 221.546 263.775 222.92C263.769 224.28 262.203 225.08 259.688 225.08C257.158 225.08 255.6 224.28 255.613 222.92ZM256.68 222.92C256.666 223.747 257.821 224.253 259.688 224.246C261.533 224.253 262.695 223.747 262.709 222.92C262.695 222.079 261.533 221.573 259.688 221.566C257.821 221.573 256.666 222.079 256.68 222.92ZM260.057 220.09V213.199H261.068V216.234H262.682V212.967H263.707V220.473H262.682V217.123H261.068V220.09H260.057ZM275.178 214.197V215.701C275.185 217.492 275.185 219.146 274.672 221.607L273.592 221.512C273.865 220.343 273.995 219.331 274.063 218.388L266.646 218.791L266.496 217.902L274.111 217.588C274.132 216.945 274.139 216.323 274.139 215.701V215.1H266.824V214.197H275.178ZM265.484 223.398V222.496H276.559V223.398H265.484ZM82.5273 229.967V237.172H81.4609V229.967H82.5273ZM73.1074 231.566V230.705H78.6582V234H74.1738V235.682C76.3477 235.695 77.9678 235.627 79.9434 235.299L80.0664 236.201C78.0225 236.516 76.3613 236.584 74.1191 236.584H73.1348V233.152H77.5918V231.566H73.1074ZM74.625 241.943V237.828H82.5273V241.943H74.625ZM75.6777 241.068H81.4746V238.703H75.6777V241.068ZM90.1289 230.172C92.8291 230.172 94.415 230.917 94.4219 232.264C94.415 233.645 92.8291 234.39 90.1289 234.396C87.415 234.39 85.8223 233.645 85.8223 232.264C85.8223 230.917 87.415 230.172 90.1289 230.172ZM84.5918 236.092V235.217H95.666V236.092H84.5918ZM85.9316 237.965V237.145H94.2441V239.865H87.0254V241.123H94.6133V241.971H85.959V239.072H93.1914V237.965H85.9316ZM86.9434 232.264C86.9297 233.111 88.1123 233.576 90.1289 233.576C92.1455 233.576 93.3213 233.111 93.3281 232.264C93.3213 231.464 92.1455 230.985 90.1289 230.979C88.1123 230.985 86.9297 231.464 86.9434 232.264ZM109.611 229.953V234.738H111.648V235.668H109.611V242.107H108.545V229.953H109.611ZM100.711 239.195V230.992H101.777V234.205H105.332V230.992H106.398V239.195H100.711ZM101.777 238.293H105.332V235.066H101.777V238.293ZM123.434 239.674V240.576H112.305V239.674H123.434ZM113.672 231.771V230.883H122.025V234.561H114.766V236.557H122.312V237.418H113.699V233.686H120.973V231.771H113.672ZM130.557 231.02V232.1H133.4V229.967H134.48V238.84H133.4V235.6H130.557V236.693H124.979V231.02H130.557ZM126.045 235.832H129.504V231.908H126.045V235.832ZM126.619 241.848V238.047H127.699V240.945H134.754V241.848H126.619ZM130.557 234.711H133.4V233.002H130.557V234.711ZM143.271 230.896C145.062 230.903 146.334 232.551 146.348 235.135C146.334 237.726 145.062 239.366 143.271 239.359C141.467 239.366 140.202 237.726 140.209 235.135C140.202 232.551 141.467 230.903 143.271 230.896ZM141.221 235.135C141.228 237.11 142.068 238.409 143.271 238.402C144.488 238.409 145.309 237.11 145.309 235.135C145.309 233.159 144.488 231.86 143.271 231.854C142.068 231.86 141.228 233.159 141.221 235.135ZM148.357 242.107V229.953H149.424V234.807H151.461V235.736H149.424V242.107H148.357ZM162.139 229.953V242.135H161.059V229.953H162.139ZM152.568 235.135C152.575 232.551 153.86 230.903 155.672 230.896C157.477 230.903 158.782 232.551 158.775 235.135C158.782 237.726 157.477 239.366 155.672 239.359C153.86 239.366 152.575 237.726 152.568 235.135ZM153.607 235.135C153.607 237.11 154.455 238.409 155.672 238.402C156.896 238.409 157.736 237.11 157.736 235.135C157.736 233.159 156.896 231.86 155.672 231.854C154.455 231.86 153.607 233.159 153.607 235.135ZM174.238 229.953V242.135H173.158V229.953H174.238ZM165.01 239.113V231.115H170.793V232.018H166.09V238.184C168.455 238.184 170.007 238.115 171.832 237.787L171.941 238.689C170.055 239.024 168.455 239.106 165.994 239.113H165.01ZM179.584 230.896C181.238 230.903 182.435 232.325 182.599 234.602H185.326V229.953H186.393V242.135H185.326V235.49H182.612C182.496 237.876 181.279 239.366 179.584 239.359C177.786 239.366 176.528 237.726 176.535 235.135C176.528 232.551 177.786 230.903 179.584 230.896ZM177.561 235.135C177.567 237.11 178.388 238.409 179.584 238.402C180.773 238.409 181.607 237.11 181.607 235.135C181.607 233.159 180.773 231.86 179.584 231.854C178.388 231.86 177.567 233.159 177.561 235.135ZM197.822 229.953V234.902H199.791V235.805H197.822V242.107H196.756V229.953H197.822ZM188.498 238.949C191.636 237.391 193.345 235.046 193.591 232.168H189.059V231.266H194.678C194.671 234.704 193.058 237.842 189.1 239.797L188.498 238.949ZM215.104 236.119V236.994H204.029V236.119H209.02V234.752H205.109V233.891H206.941V231.307H205.068V230.418H214.051V231.307H212.178V233.891H214.01V234.752H210.086V236.119H215.104ZM205.369 240.016C205.376 238.669 206.928 237.938 209.566 237.938C212.178 237.938 213.736 238.669 213.75 240.016C213.736 241.349 212.178 242.08 209.566 242.08C206.928 242.08 205.376 241.349 205.369 240.016ZM206.463 240.016C206.456 240.809 207.618 241.26 209.566 241.246C211.494 241.26 212.656 240.809 212.656 240.016C212.656 239.223 211.494 238.765 209.566 238.771C207.618 238.765 206.456 239.223 206.463 240.016ZM208.008 233.891H211.111V231.307H208.008V233.891ZM227.203 236.119V236.994H216.129V236.119H221.119V234.752H217.209V233.891H219.041V231.307H217.168V230.418H226.15V231.307H224.277V233.891H226.109V234.752H222.186V236.119H227.203ZM217.469 240.016C217.476 238.669 219.027 237.938 221.666 237.938C224.277 237.938 225.836 238.669 225.85 240.016C225.836 241.349 224.277 242.08 221.666 242.08C219.027 242.08 217.476 241.349 217.469 240.016ZM218.562 240.016C218.556 240.809 219.718 241.26 221.666 241.246C223.594 241.26 224.756 240.809 224.756 240.016C224.756 239.223 223.594 238.765 221.666 238.771C219.718 238.765 218.556 239.223 218.562 240.016ZM220.107 233.891H223.211V231.307H220.107V233.891ZM243.117 234.807V235.709H241.148V242.107H240.082V229.953H241.148V234.807H243.117ZM232.248 239.018V231.156H233.314V238.115C235.092 238.115 236.903 237.979 238.906 237.555L239.043 238.471C236.944 238.895 235.058 239.018 233.219 239.018H232.248ZM249.379 230.746C251.963 230.76 253.822 232.018 253.822 233.932C253.822 235.743 252.209 236.939 249.898 237.097V239.646H254.971V240.549H243.842V239.646H248.846V237.097C246.549 236.933 244.936 235.736 244.936 233.932C244.936 232.018 246.802 230.76 249.379 230.746ZM245.975 233.932C245.968 235.333 247.41 236.242 249.379 236.256C251.348 236.242 252.783 235.333 252.783 233.932C252.783 232.558 251.348 231.628 249.379 231.635C247.41 231.628 245.968 232.558 245.975 233.932ZM265.689 231.184V232.4C265.676 233.891 265.676 235.559 265.238 238.006L264.145 237.883C264.603 235.559 264.603 233.856 264.609 232.4V232.072H257.117V231.184H265.689ZM255.941 240.385V239.496H260.289V235.148H261.342V239.496H267.016V240.385H255.941ZM73.5039 260.789V247.678H76.4023V248.648H74.6113V259.805H76.4023V260.789H73.5039ZM80.8184 250.699C80.8252 252.654 81.8164 254.657 83.4707 255.539L82.8555 256.346C81.6455 255.683 80.7705 254.425 80.3262 252.962C79.8955 254.521 79.0273 255.888 77.8105 256.619L77.168 255.799C78.8223 254.842 79.7998 252.709 79.8066 250.699V250.098H77.4961V249.209H79.8066V247.404H80.832V249.209H83.1016V250.098H80.8184V250.699ZM82.2676 252.668V251.752H84.1816V247.254H85.1934V258.479H84.1816V252.668H82.2676ZM86.6289 259.107V246.953H87.6543V259.107H86.6289ZM99.3984 246.953V259.135H98.332V246.953H99.3984ZM90.0469 248.977V248.088H95.707V252.408H91.168V255.279C93.1846 255.286 94.9824 255.19 97.1562 254.842L97.2656 255.744C95.0303 256.093 93.1846 256.182 91.0859 256.182H90.0742V251.533H94.627V248.977H90.0469ZM112.578 252.6V253.447H101.449V252.6H112.578ZM102.789 255.225V254.418H111.184V257.002H103.883V258.164H111.58V258.943H102.803V256.264H110.117V255.225H102.789ZM102.857 248.102V247.322H111.143V249.838H103.965V250.904H111.361V251.684H102.898V249.1H110.062V248.102H102.857ZM118.867 247.541V251.52C120.761 251.506 122.367 251.41 124.158 251.055L124.295 251.943C122.395 252.312 120.733 252.429 118.73 252.436H117.787V247.541H118.867ZM118.812 254.992V254.131H122.6V252.914H123.666V254.131H127.439V254.992H118.812ZM119.701 257.289C119.694 256.141 121.014 255.519 123.119 255.512C125.245 255.519 126.544 256.141 126.551 257.289C126.544 258.444 125.245 259.08 123.119 259.08C121.014 259.08 119.694 258.444 119.701 257.289ZM120.768 257.289C120.761 257.925 121.663 258.301 123.119 258.287C124.582 258.301 125.471 257.925 125.471 257.289C125.471 256.667 124.582 256.298 123.119 256.305C121.663 256.298 120.761 256.667 120.768 257.289ZM122.545 249.701V248.84H126.072V246.953H127.152V253.461H126.072V249.701H122.545ZM134.713 247.746C137.249 247.753 139.156 249.079 139.156 251.082C139.156 253.105 137.249 254.432 134.713 254.418C132.177 254.432 130.27 253.105 130.27 251.082C130.27 249.079 132.177 247.753 134.713 247.746ZM129.176 257.494V256.592H140.305V257.494H129.176ZM131.295 251.082C131.281 252.559 132.751 253.543 134.713 253.543C136.661 253.543 138.117 252.559 138.117 251.082C138.117 249.626 136.661 248.614 134.713 248.621C132.751 248.614 131.281 249.626 131.295 251.082ZM147.305 248.17V249.879H150.285V246.953H151.352V259.135H150.285V254.117H147.305V256.031H141.768V248.17H147.305ZM142.834 255.17H146.266V249.018H142.834V255.17ZM147.305 253.229H150.285V250.768H147.305V253.229ZM156.15 260.789H153.252V259.805H155.043V248.648H153.252V247.678H156.15V260.789ZM165.215 250.699C165.222 252.654 166.213 254.657 167.867 255.539L167.252 256.346C166.042 255.683 165.167 254.425 164.723 252.962C164.292 254.521 163.424 255.888 162.207 256.619L161.564 255.799C163.219 254.842 164.196 252.709 164.203 250.699V250.098H161.893V249.209H164.203V247.404H165.229V249.209H167.498V250.098H165.215V250.699ZM166.664 252.668V251.752H168.578V247.254H169.59V258.479H168.578V252.668H166.664ZM171.025 259.107V246.953H172.051V259.107H171.025ZM183.795 246.953V259.135H182.729V246.953H183.795ZM174.443 248.977V248.088H180.104V252.408H175.564V255.279C177.581 255.286 179.379 255.19 181.553 254.842L181.662 255.744C179.427 256.093 177.581 256.182 175.482 256.182H174.471V251.533H179.023V248.977H174.443ZM196.975 252.6V253.447H185.846V252.6H196.975ZM187.186 255.225V254.418H195.58V257.002H188.279V258.164H195.977V258.943H187.199V256.264H194.514V255.225H187.186ZM187.254 248.102V247.322H195.539V249.838H188.361V250.904H195.758V251.684H187.295V249.1H194.459V248.102H187.254ZM203.264 247.541V251.52C205.157 251.506 206.764 251.41 208.555 251.055L208.691 251.943C206.791 252.312 205.13 252.429 203.127 252.436H202.184V247.541H203.264ZM203.209 254.992V254.131H206.996V252.914H208.062V254.131H211.836V254.992H203.209ZM204.098 257.289C204.091 256.141 205.41 255.519 207.516 255.512C209.642 255.519 210.94 256.141 210.947 257.289C210.94 258.444 209.642 259.08 207.516 259.08C205.41 259.08 204.091 258.444 204.098 257.289ZM205.164 257.289C205.157 257.925 206.06 258.301 207.516 258.287C208.979 258.301 209.867 257.925 209.867 257.289C209.867 256.667 208.979 256.298 207.516 256.305C206.06 256.298 205.157 256.667 205.164 257.289ZM206.941 249.701V248.84H210.469V246.953H211.549V253.461H210.469V249.701H206.941ZM219.109 247.746C221.646 247.753 223.553 249.079 223.553 251.082C223.553 253.105 221.646 254.432 219.109 254.418C216.573 254.432 214.666 253.105 214.666 251.082C214.666 249.079 216.573 247.753 219.109 247.746ZM213.572 257.494V256.592H224.701V257.494H213.572ZM215.691 251.082C215.678 252.559 217.147 253.543 219.109 253.543C221.058 253.543 222.514 252.559 222.514 251.082C222.514 249.626 221.058 248.614 219.109 248.621C217.147 248.614 215.678 249.626 215.691 251.082ZM231.824 248.02V249.1H234.668V246.967H235.748V255.84H234.668V252.6H231.824V253.693H226.246V248.02H231.824ZM227.312 252.832H230.771V248.908H227.312V252.832ZM227.887 258.848V255.047H228.967V257.945H236.021V258.848H227.887ZM231.824 251.711H234.668V250.002H231.824V251.711ZM251.129 253.529V254.404H242.721V248.006H250.992V248.908H243.814V250.713H250.732V251.574H243.814V253.529H251.129ZM241.285 257.521V256.633H252.414V257.521H241.285ZM258.252 247.951V251.424H254.998V253.338C256.577 253.331 257.78 253.27 259.209 252.982L259.332 253.857C257.773 254.151 256.488 254.213 254.725 254.213H253.945V250.604H257.213V248.812H253.918V247.951H258.252ZM255.736 258.848V255.184H256.803V257.945H264.076V258.848H255.736ZM258.758 251.246V250.344H260.275V247.186H261.301V255.771H260.275V251.246H258.758ZM262.682 256.1V246.967H263.707V256.1H262.682ZM275.301 252.805V253.693H266.906V248.088H275.178V248.977H267.973V252.805H275.301ZM265.484 257.453V256.551H276.613V257.453H265.484ZM81.9941 263.967V267.973H83.8262V268.875H81.9941V273.072H80.9277V263.967H81.9941ZM72.5195 266.332V265.457H75.6094V263.967H76.6758V265.457H79.7656V266.332H72.5195ZM73.2168 269.271C73.21 267.891 74.3857 267.002 76.1426 267.002C77.8789 267.002 79.0547 267.891 79.0684 269.271C79.0547 270.639 77.8789 271.521 76.1426 271.514C74.3857 271.521 73.21 270.639 73.2168 269.271ZM74.2422 269.271C74.2354 270.126 74.9941 270.68 76.1426 270.666C77.2773 270.68 78.043 270.126 78.0566 269.271C78.043 268.403 77.2773 267.843 76.1426 267.85C74.9941 267.843 74.2354 268.403 74.2422 269.271ZM74.3926 275.848V272.348H75.4453V274.945H82.5547V275.848H74.3926ZM97.9492 269.463V270.352H89.4727V265.02H90.5527V269.463H97.9492ZM88.1055 274.426V273.523H99.2344V274.426H88.1055ZM103.896 264.76C103.89 267.18 103.097 268.889 101.066 270.297L100.355 269.613C101.935 268.561 102.7 267.398 102.864 265.648H100.656V264.76H103.896ZM102.27 275.943V271.568H110.227V275.943H102.27ZM103.322 275.068H109.174V272.443H103.322V275.068ZM103.951 270.256C105.558 268.978 106.248 267.515 106.385 265.648H104.361V264.76H107.41C107.396 267.207 106.754 269.217 104.717 270.871L103.951 270.256ZM109.146 270.994V263.967H110.227V270.994H109.146ZM122.326 263.953V276.135H121.246V263.953H122.326ZM112.756 269.135C112.763 266.551 114.048 264.903 115.859 264.896C117.664 264.903 118.97 266.551 118.963 269.135C118.97 271.726 117.664 273.366 115.859 273.359C114.048 273.366 112.763 271.726 112.756 269.135ZM113.795 269.135C113.795 271.11 114.643 272.409 115.859 272.402C117.083 272.409 117.924 271.11 117.924 269.135C117.924 267.159 117.083 265.86 115.859 265.854C114.643 265.86 113.795 267.159 113.795 269.135ZM133.975 265.744C133.981 267.829 136.36 269.682 138.473 270.078L137.98 270.98C136.142 270.557 134.214 269.251 133.428 267.467C132.635 269.251 130.714 270.55 128.875 270.98L128.383 270.078C130.488 269.675 132.847 267.836 132.854 265.744V264.814H133.975V265.744ZM127.918 274.453V273.564H139.047V274.453H127.918ZM149.711 265.197V266.701C149.718 268.492 149.718 270.146 149.205 272.607L148.125 272.512C148.398 271.343 148.528 270.331 148.597 269.388L141.18 269.791L141.029 268.902L148.645 268.588C148.665 267.945 148.672 267.323 148.672 266.701V266.1H141.357V265.197H149.711ZM140.018 274.398V273.496H151.092V274.398H140.018ZM162.152 263.967V270.639H161.086V263.967H162.152ZM152.732 265.443V264.555H158.283V267.836H153.799V269.49C155.973 269.477 157.593 269.429 159.568 269.107L159.691 269.996C157.647 270.317 155.986 270.379 153.744 270.393H152.76V266.988H157.217V265.443H152.732ZM154.25 275.943V271.254H155.33V272.703H161.086V271.254H162.152V275.943H154.25ZM155.33 275.068H161.086V273.564H155.33V275.068ZM174.061 270.529V271.404H165.652V265.006H173.924V265.908H166.746V267.713H173.664V268.574H166.746V270.529H174.061ZM164.217 274.521V273.633H175.346V274.521H164.217ZM186.734 263.953V276.107H185.695V263.953H186.734ZM176.467 269.203C176.474 266.619 177.499 264.985 179.078 264.979C180.555 264.985 181.553 266.407 181.689 268.697H183.262V264.213H184.287V275.492H183.262V269.586H181.696C181.594 271.951 180.575 273.435 179.078 273.428C177.499 273.435 176.474 271.787 176.467 269.203ZM177.479 269.203C177.465 271.172 178.094 272.416 179.078 272.402C180.069 272.416 180.698 271.172 180.691 269.203C180.698 267.228 180.069 265.99 179.078 265.99C178.094 265.99 177.465 267.228 177.479 269.203ZM195.635 265.102C195.635 265.888 196.298 266.947 197.474 267.535C198.636 266.975 199.278 265.929 199.285 265.102V264.213H200.352V265.102C200.352 266.175 201.151 267.351 202.703 267.836L202.184 268.643C200.987 268.246 200.188 267.433 199.798 266.496C199.401 267.364 198.629 268.171 197.467 268.574C196.284 268.15 195.512 267.316 195.122 266.441C194.726 267.364 193.933 268.212 192.75 268.643L192.217 267.836C193.741 267.33 194.568 266.059 194.568 265.102V264.213H195.635V265.102ZM191.93 270.926V270.037H196.934V268.738H198V270.037H203.045V270.926H191.93ZM193.133 273.031V272.156H201.609V276.107H200.529V273.031H193.133ZM207.734 265.102C207.734 265.888 208.397 266.947 209.573 267.535C210.735 266.975 211.378 265.929 211.385 265.102V264.213H212.451V265.102C212.451 266.175 213.251 267.351 214.803 267.836L214.283 268.643C213.087 268.246 212.287 267.433 211.897 266.496C211.501 267.364 210.729 268.171 209.566 268.574C208.384 268.15 207.611 267.316 207.222 266.441C206.825 267.364 206.032 268.212 204.85 268.643L204.316 267.836C205.841 267.33 206.668 266.059 206.668 265.102V264.213H207.734V265.102ZM204.029 270.926V270.037H209.033V268.738H210.1V270.037H215.145V270.926H204.029ZM205.232 273.031V272.156H213.709V276.107H212.629V273.031H205.232ZM229.145 263.953V267.125H230.977V268.014H229.145V271.309H228.078V263.953H229.145ZM220.162 270.461V264.719H221.215V266.633H224.756V264.719H225.822V270.461H220.162ZM221.188 272.826V271.951H229.145V276.107H228.078V272.826H221.188ZM221.215 269.586H224.756V267.494H221.215V269.586ZM241.764 263.953V276.107H240.684V263.953H241.764ZM232.016 266.811V265.936H235.146V264.076H236.227V265.936H239.371V266.811H232.016ZM232.699 270.598C232.692 268.957 233.957 267.809 235.721 267.809C237.464 267.809 238.735 268.957 238.729 270.598C238.735 272.245 237.464 273.387 235.721 273.387C233.957 273.387 232.692 272.245 232.699 270.598ZM233.711 270.598C233.718 271.705 234.559 272.484 235.721 272.471C236.869 272.484 237.71 271.705 237.703 270.598C237.71 269.497 236.869 268.704 235.721 268.711C234.559 268.704 233.718 269.497 233.711 270.598ZM253.59 265.184V266.4C253.576 267.891 253.576 269.559 253.139 272.006L252.045 271.883C252.503 269.559 252.503 267.856 252.51 266.4V266.072H245.018V265.184H253.59ZM243.842 274.385V273.496H248.189V269.148H249.242V273.496H254.916V274.385H243.842ZM73.5039 294.789V281.678H76.4023V282.648H74.6113V293.805H76.4023V294.789H73.5039ZM82.623 282.402C82.6162 283.551 82.4863 284.692 82.1377 285.766H84.0859V281.281H85.1113V292.492H84.0859V286.654H81.7891C81.1055 288.151 79.916 289.505 77.9609 290.578L77.3457 289.812C79.2188 288.794 80.333 287.516 80.9482 286.08L77.4824 286.436L77.3184 285.479L81.249 285.232C81.4268 284.604 81.5293 283.961 81.5703 283.291H77.9062V282.402H82.623ZM86.6426 293.107V280.953H87.668V293.107H86.6426ZM99.3848 280.953V293.135H98.3047V280.953H99.3848ZM89.8145 286.135C89.8213 283.551 91.1064 281.903 92.918 281.896C94.7227 281.903 96.0283 283.551 96.0215 286.135C96.0283 288.726 94.7227 290.366 92.918 290.359C91.1064 290.366 89.8213 288.726 89.8145 286.135ZM90.8535 286.135C90.8535 288.11 91.7012 289.409 92.918 289.402C94.1416 289.409 94.9824 288.11 94.9824 286.135C94.9824 284.159 94.1416 282.86 92.918 282.854C91.7012 282.86 90.8535 284.159 90.8535 286.135ZM111.156 282.197V283.701C111.163 285.492 111.163 287.146 110.65 289.607L109.57 289.512C109.844 288.343 109.974 287.331 110.042 286.388L102.625 286.791L102.475 285.902L110.09 285.588C110.11 284.945 110.117 284.323 110.117 283.701V283.1H102.803V282.197H111.156ZM101.463 291.398V290.496H112.537V291.398H101.463ZM124.678 286.6V287.447H113.549V286.6H124.678ZM114.889 289.225V288.418H123.283V291.002H115.982V292.164H123.68V292.943H114.902V290.264H122.217V289.225H114.889ZM114.957 282.102V281.322H123.242V283.838H116.064V284.904H123.461V285.684H114.998V283.1H122.162V282.102H114.957ZM138.678 280.967V284.973H140.51V285.875H138.678V290.072H137.611V280.967H138.678ZM129.203 283.332V282.457H132.293V280.967H133.359V282.457H136.449V283.332H129.203ZM129.9 286.271C129.894 284.891 131.069 284.002 132.826 284.002C134.562 284.002 135.738 284.891 135.752 286.271C135.738 287.639 134.562 288.521 132.826 288.514C131.069 288.521 129.894 287.639 129.9 286.271ZM130.926 286.271C130.919 287.126 131.678 287.68 132.826 287.666C133.961 287.68 134.727 287.126 134.74 286.271C134.727 285.403 133.961 284.843 132.826 284.85C131.678 284.843 130.919 285.403 130.926 286.271ZM131.076 292.848V289.348H132.129V291.945H139.238V292.848H131.076ZM151.311 280.953V287.475H150.244V280.953H151.311ZM141.562 284.344C141.556 282.683 142.902 281.541 144.748 281.555C146.594 281.541 147.927 282.683 147.934 284.344C147.927 285.998 146.594 287.14 144.748 287.133C142.902 287.14 141.556 285.998 141.562 284.344ZM142.615 284.344C142.602 285.451 143.497 286.237 144.748 286.244C145.985 286.237 146.881 285.451 146.881 284.344C146.881 283.229 145.985 282.45 144.748 282.457C143.497 282.45 142.602 283.229 142.615 284.344ZM143.436 292.943V288.09H144.502V289.566H150.244V288.09H151.311V292.943H143.436ZM144.502 292.068H150.244V290.428H144.502V292.068ZM158.365 282.156V285.137H161.018V282.156H162.002V285.574H163.834V281.227H164.859V292.506H163.834V286.477H162.002V290.059H157.34V282.156H158.365ZM158.365 289.156H161.018V286.012H158.365V289.156ZM166.268 293.107V280.953H167.307V293.107H166.268ZM172.256 281.896C173.91 281.903 175.106 283.325 175.271 285.602H177.998V280.953H179.064V293.135H177.998V286.49H175.284C175.168 288.876 173.951 290.366 172.256 290.359C170.458 290.366 169.2 288.726 169.207 286.135C169.2 283.551 170.458 281.903 172.256 281.896ZM170.232 286.135C170.239 288.11 171.06 289.409 172.256 289.402C173.445 289.409 174.279 288.11 174.279 286.135C174.279 284.159 173.445 282.86 172.256 282.854C171.06 282.86 170.239 284.159 170.232 286.135ZM191.164 288.814V293.135H190.084V289.676H182.988V288.814H191.164ZM181.662 287.297V281.869H187.24V284.016H190.084V280.953H191.164V288.117H190.084V284.904H187.24V287.297H181.662ZM182.729 286.436H186.188V282.744H182.729V286.436ZM198.725 281.746C201.261 281.753 203.168 283.079 203.168 285.082C203.168 287.105 201.261 288.432 198.725 288.418C196.188 288.432 194.281 287.105 194.281 285.082C194.281 283.079 196.188 281.753 198.725 281.746ZM193.188 291.494V290.592H204.316V291.494H193.188ZM195.307 285.082C195.293 286.559 196.763 287.543 198.725 287.543C200.673 287.543 202.129 286.559 202.129 285.082C202.129 283.626 200.673 282.614 198.725 282.621C196.763 282.614 195.293 283.626 195.307 285.082ZM211.316 282.17V283.879H214.297V280.953H215.363V293.135H214.297V288.117H211.316V290.031H205.779V282.17H211.316ZM206.846 289.17H210.277V283.018H206.846V289.17ZM211.316 287.229H214.297V284.768H211.316V287.229ZM220.162 294.789H217.264V293.805H219.055V282.648H217.264V281.678H220.162V294.789ZM235.365 282.197V283.701C235.372 285.492 235.372 287.146 234.859 289.607L233.779 289.512C234.053 288.343 234.183 287.331 234.251 286.388L226.834 286.791L226.684 285.902L234.299 285.588C234.319 284.945 234.326 284.323 234.326 283.701V283.1H227.012V282.197H235.365ZM225.672 291.398V290.496H236.746V291.398H225.672ZM248.176 280.953V293.107H247.15V280.953H248.176ZM237.785 289.703C240.424 288.138 241.75 285.943 241.955 283.4H238.305V282.512H243.021C243.021 283.708 242.83 284.863 242.413 285.943H244.594V281.281H245.619V292.492H244.594V286.818H242.017C241.285 288.233 240.109 289.484 238.414 290.482L237.785 289.703ZM262.887 280.967V284.973H264.719V285.875H262.887V290.072H261.82V280.967H262.887ZM253.412 283.332V282.457H256.502V280.967H257.568V282.457H260.658V283.332H253.412ZM254.109 286.271C254.103 284.891 255.278 284.002 257.035 284.002C258.771 284.002 259.947 284.891 259.961 286.271C259.947 287.639 258.771 288.521 257.035 288.514C255.278 288.521 254.103 287.639 254.109 286.271ZM255.135 286.271C255.128 287.126 255.887 287.68 257.035 287.666C258.17 287.68 258.936 287.126 258.949 286.271C258.936 285.403 258.17 284.843 257.035 284.85C255.887 284.843 255.128 285.403 255.135 286.271ZM255.285 292.848V289.348H256.338V291.945H263.447V292.848H255.285ZM275.52 280.953V287.475H274.453V280.953H275.52ZM265.771 284.344C265.765 282.683 267.111 281.541 268.957 281.555C270.803 281.541 272.136 282.683 272.143 284.344C272.136 285.998 270.803 287.14 268.957 287.133C267.111 287.14 265.765 285.998 265.771 284.344ZM266.824 284.344C266.811 285.451 267.706 286.237 268.957 286.244C270.194 286.237 271.09 285.451 271.09 284.344C271.09 283.229 270.194 282.45 268.957 282.457C267.706 282.45 266.811 283.229 266.824 284.344ZM267.645 292.943V288.09H268.711V289.566H274.453V288.09H275.52V292.943H267.645ZM268.711 292.068H274.453V290.428H268.711V292.068ZM73.9688 299.156V302.137H76.6211V299.156H77.6055V302.574H79.4375V298.227H80.4629V309.506H79.4375V303.477H77.6055V307.059H72.9434V299.156H73.9688ZM73.9688 306.156H76.6211V303.012H73.9688V306.156ZM81.8711 310.107V297.953H82.9102V310.107H81.8711ZM87.8594 298.896C89.5137 298.903 90.71 300.325 90.874 302.602H93.6016V297.953H94.668V310.135H93.6016V303.49H90.8877C90.7715 305.876 89.5547 307.366 87.8594 307.359C86.0615 307.366 84.8037 305.726 84.8105 303.135C84.8037 300.551 86.0615 298.903 87.8594 298.896ZM85.8359 303.135C85.8428 305.11 86.6631 306.409 87.8594 306.402C89.0488 306.409 89.8828 305.11 89.8828 303.135C89.8828 301.159 89.0488 299.86 87.8594 299.854C86.6631 299.86 85.8428 301.159 85.8359 303.135ZM106.768 305.814V310.135H105.688V306.676H98.5918V305.814H106.768ZM97.2656 304.297V298.869H102.844V301.016H105.688V297.953H106.768V305.117H105.688V301.904H102.844V304.297H97.2656ZM98.332 303.436H101.791V299.744H98.332V303.436ZM114.328 298.746C116.864 298.753 118.771 300.079 118.771 302.082C118.771 304.105 116.864 305.432 114.328 305.418C111.792 305.432 109.885 304.105 109.885 302.082C109.885 300.079 111.792 298.753 114.328 298.746ZM108.791 308.494V307.592H119.92V308.494H108.791ZM110.91 302.082C110.896 303.559 112.366 304.543 114.328 304.543C116.276 304.543 117.732 303.559 117.732 302.082C117.732 300.626 116.276 299.614 114.328 299.621C112.366 299.614 110.896 300.626 110.91 302.082ZM127.043 299.02V300.1H129.887V297.967H130.967V306.84H129.887V303.6H127.043V304.693H121.465V299.02H127.043ZM122.531 303.832H125.99V299.908H122.531V303.832ZM123.105 309.848V306.047H124.186V308.945H131.24V309.848H123.105ZM127.043 302.711H129.887V301.002H127.043V302.711ZM134.959 299.102L134.863 306.211H133.715L133.619 299.102H134.959ZM133.414 308.193C133.4 307.715 133.811 307.318 134.289 307.318C134.774 307.318 135.171 307.715 135.164 308.193C135.171 308.679 134.774 309.075 134.289 309.082C133.811 309.075 133.4 308.679 133.414 308.193ZM151.475 302.807V303.709H149.506V310.107H148.439V297.953H149.506V302.807H151.475ZM140.605 307.018V299.156H141.672V306.115C143.449 306.115 145.261 305.979 147.264 305.555L147.4 306.471C145.302 306.895 143.415 307.018 141.576 307.018H140.605ZM162.016 303.654V304.529H158.256V307.674H163.328V308.576H152.199V307.674H157.203V304.529H153.621V298.951H161.893V299.826H154.701V303.654H162.016ZM171.75 299.102V309H170.506V300.387H170.451L168.045 301.986V300.742L170.506 299.102H171.75ZM177.629 309.137C175.435 309.137 174.163 307.291 174.17 304.051C174.163 300.838 175.448 298.965 177.629 298.965C179.803 298.965 181.088 300.838 181.088 304.051C181.088 307.291 179.823 309.137 177.629 309.137ZM175.359 304.051C175.366 306.614 176.193 308.043 177.629 308.043C179.058 308.043 179.892 306.614 179.885 304.051C179.892 301.487 179.051 300.038 177.629 300.031C176.207 300.038 175.366 301.487 175.359 304.051ZM185.969 309.137C183.774 309.137 182.503 307.291 182.51 304.051C182.503 300.838 183.788 298.965 185.969 298.965C188.143 298.965 189.428 300.838 189.428 304.051C189.428 307.291 188.163 309.137 185.969 309.137ZM183.699 304.051C183.706 306.614 184.533 308.043 185.969 308.043C187.397 308.043 188.231 306.614 188.225 304.051C188.231 301.487 187.391 300.038 185.969 300.031C184.547 300.038 183.706 301.487 183.699 304.051ZM196.77 299.061V304.652H191.15V299.061H196.77ZM192.203 303.791H195.73V299.936H192.203V303.791ZM192.531 309.848V306.02H193.584V308.945H200.693V309.848H192.531ZM199.066 306.867V297.953H200.133V301.658H201.965V302.561H200.133V306.867H199.066ZM217.373 307.646V308.549H206.244V307.646H211.262V304.693H212.342V307.646H217.373ZM206.791 304.256C208.849 303.907 211.234 302.205 211.234 300.264V299.963H207.16V299.061H216.416V299.963H212.342V300.264C212.349 302.205 214.741 303.873 216.84 304.215L216.402 305.062C214.543 304.693 212.581 303.511 211.802 301.829C211.022 303.531 209.067 304.741 207.242 305.117L206.791 304.256ZM228.311 297.953V310.107H227.244V297.953H228.311ZM218.412 306.867C219.451 306.86 220.641 306.854 221.871 306.812V305.486C220.408 305.336 219.465 304.502 219.479 303.285C219.465 301.911 220.634 301.022 222.391 301.029C224.147 301.022 225.337 301.911 225.33 303.285C225.337 304.488 224.394 305.322 222.951 305.486V306.771C224.127 306.717 225.316 306.635 226.438 306.484L226.52 307.305C223.806 307.742 220.832 307.783 218.576 307.783L218.412 306.867ZM218.672 300.332V299.457H221.871V297.967H222.951V299.457H226.123V300.332H218.672ZM220.477 303.285C220.47 304.126 221.263 304.68 222.391 304.666C223.525 304.68 224.312 304.126 224.305 303.285C224.312 302.438 223.525 301.863 222.391 301.863C221.263 301.863 220.47 302.438 220.477 303.285ZM236.541 299.088C236.548 300.804 238.776 302.28 240.971 302.588L240.533 303.463C238.646 303.148 236.773 302.103 235.994 300.612C235.215 302.116 233.349 303.148 231.455 303.463L231.018 302.588C233.212 302.28 235.434 300.831 235.434 299.088V298.391H236.541V299.088ZM230.443 305.705V304.803H241.518V305.705H236.486V310.107H235.434V305.705H230.443ZM246.521 298.842C248.429 298.849 249.782 300.011 249.789 301.699C249.782 303.395 248.429 304.55 246.521 304.557C244.601 304.55 243.233 303.395 243.24 301.699C243.233 300.011 244.601 298.849 246.521 298.842ZM242.611 306.539C244.854 306.546 247.95 306.525 250.637 306.129L250.719 306.922C247.937 307.441 244.949 307.455 242.762 307.455L242.611 306.539ZM244.293 301.699C244.286 302.834 245.223 303.613 246.521 303.613C247.807 303.613 248.743 302.834 248.736 301.699C248.743 300.571 247.807 299.785 246.521 299.785C245.223 299.785 244.286 300.571 244.293 301.699ZM251.443 310.135V297.953H252.51V310.135H251.443ZM267.85 299.197V300.701C267.856 302.492 267.856 304.146 267.344 306.607L266.264 306.512C266.537 305.343 266.667 304.331 266.735 303.388L259.318 303.791L259.168 302.902L266.783 302.588C266.804 301.945 266.811 301.323 266.811 300.701V300.1H259.496V299.197H267.85ZM258.156 308.398V307.496H269.23V308.398H258.156ZM280.291 297.953V310.135H279.225V297.953H280.291ZM270.939 299.977V299.088H276.6V303.408H272.061V306.279C274.077 306.286 275.875 306.19 278.049 305.842L278.158 306.744C275.923 307.093 274.077 307.182 271.979 307.182H270.967V302.533H275.52V299.977H270.939ZM82.9102 314.953V327.107H81.8711V314.953H82.9102ZM72.6426 320.203C72.6494 317.619 73.6748 315.985 75.2539 315.979C76.7305 315.985 77.7285 317.407 77.8652 319.697H79.4375V315.213H80.4629V326.492H79.4375V320.586H77.8721C77.7695 322.951 76.751 324.435 75.2539 324.428C73.6748 324.435 72.6494 322.787 72.6426 320.203ZM73.6543 320.203C73.6406 322.172 74.2695 323.416 75.2539 323.402C76.2451 323.416 76.874 322.172 76.8672 320.203C76.874 318.228 76.2451 316.99 75.2539 316.99C74.2695 316.99 73.6406 318.228 73.6543 320.203ZM94.6133 314.953V327.135H93.5332V314.953H94.6133ZM85.043 320.135C85.0498 317.551 86.335 315.903 88.1465 315.896C89.9512 315.903 91.2568 317.551 91.25 320.135C91.2568 322.726 89.9512 324.366 88.1465 324.359C86.335 324.366 85.0498 322.726 85.043 320.135ZM86.082 320.135C86.082 322.11 86.9297 323.409 88.1465 323.402C89.3701 323.409 90.2109 322.11 90.2109 320.135C90.2109 318.159 89.3701 316.86 88.1465 316.854C86.9297 316.86 86.082 318.159 86.082 320.135ZM106.768 314.953V327.135H105.701V320.436H103.131V319.547H105.701V314.953H106.768ZM97.252 324.195V316.074H102.926V316.963H98.332V319.492H102.393V320.367H98.332V323.307C100.561 323.3 101.996 323.238 103.664 322.938L103.787 323.826C102.017 324.113 100.533 324.195 98.1816 324.195H97.252ZM118.197 314.953V319.902H120.166V320.805H118.197V327.107H117.131V314.953H118.197ZM108.873 323.949C112.011 322.391 113.72 320.046 113.966 317.168H109.434V316.266H115.053C115.046 319.704 113.433 322.842 109.475 324.797L108.873 323.949ZM131.473 318.166V319.014H129.025V320.251C130.174 320.196 131.329 320.114 132.402 319.984L132.457 320.736C129.859 321.14 126.927 321.215 124.623 321.215L124.473 320.354C125.539 320.354 126.729 320.34 127.945 320.292V319.014H125.594V315.486H131.336V316.32H126.701V318.166H131.473ZM126.373 322.924V322.062H134.439V324.879H127.467V326.096H134.877V326.971H126.4V324.059H133.387V322.924H126.373ZM133.373 321.516V314.967H134.439V321.516H133.373ZM146.115 316.088C146.122 317.804 148.351 319.28 150.545 319.588L150.107 320.463C148.221 320.148 146.348 319.103 145.568 317.612C144.789 319.116 142.923 320.148 141.029 320.463L140.592 319.588C142.786 319.28 145.008 317.831 145.008 316.088V315.391H146.115V316.088ZM140.018 322.705V321.803H151.092V322.705H146.061V327.107H145.008V322.705H140.018ZM159.746 323.115C159.739 324.188 160.32 325.33 161.476 325.986C162.638 325.269 163.253 324.052 163.246 323.115V322.445H164.299V323.115C164.292 324.366 165.215 325.61 166.773 326.15L166.24 326.943C165.023 326.513 164.176 325.665 163.752 324.646C163.376 325.631 162.631 326.567 161.51 327.039C160.327 326.588 159.575 325.699 159.213 324.681C158.775 325.658 157.941 326.506 156.779 326.943L156.232 326.15C157.771 325.576 158.693 324.277 158.707 323.115V322.445H159.746V323.115ZM155.918 318.521C155.911 316.826 157.258 315.671 159.104 315.678C160.949 315.671 162.282 316.826 162.289 318.521C162.282 320.189 160.949 321.338 159.104 321.338C157.258 321.338 155.911 320.189 155.918 318.521ZM156.971 318.521C156.957 319.649 157.853 320.442 159.104 320.449C160.341 320.442 161.236 319.649 161.236 318.521C161.236 317.387 160.341 316.58 159.104 316.594C157.853 316.58 156.957 317.387 156.971 318.521ZM164.6 321.912V314.967H165.666V321.912H164.6ZM177.137 314.953V319.766H179.174V320.668H177.137V327.135H176.07V314.953H177.137ZM168.264 324.086V316.143H173.938V317.031H169.33V323.184C171.531 323.177 173.083 323.081 174.895 322.746L175.031 323.676C173.124 324.018 171.531 324.086 169.221 324.086H168.264ZM190.904 321.092V321.967H179.83V321.092H184.82V319.684H180.91V318.795H182.742V316.238H180.869V315.35H189.852V316.238H187.979V318.795H189.811V319.684H185.887V321.092H190.904ZM181.184 326.943V323.143H189.551V326.943H181.184ZM182.25 326.068H188.498V323.977H182.25V326.068ZM183.809 318.795H186.912V316.238H183.809V318.795Z" fill="white"/>
<path d="M243.65 174.376C247.513 170.23 269.269 172.602 274.887 185.117C281.149 199.065 282.951 246.439 258.315 259.002C222.463 277.284 177.956 265.322 158.925 250.393C143.736 238.479 145.827 209.998 157.475 179.103C162.611 165.483 184.257 165.229 186.776 170.853C188.3 174.255 185.991 181.049 185.991 181.049C204.687 178.55 213.089 175.778 242.401 184.962C242.401 184.962 238.519 179.881 243.65 174.376Z" fill="#F87B7B"/>
<path d="M188.001 222C193.592 228.678 210.035 238.713 233.286 229.372M234.501 219C233.152 221.178 231.856 225.254 233.286 229.372M239.501 236.5C236.026 234.385 234.154 231.871 233.286 229.372" stroke="white" stroke-width="2" stroke-linecap="round"/>
<ellipse cx="202.102" cy="211.091" rx="3.41796" ry="3.7765" transform="rotate(5.51081 202.102 211.091)" fill="white"/>
<ellipse cx="225.072" cy="213.203" rx="3.41796" ry="3.7765" transform="rotate(5.51081 225.072 213.203)" fill="white"/>
<path fill-rule="evenodd" clip-rule="evenodd" d="M244.82 221.625C245.224 221.203 246.132 220.765 246.328 220.725C246.413 220.707 246.593 220.668 246.775 220.629C246.96 220.59 247.147 220.55 247.24 220.53C247.814 220.411 248.503 220.361 249.079 220.482C249.229 220.513 249.378 220.539 249.526 220.564C250.044 220.653 250.541 220.739 251.01 221.065C251.602 221.478 251.835 222 252.101 222.598C252.161 222.732 252.223 222.869 252.29 223.01C253.206 224.925 253.846 228.137 251.918 229.648C251.369 230.078 250.759 230.088 250.143 230.098C249.85 230.103 249.555 230.108 249.265 230.159C248.256 230.334 246.948 230.403 245.914 230.256C245.078 230.137 243.947 229.275 243.121 228.286C242.835 227.943 242.677 227.283 242.574 226.85C242.57 226.834 242.566 226.819 242.563 226.803C242.128 224.985 243.64 222.858 244.82 221.625Z" fill="#FFFCF4"/>
<path fill-rule="evenodd" clip-rule="evenodd" d="M240.433 230.802C240.606 230.64 240.996 230.472 241.079 230.456C241.116 230.449 241.193 230.434 241.271 230.419C241.35 230.404 241.43 230.389 241.471 230.381C241.716 230.335 242.012 230.316 242.259 230.363C242.323 230.375 242.387 230.385 242.45 230.394C242.672 230.429 242.885 230.461 243.086 230.587C243.34 230.746 243.44 230.947 243.554 231.176C243.58 231.228 243.606 231.281 243.635 231.335C244.027 232.071 244.302 233.307 243.475 233.888C243.24 234.053 242.979 234.057 242.715 234.061C242.589 234.063 242.463 234.065 242.338 234.084C241.906 234.152 241.345 234.178 240.902 234.122C240.544 234.076 240.059 233.745 239.705 233.364C239.582 233.232 239.515 232.978 239.471 232.812C239.469 232.806 239.468 232.8 239.466 232.794C239.279 232.094 239.928 231.276 240.433 230.802Z" fill="#FFFCF4"/>
<ellipse cx="180.119" cy="317.617" rx="104.119" ry="30.9963" fill="#E8F3FF"/>
<ellipse cx="180.121" cy="317.617" rx="65.6255" ry="20.9346" fill="#E1ECFA"/>
<rect x="125.478" y="317.953" width="109.992" height="8.76747" rx="4" fill="black" style="mix-blend-mode:overlay"/>
<path d="M51.1763 313.055C51.0117 294.889 70.1612 286.826 83.5241 293.227C87.7161 295.235 89.7882 296.105 92.525 301.015C83.5746 306.088 79.3005 311.277 78.2822 313.237C79.8061 314.184 81.9008 316.195 84.162 319.879C85.5967 322.216 87.0983 325.227 88.5638 329.066C93.3309 341.557 81.7993 341.678 75.4375 340.177C67.4191 338.705 51.341 331.22 51.1763 313.055Z" fill="#F95D5D"/>
<path d="M309.824 313.055C309.988 294.889 290.839 286.826 277.476 293.227C273.284 295.235 271.212 296.106 268.475 301.015C277.426 306.088 281.7 311.277 282.718 313.237C281.194 314.184 279.099 316.195 276.838 319.879C275.403 322.216 273.902 325.227 272.436 329.067C267.669 341.557 279.201 341.678 285.563 340.178C293.581 338.706 309.659 331.22 309.824 313.055Z" fill="#F95D5D"/>
<path d="M237.296 294.941H131.511V311.453C131.419 312.915 132.1 315.838 135.553 315.838H237.296V294.941Z" fill="#FDFDF3"/>
<path d="M158.916 218.959C149.21 222.02 128.428 233.923 122.946 257.053H202.014C206.289 247.905 210.411 245.025 211.938 244.728L158.916 218.959Z" fill="#F28D8A"/>
<path d="M122.946 257.053V265.686H131.511H202.662C201.826 262.342 201.779 259.103 202.014 257.053H122.946Z" fill="#EF6A67"/>
<path d="M131.511 294.941H237.296C228.094 294.941 221.255 290.969 216.604 286.377H131.511V265.686H122.946V317.551C122.946 321.936 126.829 323.763 128.77 324.128H231.541C236.2 324.128 237.319 320.017 237.296 317.962V315.838H135.553C132.1 315.838 131.419 312.915 131.511 311.453V294.941Z" fill="#FDEEBD"/>
<path d="M131.511 265.686V286.377H216.604C212.99 282.808 210.698 278.864 209.648 276.121C205.697 273.652 203.64 269.597 202.662 265.686H131.511Z" fill="#FFFCF4"/>
<path d="M221.861 268.869C221.05 268.045 220.095 266.964 219.1 265.686C217.277 263.343 215.321 260.34 213.872 257.053C213.378 255.931 212.942 254.776 212.591 253.602C210.77 254.406 206.234 257.948 202.662 265.686C203.64 269.597 205.697 273.652 209.648 276.121C210.698 278.864 212.99 282.808 216.604 286.377C220.392 286.911 227.892 287.038 227.586 283.277C226.467 281.703 225.424 280.115 224.533 278.574C222.301 274.716 221.019 271.156 221.861 268.869Z" fill="#F2EFE8"/>
<path d="M237.296 294.941C235.221 292.784 232.495 289.713 229.898 286.377C229.108 285.362 228.33 284.322 227.586 283.277C227.892 287.038 220.392 286.911 216.604 286.377C221.255 290.969 228.094 294.941 237.296 294.941Z" fill="#F2E4B5"/>
<path d="M211.938 244.728C210.411 245.025 206.289 247.905 202.014 257.053C201.779 259.103 201.826 262.342 202.662 265.686C206.234 257.948 210.77 254.406 212.591 253.602C211.718 250.68 211.369 247.645 211.938 244.728Z" fill="#E36562"/>
<path d="M178.074 227.962C175.751 223.18 171.916 221.518 170.288 221.284C170.31 224.91 167.516 225.28 165.483 227.191C160.032 226.34 153.365 227.095 150.42 228.075C147.989 226.294 146.998 224.125 142.943 223.521C136.169 222.512 133.67 231.812 138.22 237.222C141.859 241.549 145.421 243.442 147.422 243.151C147.422 243.151 148.19 243.813 149.148 244.527C154.897 248.811 164.769 244.307 167.993 241.339C169.828 241.775 171.973 241.397 173.955 240.924C178.575 239.819 180.976 233.939 178.074 227.962Z" fill="#FFF8E4"/>
<path d="M170.269 220.102C171.993 226.819 167.598 233.752 160.452 235.586C153.306 237.421 146.115 233.462 144.391 226.745C142.666 220.028 146.51 213.513 154.739 213.331C161.453 209.401 168.544 213.385 170.269 220.102Z" fill="url(#paint1_linear_361_6669)"/>
<path d="M170.269 220.102C171.993 226.819 167.598 233.752 160.452 235.586C153.306 237.421 146.115 233.462 144.391 226.745C142.666 220.028 146.51 213.513 154.739 213.331C161.453 209.401 168.544 213.385 170.269 220.102Z" fill="url(#paint2_linear_361_6669)" fill-opacity="0.2"/>
<path d="M153.177 215.844C153.85 216.512 155.798 217.276 158.202 214.978" stroke="#525252" stroke-opacity="0.3" stroke-linecap="round" style="mix-blend-mode:hard-light"/>
<path d="M155.886 196.326C146.405 193.632 151.319 206.167 155.969 216.401C157.029 216.128 152.418 207.067 151.575 202.555C150.521 196.915 160.986 197.775 155.886 196.326Z" fill="#A02B2B"/>
<path d="M136.884 233.878C138.601 228.812 142.394 226.615 144.075 226.15C144.607 229.741 147.611 229.706 150.05 231.305C155.67 229.679 162.819 229.468 166.076 230.014C168.369 227.902 169.081 225.614 173.267 224.433C180.26 222.461 184.321 231.305 180.35 237.312C177.174 242.118 173.706 244.503 171.55 244.503C171.55 244.503 170.841 245.268 169.94 246.113C164.531 251.178 153.426 248.141 149.57 245.667C147.7 246.362 145.379 246.297 143.216 246.113C138.172 245.683 134.738 240.21 136.884 233.878Z" fill="white"/>
<path fill-rule="evenodd" clip-rule="evenodd" d="M139.526 203.221C139.54 207.191 138.247 214.371 148.197 216.107C142.02 217.037 139.66 222.02 139.528 228.411C139.376 223.587 140.01 218.016 129.877 216.489C139.602 215.687 139.468 207.3 139.526 203.221Z" fill="#FBE750" stroke="#FBE750" stroke-miterlimit="1.5" stroke-linecap="round" stroke-linejoin="round"/>
<path fill-rule="evenodd" clip-rule="evenodd" d="M128.35 202.458C130.246 204.403 131.748 206.661 133.694 208.564L128.35 202.458Z" fill="#FBE750"/>
<path d="M128.35 202.458C130.246 204.403 131.748 206.661 133.694 208.564" stroke="#FBE750" stroke-miterlimit="1.5" stroke-linecap="round" stroke-linejoin="round"/>
<path fill-rule="evenodd" clip-rule="evenodd" d="M144.38 210.091C145.765 208.958 147.074 207.667 148.197 206.274L144.38 210.091Z" fill="#FBE750"/>
<path d="M144.38 210.091C145.765 208.958 147.074 207.667 148.197 206.274" stroke="#FBE750" stroke-miterlimit="1.5" stroke-linecap="round" stroke-linejoin="round"/>
<path fill-rule="evenodd" clip-rule="evenodd" d="M133.693 223.068C132.076 224.493 130.575 226.079 129.113 227.648L133.693 223.068Z" fill="#FBE750"/>
<path d="M133.693 223.068C132.076 224.493 130.575 226.079 129.113 227.648" stroke="#FBE750" stroke-miterlimit="1.5" stroke-linecap="round" stroke-linejoin="round"/>
<path fill-rule="evenodd" clip-rule="evenodd" d="M144.38 223.832C146.275 225.777 147.778 228.035 149.723 229.938L144.38 223.832Z" fill="#FBE750"/>
<path d="M144.38 223.832C146.275 225.777 147.778 228.035 149.723 229.938" stroke="#FBE750" stroke-miterlimit="1.5" stroke-linecap="round" stroke-linejoin="round"/>
</g>
<defs>
<linearGradient id="paint0_linear_361_6669" x1="179.5" y1="29" x2="179.5" y2="330" gradientUnits="userSpaceOnUse">
<stop stop-color="#A989CF"/>
<stop offset="1" stop-color="#A989CF" stop-opacity="0"/>
</linearGradient>
<linearGradient id="paint1_linear_361_6669" x1="165.753" y1="215.053" x2="148.578" y2="236.045" gradientUnits="userSpaceOnUse">
<stop stop-color="#F94343"/>
<stop offset="1" stop-color="#E03C3C"/>
</linearGradient>
<linearGradient id="paint2_linear_361_6669" x1="163.845" y1="217.725" x2="163.845" y2="228.793" gradientUnits="userSpaceOnUse">
<stop stop-color="white" stop-opacity="0"/>
<stop offset="1" stop-color="white"/>
</linearGradient>
<clipPath id="clip0_361_6669">
<rect width="358" height="358" fill="white"/>
</clipPath>
</defs>
</svg>
