<svg width="94" height="73" viewBox="0 0 94 73" fill="none" xmlns="http://www.w3.org/2000/svg">
<path d="M25.9808 5.92949C23.3624 3.11966 8.61716 4.72739 4.80948 13.2093C0.56546 22.6633 -0.656139 54.7716 16.0416 63.2865C40.341 75.6777 70.5058 67.5701 83.405 57.4515C93.699 49.3765 92.2819 30.0729 84.3871 9.13344C80.9066 -0.097965 66.2354 -0.270075 64.528 3.54177C63.4952 5.84741 65.0602 10.4526 65.0602 10.4526C52.3884 8.75845 46.6939 6.88019 26.8272 13.1047C26.8272 13.1047 29.4581 9.66092 25.9808 5.92949Z" fill="#F87B7B"/>
<ellipse cx="26.7718" cy="35.9221" rx="7.11656" ry="5.42214" fill="#F95D5D"/>
<ellipse cx="66.7601" cy="34.5657" rx="7.11656" ry="5.42214" fill="#F95D5D"/>
<path fill-rule="evenodd" clip-rule="evenodd" d="M66.197 34.4826C66.032 33.9918 65.5499 33.8156 65.1203 34.089C64.7475 34.3263 64.3667 34.5708 63.9782 34.8204C60.1 37.311 55.4442 40.301 50.1588 41.5596C44.3941 42.9323 37.842 42.2461 30.8072 36.3439C30.4542 36.0478 29.9287 36.1948 29.6333 36.6722C29.338 37.1496 29.3848 37.7768 29.7377 38.0729C37.0991 44.2491 43.976 45.441 50.1588 43.9687C55.7249 42.6433 60.7144 39.0806 64.5726 36.6003C64.9653 36.3479 65.3472 36.1024 65.718 35.8664C66.1476 35.593 66.3621 34.9734 66.197 34.4826Z" fill="white"/>
<ellipse cx="2.31659" cy="2.55959" rx="2.31659" ry="2.55959" transform="matrix(-0.999092 0.0425967 0.0425967 0.999092 56.374 28.5752)" fill="white"/>
<ellipse cx="2.31659" cy="2.55959" rx="2.31659" ry="2.55959" transform="matrix(-0.999092 0.0425967 0.0425967 0.999092 40.751 29.1709)" fill="white"/>
</svg>
