<svg viewBox="0 0 80 80" fill="none" xmlns="http://www.w3.org/2000/svg">
<rect width="80" height="80" rx="40" fill="#F6F6F6"/>
<path d="M51.8621 27.0762C52.6752 25.4001 60.5427 25.4242 63.0146 29.0101C65.7697 33.0069 65.1376 49.615 60.7333 51.0853C47.1562 55.618 28.5258 55.1144 20.9463 51.0853C14.8977 47.87 14.8592 39.4089 18.3403 30.0416C19.875 25.9118 27.9972 25.4001 29.106 27.0117C29.7766 27.9865 29.106 30.0416 29.106 30.0416C36.0553 28.9255 40.588 27.9182 51.8621 30.0416C51.8621 30.0416 51.3567 28.1181 51.8621 27.0762Z" fill="#F95D5D"/>
<path d="M48.1514 40.8496C46.6519 42.3248 29.5208 46.0491 28.6674 39.1557M48.1514 40.8496C47.0764 38.8399 47.8398 37.2469 48.3559 36.7016M48.1514 40.8496C48.4387 41.6383 49.5244 43.2654 51.5692 43.464" stroke="white" stroke-linecap="round" stroke-linejoin="round"/>
<circle cx="35.7949" cy="37.0297" r="1.00727" fill="white"/>
<circle cx="41.8393" cy="37.0297" r="1.00727" fill="white"/>
</svg>
