<svg width="300" height="300" viewBox="0 0 300 300" fill="none" xmlns="http://www.w3.org/2000/svg">
<rect x="6" width="18" height="300" fill="url(#paint0_linear_340_8996)" fill-opacity="0.5"/>
<rect x="33" width="18" height="300" fill="url(#paint1_linear_340_8996)" fill-opacity="0.5"/>
<rect x="60" width="18" height="300" fill="url(#paint2_linear_340_8996)" fill-opacity="0.5"/>
<rect x="87" width="18" height="300" fill="url(#paint3_linear_340_8996)" fill-opacity="0.5"/>
<rect x="114" width="18" height="300" fill="url(#paint4_linear_340_8996)" fill-opacity="0.5"/>
<rect x="141" width="18" height="300" fill="url(#paint5_linear_340_8996)" fill-opacity="0.5"/>
<rect x="168" width="18" height="300" fill="url(#paint6_linear_340_8996)" fill-opacity="0.5"/>
<rect x="195" width="18" height="300" fill="url(#paint7_linear_340_8996)" fill-opacity="0.5"/>
<rect x="222" width="18" height="300" fill="url(#paint8_linear_340_8996)" fill-opacity="0.5"/>
<rect x="249" width="18" height="300" fill="url(#paint9_linear_340_8996)" fill-opacity="0.5"/>
<rect x="276" width="18" height="300" fill="url(#paint10_linear_340_8996)" fill-opacity="0.5"/>
<path d="M213.289 72.2383C216.927 67.7703 240.691 67.5735 248.344 79.0756C256.874 91.8958 261.051 136.061 236.085 151.086C199.752 172.951 154.037 168.064 131.61 155.759C113.713 145.94 112.338 118.054 120.962 86.7268C124.764 72.916 148.075 70.1827 151.508 75.3525C153.585 78.4795 151.961 85.34 151.961 85.34C171.804 80.7659 180.512 77.1107 213.292 82.6578C213.292 82.6578 208.458 78.1717 213.289 72.2383Z" fill="#F95D5D"/>
<path d="M152 138C161.5 131.5 189 123.5 192.86 132.344" stroke="white" stroke-width="2" stroke-linecap="round"/>
<path d="M173 114L180 122" stroke="white" stroke-width="2" stroke-linecap="round" stroke-linejoin="round"/>
<path d="M153 114L160 122" stroke="white" stroke-width="2" stroke-linecap="round" stroke-linejoin="round"/>
<path d="M180 114L173 122" stroke="white" stroke-width="2" stroke-linecap="round" stroke-linejoin="round"/>
<path d="M160 114L153 122" stroke="white" stroke-width="2" stroke-linecap="round" stroke-linejoin="round"/>
<path d="M171.493 178.633C179.183 212.955 158.194 246.844 124.613 254.327C91.0321 261.809 57.5761 240.052 49.8867 205.73L171.493 178.633Z" fill="#A989CF"/>
<ellipse cx="62.2945" cy="36.6673" rx="62.2945" ry="36.6673" transform="matrix(0.976062 -0.21749 0.218619 0.97581 41.8701 169.95)" fill="#9272B8"/>
<path d="M118.706 227.962C97.1585 232.763 76.7516 230.386 63.7233 222.845C61.466 218.562 59.0796 208.644 67.593 203.242C78.2347 196.488 79.4536 207.217 98.1638 190.699C109.966 180.279 104.549 160.79 138.409 180.472C150.212 185.103 153.501 180.404 159.692 178.633C165.884 176.863 170.365 183.109 171.832 186.454C169.58 203.912 147.902 221.456 118.706 227.962Z" fill="#C9B27C"/>
<path d="M179.373 188.972C194.078 181.716 207.3 188.136 212.072 192.252C236.646 214.25 216.522 241.843 206.074 249.755C197.715 256.084 188.531 252.392 184.984 249.755C176.47 253.305 170.859 251.234 169.118 249.755C168.666 251.684 165.674 254.115 157.315 248.404C148.957 242.692 157.832 225.57 163.314 217.723C157.703 209.426 160.992 198.041 179.373 188.972Z" fill="#F95D5D"/>
<path fill-rule="evenodd" clip-rule="evenodd" d="M129.018 202.957C128.498 195.551 124.585 187.11 119.023 178.191C113.623 169.532 105.691 163.567 98.0976 160.411C94.3024 158.834 90.6317 157.975 87.4461 157.813C84.2384 157.65 81.6492 158.198 79.8922 159.287C78.1352 160.377 76.4975 162.451 75.2258 165.392C73.9629 168.313 73.1125 171.977 72.853 176.069C72.3339 184.256 74.1904 193.989 79.5907 202.649C85.1523 211.567 91.0138 218.8 97.4444 222.54C100.628 224.392 103.924 225.371 107.393 225.298C110.865 225.225 114.622 224.096 118.722 221.553C122.822 219.01 125.499 216.148 127.099 213.075C128.699 210.005 129.276 206.624 129.018 202.957ZM119.539 222.864C136.695 212.223 131.512 195.294 120.338 177.376C109.164 159.458 87.5468 152.722 79.0747 157.976C70.6026 163.231 67.1023 185.546 78.2762 203.464C89.4502 221.382 102.384 233.504 119.539 222.864Z" fill="#D9D9D9"/>
<path fill-rule="evenodd" clip-rule="evenodd" d="M123.798 206.421C122.346 199.5 118.085 191.169 112.511 182.231C107.048 173.472 99.9922 166.875 93.6346 162.927C90.4525 160.951 87.4953 159.669 85.0439 159.091C82.5327 158.498 80.832 158.704 79.8921 159.287C78.9522 159.87 78.0149 161.3 77.4375 163.809C76.8738 166.257 76.7186 169.469 77.0887 173.189C77.8281 180.622 80.641 189.85 86.1034 198.609C91.6776 207.548 97.2856 215.043 102.868 219.403C105.645 221.572 108.329 222.895 110.921 223.294C113.474 223.688 116.056 223.206 118.722 221.553C121.387 219.9 122.963 217.803 123.737 215.345C124.524 212.85 124.521 209.864 123.798 206.421ZM119.539 222.864C131.382 215.518 124.999 199.334 113.825 181.416C102.651 163.497 84.9231 154.349 79.0747 157.976C73.2262 161.604 73.6149 181.506 84.7889 199.425C95.9629 217.343 107.696 230.209 119.539 222.864Z" fill="#D9D9D9"/>
<path fill-rule="evenodd" clip-rule="evenodd" d="M118.4 210.046C115.941 203.614 111.309 195.39 105.726 186.439C100.204 177.583 94.0734 170.293 88.9719 165.477C86.4143 163.063 84.1606 161.314 82.408 160.295C81.5265 159.783 80.838 159.494 80.3456 159.375C80.1216 159.32 79.9828 159.311 79.9071 159.311C79.8727 159.379 79.82 159.507 79.77 159.732C79.66 160.225 79.615 160.969 79.686 161.984C79.8273 164.002 80.4039 166.791 81.4441 170.146C83.5192 176.839 87.3648 185.546 92.8875 194.402C98.4696 203.353 103.818 211.133 108.515 216.177C110.872 218.708 112.971 220.446 114.766 221.331C116.524 222.199 117.757 222.151 118.722 221.553C119.686 220.955 120.274 219.873 120.271 217.916C120.269 215.92 119.634 213.274 118.4 210.046ZM119.539 222.864C125.848 218.951 118.215 203.542 107.041 185.624C95.8669 167.705 82.1903 156.044 79.0747 157.977C75.9592 159.909 80.3991 177.299 91.5731 195.217C102.747 213.135 113.23 226.777 119.539 222.864Z" fill="#D9D9D9"/>
<path d="M36.7042 104.646C34.8983 101.75 35.7883 97.9424 38.6921 96.1414L41.3209 94.5109C44.2247 92.7099 48.0426 93.5975 49.8485 96.4933L84.422 151.934C86.2279 154.83 85.3379 158.637 82.4341 160.438L79.8053 162.069C76.9016 163.87 73.0836 162.982 71.2777 160.086L36.7042 104.646Z" fill="#BABABA"/>
<path d="M70.5189 99.1703C66.3267 93.3815 53.2599 84.0036 34.5305 92.8026C11.1187 103.801 11.3122 137.184 27.952 139.499C28.4035 145.095 32.4409 155.785 44.9788 153.778C47.6231 159.31 55.6913 168.138 68.5388 159.648C69.739 158.653 69.352 156.53 68.5388 155.402C67.2213 153.576 62.7342 138.229 66.7974 137.264C68.8099 136.374 73.2992 135.127 75.1566 137.264C77.0141 139.401 80.0069 144.749 81.3482 147.075C82.8961 146.882 89.4806 142.008 87.3523 130.623C85.2239 119.238 74.582 103.314 70.5189 99.1703Z" fill="#F95D5D"/>
<path d="M113.876 227.177C102.068 229.808 90.8857 228.505 83.7465 224.373C82.5095 222.026 81.2019 216.592 85.867 213.631C91.6985 209.93 92.3664 215.81 102.619 206.758C109.087 201.048 106.118 190.368 124.673 201.154C131.14 203.691 132.943 201.116 136.335 200.146C139.728 199.176 142.184 202.599 142.988 204.432C141.754 213.998 129.875 223.612 113.876 227.177Z" fill="#C9B27C"/>
<path d="M133.766 159.808C132.435 156.695 132.577 154.818 134.252 153.432C137.822 150.489 138.054 148.534 135.395 143.922C133.361 140.398 133.042 138.978 133.904 137.065C135.068 134.458 131.302 135.957 130.67 138.754C130.208 140.799 130.541 142.051 132.321 144.901C135.059 149.297 135.069 150.688 132.413 152.786C129.209 155.294 128.777 158.157 131.01 161.873C132.138 163.793 135.029 162.788 133.766 159.808Z" fill="#C9B27C"/>
<path d="M150.146 153.251C149.988 153.836 149.873 155.224 149.885 156.309C149.937 159.297 149.753 159.578 147.522 160.01C143.346 160.807 140.206 164.367 140.989 167.43C141.636 170.046 143.745 169.333 143.679 166.513C143.611 163.512 144.456 162.352 147.162 161.781C151.358 160.899 153.062 158.898 152.909 155.084C152.77 151.741 153.313 150.789 155.261 150.938C156.97 151.067 159.093 149.879 158.312 149.224C156.402 147.595 150.931 150.301 150.146 153.251Z" fill="#C9B27C"/>
<path d="M163.668 169.05C162.231 170.762 162.258 170.76 160.05 169.701C156.287 167.9 151.405 169.692 149.853 173.433C148.474 176.755 151.359 175.849 152.19 173.73C153.296 170.946 154.943 170.357 157.668 171.747C160.044 172.972 162.181 172.743 164.324 170.983C165.22 170.25 165.888 169.454 166.579 168.6C168.039 166.83 169.211 167.66 170.854 169.089C173.793 171.657 176.426 169.77 173.534 167.267C170.342 164.512 166.957 165.129 163.668 169.05Z" fill="#C9B27C"/>
<path d="M62.5825 182.902C62.4698 179.519 61.5463 177.878 59.4428 177.332C54.9621 176.177 53.9237 174.504 54.3799 169.2C54.7309 165.146 54.419 163.725 52.8276 162.357C50.6694 160.487 54.7161 160.251 56.4731 162.518C57.7568 164.175 57.9857 165.449 57.5794 168.786C56.9607 173.927 57.5402 175.192 60.8346 175.968C64.7996 176.883 66.4028 179.294 65.9538 183.606C65.7441 185.823 62.6997 186.136 62.5825 182.902Z" fill="#C9B27C"/>
<path d="M44.9665 183.898C45.3568 184.361 46.0488 185.569 46.4977 186.557C47.715 189.286 48.0007 189.463 50.2049 188.909C54.3254 187.863 58.6777 189.759 59.2652 192.866C59.787 195.51 57.5742 195.756 56.44 193.173C55.2309 190.426 53.9744 189.733 51.281 190.362C47.106 191.339 44.7152 190.248 43.2388 186.728C41.95 183.64 41.0548 183.008 39.3534 183.968C37.8592 184.808 35.4327 184.631 35.863 183.706C36.9042 181.422 43.0056 181.558 44.9665 183.898Z" fill="#C9B27C"/>
<path d="M39.4065 203.935C41.4334 204.878 41.4073 204.888 42.9596 202.993C45.6063 199.769 50.7877 199.325 53.7774 202.057C56.4338 204.483 53.4357 204.883 51.7861 203.315C49.6051 201.262 47.8638 201.425 45.9839 203.838C44.3501 205.954 42.3167 206.652 39.6302 205.964C38.508 205.68 37.5657 205.241 36.5783 204.76C34.5063 203.774 33.7956 205.023 32.9128 207.013C31.3375 210.584 28.1535 209.989 29.7135 206.497C31.439 202.65 34.7659 201.776 39.4065 203.935Z" fill="#C9B27C"/>
<path fill-rule="evenodd" clip-rule="evenodd" d="M244.967 52.1138C239.916 50.3296 233.869 51.0819 230.195 57.0992C227.466 61.5932 227.482 61.645 232.419 63.0665C236.585 64.2604 236.274 64.3585 237.765 61.4947C239.034 59.057 240.435 58.0311 242.79 58.0437C248.006 58.0944 248.098 65.1615 247.192 66.9003C246.199 68.8095 244.311 69.1054 239.368 68.1136C235.324 67.3085 233.444 68.1718 231.418 71.7318C230.825 72.788 230.262 73.5782 230.072 73.6525C229.206 74.0252 230.736 75.5801 232.785 76.4301C238.942 78.9631 238.83 78.9698 239.659 76.5852C240.174 75.0979 240.416 74.9643 242.036 75.2658C245.944 75.9999 248.882 75.0594 251.679 72.1824C258.934 64.7795 256.008 56.0416 244.967 52.1138ZM230.427 77.6724C226.631 77.473 224.56 81.1612 226.984 83.788C231.815 89.0327 239.039 88.3082 237.677 82.7246C237.292 81.0507 232.583 77.7763 230.427 77.6724Z" fill="#FBE750"/>
<path fill-rule="evenodd" clip-rule="evenodd" d="M207.261 29.304C200.648 31.0853 194.826 36.2595 195.317 45.259C195.7 51.9698 195.754 52.0125 201.983 49.932C207.237 48.1699 206.98 48.4986 206.475 44.4022C206.045 40.9154 206.776 38.82 209.266 37.1266C214.796 33.3994 220.014 40.7761 220.321 43.2632C220.658 45.9941 218.884 47.6734 212.959 50.2116C208.117 52.2943 206.763 54.5654 207.209 59.7831C207.35 61.3253 207.33 62.5655 207.183 62.7816C206.541 63.8015 209.28 64.33 212.054 63.7402C220.373 61.9464 220.26 62.0346 219.406 58.9219C218.87 56.983 219.028 56.6663 220.953 55.81C225.6 53.7513 228.012 50.6317 228.874 45.5746C231.15 32.5205 221.736 25.4387 207.261 29.304ZM210.471 66.7575C206.328 69.2985 206.82 74.6839 211.276 75.6935C220.165 77.7159 227.247 71.7179 221.767 66.8243C220.148 65.3407 212.816 65.3046 210.471 66.7575Z" fill="#FBE750"/>
<defs>
<linearGradient id="paint0_linear_340_8996" x1="15" y1="0" x2="15" y2="300" gradientUnits="userSpaceOnUse">
<stop stop-color="#A989CF" stop-opacity="0.3"/>
<stop offset="1" stop-color="#737373" stop-opacity="0"/>
</linearGradient>
<linearGradient id="paint1_linear_340_8996" x1="42" y1="0" x2="42" y2="300" gradientUnits="userSpaceOnUse">
<stop stop-color="#A989CF" stop-opacity="0.3"/>
<stop offset="1" stop-color="#737373" stop-opacity="0"/>
</linearGradient>
<linearGradient id="paint2_linear_340_8996" x1="69" y1="0" x2="69" y2="300" gradientUnits="userSpaceOnUse">
<stop stop-color="#A989CF" stop-opacity="0.3"/>
<stop offset="1" stop-color="#737373" stop-opacity="0"/>
</linearGradient>
<linearGradient id="paint3_linear_340_8996" x1="96" y1="0" x2="96" y2="300" gradientUnits="userSpaceOnUse">
<stop stop-color="#A989CF" stop-opacity="0.3"/>
<stop offset="1" stop-color="#737373" stop-opacity="0"/>
</linearGradient>
<linearGradient id="paint4_linear_340_8996" x1="123" y1="0" x2="123" y2="300" gradientUnits="userSpaceOnUse">
<stop stop-color="#A989CF" stop-opacity="0.3"/>
<stop offset="1" stop-color="#737373" stop-opacity="0"/>
</linearGradient>
<linearGradient id="paint5_linear_340_8996" x1="150" y1="0" x2="150" y2="300" gradientUnits="userSpaceOnUse">
<stop stop-color="#A989CF" stop-opacity="0.3"/>
<stop offset="1" stop-color="#737373" stop-opacity="0"/>
</linearGradient>
<linearGradient id="paint6_linear_340_8996" x1="177" y1="0" x2="177" y2="300" gradientUnits="userSpaceOnUse">
<stop stop-color="#A989CF" stop-opacity="0.3"/>
<stop offset="1" stop-color="#737373" stop-opacity="0"/>
</linearGradient>
<linearGradient id="paint7_linear_340_8996" x1="204" y1="0" x2="204" y2="300" gradientUnits="userSpaceOnUse">
<stop stop-color="#A989CF" stop-opacity="0.3"/>
<stop offset="1" stop-color="#737373" stop-opacity="0"/>
</linearGradient>
<linearGradient id="paint8_linear_340_8996" x1="231" y1="0" x2="231" y2="300" gradientUnits="userSpaceOnUse">
<stop stop-color="#A989CF" stop-opacity="0.3"/>
<stop offset="1" stop-color="#737373" stop-opacity="0"/>
</linearGradient>
<linearGradient id="paint9_linear_340_8996" x1="258" y1="0" x2="258" y2="300" gradientUnits="userSpaceOnUse">
<stop stop-color="#A989CF" stop-opacity="0.3"/>
<stop offset="1" stop-color="#737373" stop-opacity="0"/>
</linearGradient>
<linearGradient id="paint10_linear_340_8996" x1="285" y1="0" x2="285" y2="300" gradientUnits="userSpaceOnUse">
<stop stop-color="#A989CF" stop-opacity="0.3"/>
<stop offset="1" stop-color="#737373" stop-opacity="0"/>
</linearGradient>
</defs>
</svg>
