<svg width="300" height="300" viewBox="0 0 300 300" fill="none" xmlns="http://www.w3.org/2000/svg">
<path fill-rule="evenodd" clip-rule="evenodd" d="M150 0C67.1573 0 0 67.1573 0 150C0 232.843 67.1573 300 150 300C232.843 300 300 232.843 300 150C300 67.1573 232.843 0 150 0ZM150 20.1342C78.2771 20.1342 20.1342 78.2771 20.1342 150C20.1342 221.723 78.2771 279.866 150 279.866C221.723 279.866 279.866 221.723 279.866 150C279.866 78.2771 221.723 20.1342 150 20.1342Z" fill="#FCF0ED"/>
<path fill-rule="evenodd" clip-rule="evenodd" d="M150 33.2215C85.505 33.2215 33.2215 85.505 33.2215 150C33.2215 214.495 85.505 266.779 150 266.779C214.495 266.779 266.779 214.495 266.779 150C266.779 85.505 214.495 33.2215 150 33.2215ZM150 53.3557C96.6248 53.3557 53.3557 96.6248 53.3557 150C53.3557 203.375 96.6248 246.644 150 246.644C203.375 246.644 246.644 203.375 246.644 150C246.644 96.6248 203.375 53.3557 150 53.3557Z" fill="#FDE0DF"/>
<path fill-rule="evenodd" clip-rule="evenodd" d="M150 70.4698C106.077 70.4698 70.4698 106.077 70.4698 150C70.4698 193.923 106.077 229.53 150 229.53C193.923 229.53 229.53 193.923 229.53 150C229.53 106.077 193.923 70.4698 150 70.4698ZM150 90.604C117.197 90.604 90.604 117.197 90.604 150C90.604 182.803 117.197 209.396 150 209.396C182.804 209.396 209.396 182.803 209.396 150C209.396 117.197 182.804 90.604 150 90.604Z" fill="#FDD1CF"/>
<path fill-rule="evenodd" clip-rule="evenodd" d="M150 107.718C126.648 107.718 107.718 126.648 107.718 150C107.718 173.352 126.648 192.282 150 192.282C173.352 192.282 192.282 173.352 192.282 150C192.282 126.648 173.352 107.718 150 107.718ZM150 127.852C137.768 127.852 127.852 137.768 127.852 150C127.852 162.232 137.768 172.148 150 172.148C162.232 172.148 172.148 162.232 172.148 150C172.148 137.768 162.232 127.852 150 127.852Z" fill="#FDC2C0"/>
<path d="M213.29 72.2383C216.928 67.7703 240.691 67.5735 248.345 79.0756C256.875 91.8958 261.052 136.061 236.085 151.086C199.753 172.951 154.037 168.064 131.611 155.759C113.714 145.94 112.339 118.054 120.962 86.7268C124.764 72.916 148.075 70.1827 151.509 75.3525C153.586 78.4795 151.962 85.34 151.962 85.34C171.805 80.7659 180.512 77.1107 213.293 82.6578C213.293 82.6578 208.459 78.1717 213.29 72.2383Z" fill="#F95D5D"/>
<path fill-rule="evenodd" clip-rule="evenodd" d="M187.089 127.343C188.545 126.449 190.268 126.345 192.409 126.986C192.431 126.992 192.454 127 192.476 127.008C195.4 128.082 197.468 129.637 198.665 131.478C199.873 133.337 200.141 135.416 199.57 137.367C198.437 141.238 194.168 144.279 188.285 144.686C183.517 145.016 180.547 143.426 179.043 140.974C178.086 139.415 177.799 137.624 177.926 136.016C172.741 137.955 166.7 139.605 161.396 139.883C158.396 140.041 155.538 139.765 153.185 138.779C150.79 137.774 148.93 136.033 148.034 133.364C147.831 132.758 148.159 132.102 148.767 131.899C149.375 131.696 150.033 132.023 150.236 132.629C150.893 134.587 152.223 135.863 154.085 136.644C155.988 137.442 158.454 137.719 161.274 137.571C166.854 137.278 173.453 135.344 178.892 133.158C180.593 131.747 182.36 130.66 184.252 130.543C185.031 129.253 185.901 128.072 187.089 127.343ZM186.924 130.697C187.496 130.833 188.084 131.055 188.636 131.399C190.03 132.266 191.046 133.815 191.046 136.199C191.046 136.838 190.526 137.357 189.885 137.357C189.243 137.357 188.724 136.838 188.724 136.199C188.724 134.569 188.083 133.784 187.407 133.363C186.649 132.892 185.685 132.787 185.038 132.855C184.967 132.862 184.896 132.863 184.825 132.858C183.631 132.765 182.274 133.386 180.493 134.842C180.051 136.287 180.088 138.241 181.023 139.766C181.96 141.292 183.975 142.664 188.124 142.376C193.388 142.012 196.568 139.361 197.341 136.719C197.723 135.414 197.558 134.032 196.716 132.737C195.867 131.43 194.279 130.144 191.708 129.193C190 128.689 189.022 128.875 188.306 129.314C187.825 129.609 187.385 130.062 186.924 130.697Z" fill="white"/>
<ellipse cx="156.972" cy="117.702" rx="3.33279" ry="3.32351" fill="white"/>
<ellipse cx="176.959" cy="117.61" rx="3.33279" ry="3.32351" fill="white"/>
<path d="M171.493 178.634C179.183 212.955 158.194 246.844 124.613 254.327C91.0321 261.809 57.5761 240.052 49.8867 205.73L171.493 178.634Z" fill="#A989CF"/>
<ellipse cx="62.2945" cy="36.6673" rx="62.2945" ry="36.6673" transform="matrix(0.976062 -0.21749 0.218619 0.97581 41.8707 169.95)" fill="#9272B8"/>
<path d="M118.706 227.962C97.1593 232.763 76.7523 230.386 63.724 222.845C61.4667 218.562 59.0804 208.644 67.5937 203.242C78.2355 196.488 79.4543 207.217 98.1646 190.699C109.967 180.279 104.55 160.79 138.41 180.472C150.212 185.103 153.502 180.404 159.693 178.633C165.885 176.863 170.366 183.109 171.833 186.454C169.58 203.912 147.903 221.456 118.706 227.962Z" fill="#FFEEC2"/>
<ellipse cx="10.254" cy="8.87682" rx="10.254" ry="8.87682" transform="matrix(0.987129 -0.159923 0.160773 0.986992 137.115 153.09)" fill="#FFEEC2"/>
<ellipse cx="4.82929" cy="4.05907" rx="4.82929" ry="4.05907" transform="matrix(0.626281 -0.779598 0.781256 0.624211 101.26 157.321)" fill="#FFEEC2"/>
<path d="M55.7422 200.976C54.7256 202.663 50.5688 202.277 47.4721 201.588C42.055 200.383 41.0084 198.226 43.2158 194.558C44.4933 192.436 49.1969 191.484 52.4028 193.406C55.6087 195.327 57.1038 198.716 55.7422 200.976Z" fill="#FFEEC2"/>
<path d="M179.374 188.972C194.079 181.716 207.3 188.136 212.073 192.252C236.646 214.25 216.523 241.843 206.075 249.754C197.716 256.083 188.532 252.392 184.985 249.754C176.471 253.305 170.86 251.234 169.119 249.754C168.667 251.684 165.675 254.115 157.316 248.404C148.958 242.692 157.832 225.57 163.315 217.723C157.703 209.426 160.993 198.041 179.374 188.972Z" fill="#F95D5D"/>
<path fill-rule="evenodd" clip-rule="evenodd" d="M129.019 202.957C128.499 195.551 124.586 187.11 119.024 178.191C113.624 169.532 105.691 163.567 98.0984 160.411C94.3032 158.834 90.6326 157.975 87.4469 157.813C84.2393 157.649 81.65 158.197 79.893 159.287C78.136 160.377 76.4983 162.451 75.2267 165.392C73.9638 168.313 73.1133 171.976 72.8539 176.069C72.3348 184.256 74.1913 193.989 79.5915 202.649C85.1531 211.567 91.0147 218.8 97.4453 222.54C100.629 224.392 103.925 225.371 107.394 225.298C110.865 225.225 114.623 224.096 118.723 221.553C122.822 219.01 125.5 216.148 127.1 213.075C128.7 210.005 129.277 206.624 129.019 202.957ZM119.54 222.864C136.696 212.223 131.513 195.294 120.339 177.376C109.165 159.458 87.5477 152.722 79.0756 157.976C70.6035 163.231 67.1031 185.546 78.2771 203.464C89.4511 221.382 102.384 233.504 119.54 222.864Z" fill="#D9D9D9"/>
<path fill-rule="evenodd" clip-rule="evenodd" d="M123.8 206.421C122.347 199.5 118.086 191.169 112.512 182.231C107.049 173.472 99.9935 166.875 93.6359 162.927C90.4537 160.951 87.4965 159.669 85.0452 159.091C82.534 158.498 80.8333 158.704 79.8934 159.287C78.9535 159.87 78.0162 161.3 77.4388 163.809C76.8751 166.257 76.7199 169.469 77.09 173.189C77.8294 180.622 80.6423 189.85 86.1046 198.609C91.6789 207.548 97.2869 215.043 102.869 219.403C105.646 221.572 108.33 222.895 110.922 223.294C113.475 223.688 116.058 223.206 118.723 221.553C121.389 219.9 122.964 217.803 123.739 215.345C124.526 212.85 124.523 209.864 123.8 206.421ZM119.541 222.864C131.384 215.518 125 199.334 113.826 181.416C102.652 163.497 84.9244 154.349 79.0759 157.976C73.2275 161.604 73.6162 181.506 84.7902 199.425C95.9642 217.343 107.698 230.209 119.541 222.864Z" fill="#D9D9D9"/>
<path fill-rule="evenodd" clip-rule="evenodd" d="M118.401 210.046C115.941 203.614 111.309 195.39 105.727 186.439C100.204 177.583 94.074 170.293 88.9725 165.477C86.415 163.063 84.1612 161.314 82.4086 160.295C81.5272 159.783 80.8386 159.494 80.3462 159.375C80.1222 159.32 79.9834 159.31 79.9077 159.311C79.8733 159.379 79.8206 159.507 79.7706 159.732C79.6607 160.225 79.6156 160.968 79.6866 161.983C79.8279 164.002 80.4045 166.791 81.4448 170.146C83.5198 176.839 87.3654 185.546 92.8882 194.402C98.4702 203.353 103.818 211.133 108.515 216.177C110.873 218.708 112.972 220.446 114.766 221.331C116.525 222.199 117.758 222.151 118.722 221.553C119.687 220.955 120.275 219.873 120.272 217.916C120.269 215.92 119.635 213.273 118.401 210.046ZM119.54 222.864C125.849 218.951 118.216 203.542 107.042 185.623C95.8675 167.705 82.1909 156.044 79.0753 157.977C75.9598 159.909 80.3997 177.299 91.5737 195.217C102.748 213.135 113.231 226.777 119.54 222.864Z" fill="#D9D9D9"/>
<path d="M36.7042 104.646C34.8983 101.75 35.7883 97.9425 38.6921 96.1415L41.3209 94.511C44.2247 92.71 48.0426 93.5976 49.8485 96.4935L84.422 151.934C86.2279 154.83 85.3379 158.638 82.4341 160.438L79.8053 162.069C76.9016 163.87 73.0836 162.982 71.2777 160.087L36.7042 104.646Z" fill="#BABABA"/>
<path d="M70.5193 99.1703C66.3271 93.3815 53.2604 84.0036 34.5309 92.8026C11.1191 103.801 11.3126 137.184 27.9524 139.499C28.4039 145.095 32.4414 155.785 44.9793 153.778C47.6236 159.31 55.6917 168.138 68.5392 159.648C69.7394 158.653 69.3525 156.53 68.5392 155.402C67.2217 153.576 62.7346 138.229 66.7978 137.264C68.8103 136.374 73.2996 135.127 75.157 137.264C77.0145 139.401 80.0073 144.749 81.3486 147.075C82.8965 146.882 89.4811 142.008 87.3527 130.623C85.2244 119.238 74.5824 103.314 70.5193 99.1703Z" fill="#F95D5D"/>
<path d="M113.876 227.177C102.069 229.808 90.8862 228.505 83.747 224.373C82.51 222.026 81.2024 216.592 85.8675 213.631C91.699 209.93 92.3669 215.81 102.62 206.758C109.087 201.048 106.119 190.368 124.673 201.154C131.141 203.691 132.943 201.116 136.336 200.146C139.729 199.176 142.185 202.599 142.988 204.432C141.754 213.998 129.875 223.612 113.876 227.177Z" fill="#FFEEC2"/>
<path d="M8 114.673L60.8217 220.801C68.1742 226.59 90.7645 236.562 125.253 226.204C142.658 220.977 154.3 213.129 161.628 205.313C163.176 200.95 166.822 197.354 168.452 196.102C170.731 192.01 171.856 188.256 172.076 185.296L160.467 74.1509L8 114.673Z" fill="url(#paint0_linear_340_8890)" style="mix-blend-mode:overlay"/>
<defs>
<linearGradient id="paint0_linear_340_8890" x1="70.883" y1="149.02" x2="89.9396" y2="230.73" gradientUnits="userSpaceOnUse">
<stop stop-color="#D9D9D9" stop-opacity="0"/>
<stop offset="1" stop-color="#FBE750"/>
</linearGradient>
</defs>
</svg>
