<svg width="192" height="70" viewBox="0 0 192 70" fill="none" xmlns="http://www.w3.org/2000/svg">
<path fill-rule="evenodd" clip-rule="evenodd" d="M130.868 13.5325C133.361 15.8264 139.542 13.5325 139.542 13.5325V19.0397C139.542 19.0397 133.361 16.7458 130.868 19.0397C128.158 21.5332 128.377 25.7583 130.868 28.4701C134.056 31.9404 151.913 28.4701 151.913 28.4701V34.496C151.913 34.496 131.102 25.668 127.549 34.496C127.104 35.602 126.689 37.246 126.404 38.9C126.205 40.6038 126.867 43.795 131.11 42.9292C142.288 40.5403 175.19 40.5403 186.368 42.9292C191.445 44.2665 191.62 40.8003 191.073 38.9C190.789 37.246 190.373 35.602 189.928 34.496C186.376 25.668 165.565 34.496 165.565 34.496V28.4701C165.565 28.4701 183.371 32.0659 186.911 28.4701C189.495 25.8459 189.61 21.5449 186.911 19.0397C184.406 16.715 178.161 19.0397 178.161 19.0397V13.5325C178.161 13.5325 184.406 15.8572 186.911 13.5325C189.61 11.0273 189.928 7.49706 186.911 4.10215C183.476 0.236505 135.954 -0.589444 130.868 4.10215C128.162 6.59905 128.158 11.039 130.868 13.5325ZM164.11 16.503C164.036 15.2497 165.339 13.5325 165.339 13.5325C165.339 13.5325 161.212 14.6632 158.845 14.7348C156.061 14.819 152.365 13.5325 152.365 13.5325C152.365 13.5325 153.572 15.2627 153.503 16.503C153.442 17.587 152.365 19.0397 152.365 19.0397C152.365 19.0397 156.05 17.5872 158.845 17.6818C161.224 17.7623 165.339 19.0397 165.339 19.0397C165.339 19.0397 164.174 17.6019 164.11 16.503Z" fill="#F95D5D"/>
<path fill-rule="evenodd" clip-rule="evenodd" d="M38.0014 19.5105C36.3781 20.2404 33.441 19.5105 33.441 19.5105C35.8966 21.9568 37.0893 23.6438 37.0893 26.9988C37.0893 28.886 36.7385 30.7033 36.0369 32.3808C35.3353 34.1282 34.2829 35.6659 32.8797 36.924C31.4765 38.322 29.7225 39.3704 27.6178 40.0694C25.513 40.9081 23.0574 41.2576 20.3211 41.2576C17.5148 41.2576 15.0592 40.9081 12.9544 40.0694C10.8496 39.3704 9.09561 38.322 7.69241 36.924C6.28922 35.6659 5.23683 34.1282 4.60539 32.3808C3.90379 30.7033 3.55299 28.886 3.55299 26.9988C3.55299 23.6438 4.74571 21.9568 7.13114 19.5105C7.13114 19.5105 4.24332 20.22 2.64092 19.5105C-0.96449 17.9141 0.00154418 12.3671 2.64092 9.44545C5.57356 6.1992 13.8665 9.44545 13.8665 9.44545C13.8665 9.44545 12.8732 5.56309 13.8665 3.43439C16.0032 -1.1448 24.7093 -1.1448 26.846 3.43439C27.8393 5.56309 26.846 9.44545 26.846 9.44545C26.846 9.44545 35.077 6.22856 38.0014 9.44545C40.6499 12.3589 41.5975 17.8933 38.0014 19.5105ZM16.4624 24.6034C17.3043 23.3453 18.5672 22.7162 20.3211 22.7162C22.005 22.7162 23.2679 23.3453 24.1799 24.6034C24.1799 24.6034 25.0351 25.3439 25.513 27.4786C25.513 29.1561 25.0218 30.4842 24.1098 31.6025C23.1275 32.7907 21.8647 33.3499 20.3211 33.3499C18.6373 33.3499 17.3744 32.7907 16.5325 31.6025C15.5503 30.4842 15.1293 29.1561 15.1293 27.4786C15.1293 26.0807 16.4624 24.6034 16.4624 24.6034Z" fill="#F95D5D"/>
<path d="M111.965 5.25086C107.099 10.9562 111.965 31.0757 113.143 32.363C114.322 33.6502 115.778 35.8098 119.625 34.2396C124.542 32.2333 124.929 10.5554 120.527 3.0819C118.434 -0.470226 115.291 1.35073 111.965 5.25086Z" fill="#F95D5D"/>
<path fill-rule="evenodd" clip-rule="evenodd" d="M78.0516 34.2397C80.4653 34.9186 83.1053 35.2204 86.047 35.2204C91.7795 35.2204 96.456 33.8624 100.077 30.9956C103.697 28.2043 105.507 24.1304 105.507 18.7739C105.507 16.3598 104.979 14.0965 104.074 11.9841C103.094 10.0226 101.736 8.28745 100.077 6.85405C98.3417 5.42064 96.3052 4.28901 93.9669 3.45914C91.5532 2.70471 88.9132 2.3275 86.047 2.3275C83.1053 2.3275 80.4653 2.70471 78.0516 3.3837C77.8332 3.45197 77.6172 3.52272 77.4037 3.59593C77.8235 4.07787 78.0704 4.66761 78.0704 5.30455C78.0704 6.74758 76.803 7.94837 75.1294 8.20211C75.169 8.4103 75.1895 8.62365 75.1895 8.84091C75.1895 11.1195 72.9323 12.9667 70.1479 12.9667C69.1513 12.9667 68.2223 12.73 67.4401 12.3217C66.6516 14.2646 66.2848 16.397 66.2848 18.7739C66.2848 21.6408 66.7374 24.1304 67.7179 26.1673C68.6231 28.2797 69.9808 29.9394 71.7911 31.2974C73.5259 32.6554 75.6379 33.6361 78.0516 34.2397ZM86.047 24.0549C87.4801 24.0549 88.9887 23.6777 90.4972 22.9233C91.9304 22.1689 92.6846 20.8109 92.6846 18.7739C92.6846 16.8879 91.9304 15.5299 90.4972 14.7001C88.9887 13.9456 87.4801 13.5684 86.047 13.5684C85.2927 13.5684 84.463 13.7193 83.7087 13.8702C82.8036 14.0965 82.0493 14.3983 81.4459 14.7755C80.6916 15.2282 80.1636 15.7563 79.7864 16.3598C79.3339 17.0388 79.1076 17.8686 79.1076 18.7739C79.1076 19.8301 79.3339 20.66 79.7864 21.2636C80.1636 22.018 80.6916 22.5461 81.4459 22.9233C82.0493 23.3759 82.8036 23.6777 83.7087 23.8286C84.463 23.9795 85.2927 24.0549 86.047 24.0549Z" fill="#F95D5D"/>
<path d="M21.9049 43.5749C24.0497 45.0437 21.9049 52.7217 21.9049 52.7217C21.9049 52.7217 54.3447 49.0512 58.9452 55.5545C63.5456 62.0579 58.3505 67.126 56.8563 67.7803C55.4853 68.3807 25.1873 73.113 9.73143 66.5906C6.42069 65.1934 4.34703 47.5363 8.46542 44.6103C12.5838 41.6843 19.7601 42.106 21.9049 43.5749Z" fill="#F95D5D"/>
<path d="M63.4244 18.8724C65.8901 21.5955 65.3195 32.2948 56.1127 30.3535C57.7597 34.1485 58.318 41.4166 57.5053 44.2208C56.6926 47.025 51.1584 49.5973 45.4108 45.4358C39.6633 41.2744 44.2218 17.204 42.5198 8.44861C40.8178 -0.306792 55.4247 2.65936 56.52 5.81639C57.6154 8.97343 54.9624 18.8992 54.9624 18.8992C55.6766 18.3396 56.5433 17.904 57.6874 17.4406C58.9077 17.0392 60.9588 16.1492 63.4244 18.8724Z" fill="#F95D5D"/>
<path fill-rule="evenodd" clip-rule="evenodd" d="M108.655 37.8609C109.607 35.8993 118.812 35.9276 121.704 40.1241C124.928 44.8016 124.189 64.2377 119.035 65.9584C103.149 71.263 81.3505 70.6736 72.4821 65.9584C65.4048 62.1956 65.3597 52.2937 69.4328 41.3312C71.2285 36.4983 80.732 35.8993 82.0293 37.7854C82.814 38.9262 82.0293 41.3312 82.0293 41.3312C90.1605 40.0251 95.4641 38.8463 108.655 41.3312C108.655 41.3312 108.064 39.0802 108.655 37.8609ZM104.958 48.6972C105.194 48.9209 105.204 49.294 104.981 49.5304C104.528 50.0085 103.71 51.6014 104.833 53.7016C104.846 53.7262 104.857 53.7517 104.867 53.7779C105.158 54.578 106.285 56.25 108.369 56.4526C108.693 56.484 108.93 56.7722 108.899 57.0962C108.867 57.4202 108.579 57.6573 108.255 57.6258C106.046 57.4112 104.698 55.9427 104.072 54.8427L104.048 54.855C103.778 54.9934 103.45 55.1337 103.077 55.273C102.332 55.552 101.378 55.8387 100.292 56.1051C98.1194 56.638 95.382 57.0988 92.6637 57.2495C89.9563 57.3997 87.2141 57.2457 85.0621 56.5109C82.8972 55.7718 81.2189 54.3958 80.931 52.0696C80.891 51.7466 81.1204 51.4522 81.4434 51.4123C81.7664 51.3723 82.0606 51.6017 82.1006 51.9248C82.3119 53.6323 83.5136 54.7367 85.4428 55.3953C87.3847 56.0583 89.9506 56.2194 92.5984 56.0726C95.2354 55.9263 97.9005 55.478 100.011 54.9602C101.066 54.7013 101.974 54.4273 102.664 54.169C103.01 54.0397 103.293 53.9172 103.51 53.806C103.528 53.7969 103.545 53.788 103.561 53.7793C102.52 51.3944 103.416 49.4688 104.125 48.7201C104.348 48.4837 104.721 48.4734 104.958 48.6972ZM89.8561 50.6879C90.507 50.6879 91.0346 50.1601 91.0346 49.5091C91.0346 48.8581 90.507 48.3303 89.8561 48.3303C89.2052 48.3303 88.6775 48.8581 88.6775 49.5091C88.6775 50.1601 89.2052 50.6879 89.8561 50.6879ZM96.9275 50.6879C97.5784 50.6879 98.106 50.1601 98.106 49.5091C98.106 48.8581 97.5784 48.3303 96.9275 48.3303C96.2766 48.3303 95.7489 48.8581 95.7489 49.5091C95.7489 50.1601 96.2766 50.6879 96.9275 50.6879Z" fill="#F95D5D"/>
<path fill-rule="evenodd" clip-rule="evenodd" d="M186.232 66.8137C179.211 70.9712 137.814 70.9712 130.793 66.8137C126.433 64.2321 126.433 48.1205 130.793 45.5389C137.814 41.3814 179.211 41.3814 186.232 45.5389C190.592 48.1205 190.592 64.2321 186.232 66.8137ZM153.499 59.4425V52.127C153.499 51.2514 154.088 49.8909 156.736 51.2905L164.499 54.4243C165.546 54.8468 165.546 56.7228 164.499 57.1453L156.736 60.2791C154.088 61.6787 153.499 60.3182 153.499 59.4425Z" fill="#F95D5D"/>
</svg>
