<svg width="359" height="358" viewBox="0 0 359 358" fill="none" xmlns="http://www.w3.org/2000/svg">
<g clip-path="url(#clip0_361_6148)">
<rect width="358" height="358" transform="translate(0.5)" fill="white"/>
<path d="M189.202 1.62285C181.126 -1.08197 176.184 -1.08197 168.108 1.62285C148.406 8.22129 149.261 49.9789 155.349 91.1781C139.934 52.4891 119.713 15.9443 99.3609 20.1268C91.0181 21.8413 86.7438 24.3219 81.1164 30.7152C67.583 46.0905 88.4794 80.9905 113.932 113.188C81.679 87.8058 46.7331 66.9861 31.3876 80.5533C25.0067 86.1947 22.5354 90.4745 20.8393 98.821C16.7296 119.044 52.7946 139.049 91.2231 154.339C50.2984 148.364 9.06261 147.654 2.50908 167.222C-0.195736 175.298 -0.195736 180.24 2.50908 188.316C9.06261 207.884 50.2984 207.174 91.2231 201.199C52.7945 216.489 16.7295 236.494 20.8391 256.717C22.5353 265.064 25.0065 269.343 31.3874 274.985C46.7328 288.552 81.6781 267.733 113.931 242.351C88.4785 274.548 67.5826 309.448 81.1159 324.823C86.7433 331.216 91.0176 333.697 99.3604 335.411C119.713 339.594 139.935 303.048 155.349 264.358C149.261 305.558 148.406 347.317 168.108 353.915C176.184 356.62 181.126 356.62 189.202 353.915C208.905 347.316 208.05 305.556 201.961 264.356C217.376 303.046 237.598 339.594 257.951 335.411C266.293 333.697 270.568 331.216 276.195 324.823C289.728 309.448 268.833 274.548 243.38 242.351C275.633 267.733 310.578 288.552 325.924 274.985C332.305 269.343 334.776 265.064 336.472 256.717C340.582 236.494 304.517 216.489 266.088 201.199C307.013 207.174 348.248 207.884 354.801 188.316C357.506 180.24 357.506 175.298 354.801 167.222C348.248 147.654 307.013 148.364 266.088 154.339C304.517 139.049 340.581 119.044 336.472 98.821C334.776 90.4745 332.304 86.1947 325.923 80.5533C310.578 66.9861 275.632 87.8058 243.379 113.188C268.832 80.9905 289.728 46.0905 276.195 30.7152C270.567 24.3219 266.293 21.8413 257.95 20.1268C237.597 15.9442 217.376 52.4906 201.961 91.1804C208.05 49.9805 208.905 8.22141 189.202 1.62285Z" fill="#F5BD33" fill-opacity="0.1"/>
<path d="M151.723 106.376C147.859 102.23 126.104 104.602 120.486 117.117C114.224 131.065 112.422 178.439 137.058 191.002C172.91 209.284 217.416 197.322 236.448 182.393C251.636 170.479 249.545 141.998 237.897 111.103C232.762 97.4827 211.116 97.2287 208.596 102.853C207.073 106.255 209.382 113.049 209.382 113.049C190.685 110.55 182.283 107.778 152.971 116.962C152.971 116.962 156.853 111.881 151.723 106.376Z" fill="#F87B7B"/>
<path fill-rule="evenodd" clip-rule="evenodd" d="M209.453 153.588C209.169 152.992 208.455 152.739 207.859 153.023C207.342 153.27 206.814 153.524 206.275 153.783C200.896 156.373 194.438 159.482 186.91 160.484C178.699 161.577 169.16 160.161 158.441 152.526C157.903 152.143 157.157 152.269 156.774 152.806C156.39 153.344 156.516 154.091 157.054 154.474C168.27 162.463 178.419 164.027 187.225 162.855C195.153 161.799 201.947 158.524 207.299 155.945C207.843 155.682 208.373 155.427 208.887 155.182C209.484 154.898 209.737 154.184 209.453 153.588Z" fill="white"/>
<ellipse cx="3.41796" cy="3.7765" rx="3.41796" ry="3.7765" transform="matrix(-0.995378 0.0960336 0.0960336 0.995378 196.31 139.003)" fill="white"/>
<ellipse cx="3.41796" cy="3.7765" rx="3.41796" ry="3.7765" transform="matrix(-0.995378 0.0960336 0.0960336 0.995378 173.34 141.115)" fill="white"/>
<path d="M256.181 114.264C245.418 130.093 254.943 146.956 261.051 153.408C261.44 155.029 266.299 159.162 282.623 162.731C303.027 167.192 321.474 124.508 323.793 117.884C326.111 111.26 316.161 101.513 305.803 96.4915C297.517 92.4746 283.624 107.06 277.713 114.855C280.482 110.968 284.304 102.125 277.436 97.8496C268.852 92.5056 269.634 94.4777 256.181 114.264Z" fill="#F87B7B"/>
<path d="M105.487 117.554C118.698 131.406 112.065 149.602 107.097 156.968C106.979 158.63 102.863 163.504 87.3445 169.699C67.9465 177.443 42.7546 138.358 39.3824 132.204C36.0103 126.049 44.2284 114.804 53.6237 108.153C61.1398 102.833 77.2347 114.944 84.3426 121.665C80.974 118.285 75.7551 110.188 81.8293 104.845C89.4219 98.1663 88.9735 100.24 105.487 117.554Z" fill="#F87B7B"/>
<g clip-path="url(#clip1_361_6148)">
<path d="M159.374 255.98L232.607 235.263L227.042 222.319L153.702 242.786L159.374 255.98ZM147.746 229.273L221.317 209.001L215.432 195.31L141.753 215.333L147.746 229.273Z" fill="#FFEEC2"/>
<path d="M153.702 242.786L227.042 222.319L221.317 209.001L147.746 229.273L153.702 242.786Z" fill="white"/>
<path d="M197.276 217.567C199.381 223.15 206.126 226.149 212.475 224.452C218.771 222.631 222.322 216.827 220.217 211.244L197.276 217.567Z" fill="#EFA73C"/>
<path d="M200.174 216.763C201.816 220.924 206.781 223.213 211.53 221.909C216.278 220.605 218.835 216.262 217.318 212.048L200.174 216.763Z" fill="#FFB340"/>
<path d="M150.647 230.533C153.001 236.009 160.049 239.026 166.522 237.275C172.871 235.578 176.191 229.58 173.961 224.05L150.647 230.533Z" fill="#EFA73C"/>
<path d="M153.67 229.676C155.436 233.783 160.704 236.09 165.452 234.786C170.2 233.482 172.704 229.014 170.991 225.031L153.67 229.676Z" fill="#FFB340"/>
<path d="M201.005 227.613C198.953 222.154 191.976 218.96 185.681 220.781C179.207 222.532 175.887 228.53 178.064 233.936L201.005 227.613Z" fill="#EFA73C"/>
<path d="M198.106 228.417C196.518 224.381 191.375 222.02 186.626 223.324C181.878 224.628 179.375 229.096 180.962 233.132L198.106 228.417Z" fill="#FFB340"/>
<path d="M136.312 217.082C134.011 211.73 153.811 196.73 158.933 195.266C180.896 189.069 215.432 195.31 215.432 195.31C193.593 201.454 149.597 214.026 145.827 215.204C143.853 215.758 142.893 216.613 143.535 218.106L159.747 255.819L153.701 257.534L136.312 217.082Z" fill="#FF682C"/>
<path d="M143.529 212.947C132.308 216.002 158.702 195.07 163.574 193.713C184.488 187.819 211.108 194.514 211.108 194.514C211.108 194.514 146.179 212.25 143.529 212.947Z" fill="#FF8458"/>
<path d="M179.183 191.417C178.516 191.307 177.843 191.197 177.172 191.092C175.361 198.056 169.411 202.303 163.585 202.473C160.569 202.562 157.579 201.552 155.254 199.273C152.983 197.038 151.365 193.597 150.928 188.866C150.326 188.864 149.725 188.861 149.121 188.864C149.165 190.032 149.408 193.118 150.818 196.289C152.586 200.278 156.072 204.215 163.466 204.265C170.045 204.307 173.953 200.977 176.292 197.605C178.053 195.066 178.883 192.525 179.183 191.417ZM176.131 190.931C172.464 189.857 169.692 189.612 166.705 189.494C166.524 189.511 166.438 189.905 166.722 190.078L174.015 195.514C174.937 194.189 175.665 192.652 176.131 190.931ZM172.793 191.779L172.377 192.738L170.178 191.789L170.595 190.831L172.793 191.779ZM166.295 191.072C165.936 190.833 165.531 191.043 165.56 191.649L167.978 200.445C170.004 199.593 171.888 198.205 173.383 196.353L166.295 191.072ZM167.698 192.924L169.027 194.81L168.175 195.413L166.846 193.527L167.698 192.924ZM161.987 189.356C161.943 189.326 161.885 189.308 161.813 189.3C158.595 189.067 155.139 188.685 151.984 188.876C152.247 191.643 152.928 193.891 153.893 195.69L161.864 190.113C162.16 189.991 162.24 189.523 161.987 189.356ZM164.38 191.66C164.125 191.486 163.74 191.696 163.711 191.81L160.517 201.091C161.503 201.343 162.526 201.45 163.556 201.421C164.703 201.388 165.863 201.179 166.986 200.81L164.546 191.902C164.507 191.783 164.447 191.706 164.38 191.66ZM162.673 190.985C162.612 190.95 162.519 190.951 162.384 191.035L154.427 196.593C154.902 197.321 155.429 197.965 155.995 198.522C157.047 199.555 158.239 200.301 159.515 200.779L162.757 191.368C162.791 191.236 162.774 191.054 162.673 190.985ZM158.734 190.039L159.016 191.051L156.158 191.828L155.877 190.816L158.734 190.039ZM164.445 195.175L164.591 197.148L163.548 197.225L163.402 195.252L164.445 195.175ZM159.867 193.748L160.713 194.37L159.235 196.361L158.39 195.739L159.867 193.748Z" fill="#FFBB56"/>
<path fill-rule="evenodd" clip-rule="evenodd" d="M163.585 202.473C169.411 202.303 175.361 198.056 177.172 191.092L176.131 190.931C175.665 192.652 174.937 194.189 174.015 195.514L166.722 190.078C166.438 189.905 166.524 189.511 166.705 189.494L161.987 189.356C162.24 189.523 162.16 189.991 161.864 190.113L153.893 195.69C152.928 193.891 152.247 191.643 151.984 188.876L150.928 188.866C151.365 193.597 152.983 197.038 155.254 199.273C157.579 201.552 160.569 202.562 163.585 202.473ZM165.56 191.649C165.531 191.043 165.936 190.833 166.295 191.072L173.383 196.353C171.888 198.205 170.004 199.593 167.978 200.445L165.56 191.649ZM163.711 191.81C163.74 191.696 164.125 191.486 164.38 191.66C164.447 191.706 164.507 191.783 164.546 191.902L166.986 200.81C165.863 201.179 164.703 201.388 163.556 201.421C162.526 201.45 161.503 201.343 160.517 201.091L163.711 191.81ZM162.384 191.035C162.519 190.951 162.612 190.95 162.673 190.985C162.774 191.054 162.791 191.236 162.757 191.368L159.515 200.779C158.239 200.301 157.047 199.555 155.995 198.522C155.429 197.965 154.902 197.321 154.427 196.593L162.384 191.035Z" fill="#FFEBCD"/>
<path d="M158.734 190.039L159.016 191.051L156.158 191.828L155.877 190.816L158.734 190.039Z" fill="#FFE8C6"/>
<path d="M159.867 193.748L160.713 194.37L159.235 196.361L158.39 195.739L159.867 193.748Z" fill="#FFE8C6"/>
<path d="M164.445 195.175L164.591 197.148L163.548 197.225L163.402 195.252L164.445 195.175Z" fill="#FFE8C6"/>
<path d="M167.698 192.924L169.027 194.81L168.175 195.413L166.846 193.527L167.698 192.924Z" fill="#FFE8C6"/>
<path d="M172.793 191.779L172.377 192.738L170.178 191.789L170.595 190.831L172.793 191.779Z" fill="#FFE8C6"/>
</g>
<g clip-path="url(#clip2_361_6148)">
<path d="M319.91 320.119L202.603 291.324L210.71 270.483L328.174 298.878L319.91 320.119ZM336.872 277.113L219.052 249.042L227.628 226.999L345.603 254.67L336.872 277.113Z" fill="#D3976E"/>
<path d="M328.174 298.878L210.711 270.483L219.052 249.042L336.872 277.113L328.174 298.878Z" fill="white"/>
<path d="M257.661 261.294C254.631 270.267 244.098 275.398 233.934 273.058C223.848 270.519 217.893 261.511 220.922 252.538L257.661 261.294Z" fill="#EF4D3C"/>
<path d="M253.018 260.18C250.646 266.87 242.897 270.777 235.293 268.973C227.689 267.168 223.393 260.421 225.565 253.652L253.018 260.18Z" fill="#FF717F"/>
<path d="M332.34 279.273C328.91 288.09 317.899 293.265 307.534 290.848C297.369 288.509 291.771 279.178 295 270.283L332.34 279.273Z" fill="#EF4D3C"/>
<path d="M327.497 278.081C324.925 284.694 316.697 288.645 309.093 286.84C301.489 285.036 297.271 278.088 299.765 271.675L327.497 278.081Z" fill="#FF717F"/>
<path d="M252.303 277.436C255.255 268.664 266.144 263.21 276.23 265.749C286.595 268.167 292.194 277.497 289.042 286.192L252.303 277.436Z" fill="#EF4D3C"/>
<path d="M256.946 278.55C259.24 272.06 267.268 268.03 274.872 269.835C282.475 271.64 286.694 278.587 284.4 285.078L256.946 278.55Z" fill="#FF717F"/>
<path d="M354.331 257.143C357.684 248.526 325.445 225.832 317.24 223.793C282.06 215.183 227.628 226.999 227.628 226.999C262.607 235.532 333.09 253.032 339.135 254.691C342.297 255.46 343.866 256.763 342.931 259.167L319.309 319.885L328.995 322.269L354.331 257.143Z" fill="#8F6453"/>
<path d="M342.653 250.984C360.622 255.206 317.596 223.471 309.792 221.588C276.293 213.401 234.441 225.497 234.441 225.497C234.441 225.497 338.412 250.026 342.653 250.984Z" fill="#724E41"/>
<path d="M323.898 218.539L329.81 214.61L321.305 210.378L323.5 201.773L316.285 203.119L311.298 195.18L300.719 216.443L326.814 227.057L323.898 218.539Z" fill="#8CC63E"/>
<path d="M312.262 233.623C301.084 238.042 282.458 231.95 280.054 226.861C277.45 221.695 284.922 205.453 296.379 200.912C304.774 197.718 312.978 203.909 317.13 212.215C321.003 220.643 320.456 230.351 312.262 233.623Z" fill="#EF4D3C"/>
<path d="M292.658 221.152L290.709 222.009L291.566 223.957L293.715 223.178L292.658 221.152ZM316.416 221.166L314.546 221.823L315.403 223.771L317.351 222.914L316.416 221.166ZM309.135 219.718L307.187 220.575L308.044 222.523L309.992 221.666L309.135 219.718ZM302.99 215.943L301.12 216.599L301.977 218.548L303.925 217.691L302.99 215.943ZM312.51 213.417L310.561 214.274L311.496 216.022L313.567 215.443L312.51 213.417ZM310.685 206.247L308.814 206.903L309.671 208.852L311.62 207.995L310.685 206.247ZM304.004 209.185L302.056 210.042L302.991 211.79L304.861 211.133L304.004 209.185ZM295.732 212.657L293.861 213.314L294.718 215.262L296.667 214.405L295.732 212.657ZM300.584 223.313L298.436 224.092L299.493 226.118L301.441 225.261L300.584 223.313ZM310.927 227.567L308.978 228.424L309.835 230.372L311.784 229.515L310.927 227.567ZM303.211 230.794L301.062 231.574L302.197 233.4L304.068 232.743L303.211 230.794ZM293.247 228.533L291.377 229.19L292.234 231.138L294.182 230.281L293.247 228.533ZM285.321 222.22L283.372 223.077L284.23 225.025L286.178 224.168L285.321 222.22ZM286.97 215.016L285.021 215.874L285.956 217.622L288.027 217.043L286.97 215.016ZM296.446 203.706L294.575 204.363L295.432 206.311L297.38 205.454L296.446 203.706ZM290.7 208.393L288.752 209.25L289.687 210.998L291.557 210.341L290.7 208.393ZM304.172 201.637L302.224 202.494L303.159 204.242L305.029 203.585L304.172 201.637Z" fill="#FFFFC4"/>
</g>
<g clip-path="url(#clip3_361_6148)">
<path d="M10.8986 323.64L150.984 358.748L154.059 332.189L14.032 296.57L10.8986 323.64ZM16.9988 268.705L157.222 304.864L160.473 276.772L20.3096 240.103L16.9988 268.705Z" fill="#FFEEC2"/>
<path d="M14.032 296.57L154.059 332.189L157.222 304.864L16.9988 268.705L14.032 296.57Z" fill="white"/>
<path d="M109.566 296.242C107.755 307.419 116.021 318.728 128.072 321.934C140.153 324.886 151.48 318.692 153.292 307.514L109.566 296.242Z" fill="#EF4D3C"/>
<path d="M115.096 297.658C113.865 306.056 119.873 314.515 128.919 316.856C137.964 319.198 146.276 314.466 147.762 306.098L115.096 297.658Z" fill="#FF717F"/>
<path d="M20.5822 273.519C19.2816 284.756 28.0292 296.379 40.3356 299.615C52.3867 302.822 63.5181 296.087 65.0741 284.88L20.5822 273.519Z" fill="#EF4D3C"/>
<path d="M26.3672 274.965C25.3917 283.393 31.8812 292.167 40.9269 294.508C49.9725 296.849 58.3137 291.862 59.2596 283.69L26.3672 274.965Z" fill="#FF717F"/>
<path d="M106.209 316.298C107.991 305.376 99.5283 293.527 87.4477 290.576C75.1412 287.34 64.0098 294.074 62.4834 305.026L106.209 316.298Z" fill="#EF4D3C"/>
<path d="M100.68 314.882C101.881 306.739 95.6468 297.995 86.6011 295.654C77.5554 293.313 69.2143 298.3 68.0129 306.442L100.68 314.882Z" fill="#FF717F"/>
<path d="M9.70205 237.84C10.9732 226.859 57.7305 220.884 67.5424 223.314C109.54 233.869 160.473 276.772 160.473 276.772C118.732 266.247 34.4521 245.363 27.1349 243.74C23.3634 242.786 20.9763 243.286 20.6216 246.35L11.6647 323.729L0.094792 320.837L9.70205 237.84Z" fill="#EBE6DF"/>
<path d="M25.4869 237.855C4.13474 232.278 67.3461 222.774 76.6472 225.144C116.631 235.207 154.11 271.378 154.11 271.378C154.11 271.378 30.5057 239.213 25.4869 237.855Z" fill="#F2F2F2"/>
<path d="M72.3233 205.98C66.0168 204.29 56.9775 212.8 62.5575 222.807C61.1597 228.023 68.3226 229.942 76.0304 232.008C86.619 234.845 90.8583 232.726 90.8583 232.726L72.3233 205.98Z" fill="#F2EDE6"/>
<path d="M92.0039 225.022C93.1218 223.653 94.8392 220.358 93.8718 217.429C92.5471 213.652 89.932 212.201 87.8995 209.82C86.7693 208.432 85.122 205.237 89.0179 203.778C89.0179 203.778 83.2986 197.405 76.2005 202.096C74.1635 203.469 72.8064 205.108 71.979 206.639C61.2776 207.026 57.8182 225.542 73.3371 225.862C61.5293 222.281 66.2157 211.019 71.6356 207.298C70.5843 209.353 70.4785 210.993 70.4785 210.993C67.4987 214.951 67.7512 220.86 71.2156 224.125C71.869 224.801 72.642 225.342 73.415 225.883C73.415 225.883 67.157 227.127 63.4228 223.623C65.12 228.5 70.6926 227.323 73.241 228.089C76.023 228.918 74.499 231.18 81.3784 231.354C86.4406 231.459 88.1494 230.999 91.0133 232.768C90.9354 232.747 96.6764 229.696 92.0039 225.022Z" fill="#FFFBFB"/>
<path d="M89.0173 203.778C74.5668 195.733 67.4634 213.523 76.3291 219.988C77.9585 220.758 79.6143 221.119 81.3119 221.323C71.7538 216.509 75.3129 201.357 85.0201 203.124C75.3751 205.797 76.9631 219.49 86.2281 221.973C79.7511 215.314 80.8002 206.416 86.5035 204.439C78.6778 214.025 91.3965 215.764 91.9254 225.001C96.7202 214.27 80.7968 213.591 89.0173 203.778Z" fill="#F2EDE6"/>
<path d="M70.3585 211.128C70.2385 215.936 73.6389 220.686 78.7775 222.063C84.3053 223.544 89.3634 222.73 92.1018 229.638C87.1331 225.136 83.3416 226.206 77.8916 224.746C71.4295 223.014 67.6886 216.421 70.3585 211.128Z" fill="#F2EDE6"/>
<path d="M53.9116 205.194C46.5844 203.23 36.124 212.961 42.6398 224.465C41.0373 230.446 49.3595 232.675 58.3149 235.075C70.6173 238.371 75.5303 235.957 75.5303 235.957L53.9116 205.194Z" fill="#F2EDE6"/>
<path d="M76.8312 227.121C78.1237 225.554 80.1046 221.779 78.9703 218.414C77.4181 214.076 74.3769 212.4 72.0084 209.66C70.691 208.063 68.7666 204.391 73.2834 202.731C73.2834 202.731 66.6198 195.396 58.3982 200.751C56.0389 202.32 54.4698 204.195 53.5153 205.949C41.0942 206.352 37.1496 227.586 55.1656 228.013C41.445 223.858 46.8419 210.953 53.1191 206.704C51.9066 209.058 51.7901 210.94 51.7901 210.94C48.3462 215.47 48.6621 222.252 52.6962 226.012C53.4573 226.79 54.3567 227.413 55.256 228.037C55.256 228.037 47.9964 229.44 43.6482 225.405C45.6371 231.008 52.1013 229.679 55.0626 230.568C58.2952 231.53 56.5347 234.12 64.5212 234.346C70.3979 234.486 72.3797 233.965 75.711 236.005C75.6206 235.981 82.2731 232.502 76.8312 227.121Z" fill="#FFFBFB"/>
<path d="M73.2819 202.731C56.4765 193.445 48.299 213.832 58.6153 221.284C60.5097 222.174 62.4333 222.594 64.4047 222.835C53.2908 217.274 57.3642 199.901 68.6393 201.965C57.4535 204.996 59.3494 220.715 70.114 223.6C62.5697 215.934 63.7534 205.727 70.3663 203.481C61.3189 214.45 76.0898 216.495 76.7392 227.097C82.2639 214.801 63.777 213.961 73.2819 202.731Z" fill="#F2EDE6"/>
<path d="M51.6518 211.094C51.531 216.611 55.4965 222.074 61.4667 223.674C67.8893 225.395 73.7578 224.48 76.9631 232.419C71.178 227.233 66.7808 228.447 60.4487 226.75C52.9406 224.738 48.5729 217.158 51.6518 211.094Z" fill="#F2EDE6"/>
<path d="M28.0181 206.416C20.0022 204.268 8.51267 215.085 15.6052 227.804C13.8285 234.434 22.933 236.874 32.7302 239.499C46.1889 243.105 51.5774 240.412 51.5774 240.412L28.0181 206.416Z" fill="#F2EDE6"/>
<path d="M53.0336 230.62C54.4546 228.88 56.6374 224.692 55.4078 220.968C53.724 216.168 50.4001 214.323 47.8167 211.297C46.3801 209.533 44.2863 205.472 49.2382 203.617C49.2382 203.617 41.9686 195.517 32.9464 201.479C30.3573 203.225 28.6324 205.308 27.5807 207.254C13.9784 207.746 9.58137 231.281 29.3069 231.687C14.2984 227.136 20.2551 212.822 27.1441 208.091C25.8079 210.703 25.6734 212.789 25.6734 212.789C21.8858 217.819 22.2068 225.33 26.6104 229.48C27.4409 230.339 28.4234 231.026 29.4059 231.714C29.4059 231.714 21.4515 233.295 16.7052 228.841C18.8624 235.041 25.9455 233.544 29.1847 234.518C32.7208 235.572 30.7837 238.447 39.5279 238.669C45.9623 238.802 48.1342 238.217 51.7745 240.465C51.6755 240.439 58.9726 236.56 53.0336 230.62Z" fill="#FFFBFB"/>
<path d="M49.2384 203.617C30.8709 193.392 21.8421 216.005 33.1109 224.221C35.182 225.2 37.2867 225.658 39.4444 225.918C27.2954 219.799 31.8193 200.541 44.1578 202.786C31.8984 206.183 33.9168 223.589 45.6932 226.744C37.4605 218.28 38.7939 206.97 46.0433 204.458C36.0964 216.642 52.2626 218.852 52.9349 230.594C59.0294 216.953 38.7896 216.091 49.2384 203.617Z" fill="#F2EDE6"/>
<path d="M25.5219 212.96C25.3694 219.071 29.6915 225.108 36.2229 226.858C43.2492 228.741 49.6784 227.706 53.1591 236.487C46.8435 230.765 42.0242 232.125 35.0969 230.269C26.8831 228.068 22.1283 219.687 25.5219 212.96Z" fill="#F2EDE6"/>
<path d="M120.04 247.38C123.352 237.991 117.734 222.764 113.448 220.931C109.091 218.935 95.879 225.622 92.4748 235.245C90.0906 242.292 95.4685 248.891 102.472 252.071C109.567 255.016 117.586 254.263 120.04 247.38Z" fill="#EF4D3C"/>
<path d="M109.03 233.527L109.629 232.014L111.142 232.613L110.608 234.277L109.03 233.527ZM109.719 251.68L110.167 250.232L111.68 250.831L111.081 252.345L109.719 251.68ZM108.404 246.158L109.004 244.645L110.517 245.244L109.918 246.757L108.404 246.158ZM105.345 241.57L105.793 240.122L107.306 240.722L106.707 242.235L105.345 241.57ZM103.686 248.916L104.285 247.403L105.648 248.067L105.265 249.666L103.686 248.916ZM98.1556 247.726L98.6039 246.278L100.117 246.878L99.518 248.391L98.1556 247.726ZM100.21 242.538L100.809 241.025L102.172 241.689L101.723 243.137L100.21 242.538ZM102.627 236.118L103.076 234.67L104.589 235.269L103.99 236.783L102.627 236.118ZM110.907 239.522L111.441 237.858L113.02 238.608L112.421 240.121L110.907 239.522ZM114.453 247.303L115.052 245.79L116.566 246.389L115.966 247.902L114.453 247.303ZM116.699 241.315L117.233 239.651L118.661 240.466L118.212 241.914L116.699 241.315ZM114.687 233.766L115.135 232.318L116.648 232.918L116.049 234.431L114.687 233.766ZM109.636 227.89L110.236 226.377L111.749 226.976L111.15 228.49L109.636 227.89ZM104.18 229.356L104.779 227.842L106.141 228.507L105.758 230.106L104.18 229.356ZM95.8082 236.919L96.2566 235.471L97.7698 236.07L97.1706 237.583L95.8082 236.919ZM99.2251 232.395L99.8243 230.882L101.187 231.546L100.738 232.994L99.2251 232.395ZM94.4473 242.882L95.0465 241.369L96.4088 242.033L95.9605 243.481L94.4473 242.882Z" fill="#FFFFC4"/>
<path d="M125.824 232.073C117.915 229.558 105.94 239.834 112.439 252.866C110.359 259.408 119.341 262.264 129.007 265.337C142.286 269.56 147.792 267.118 147.792 267.118L125.824 232.073Z" fill="#F2EDE6"/>
<path d="M149.698 257.403C151.198 255.73 153.571 251.647 152.514 247.87C151.053 242.998 147.818 241.002 145.376 237.86C144.023 236.032 142.118 231.879 147.15 230.254C147.15 230.254 140.261 221.828 130.974 227.368C128.307 228.993 126.488 230.994 125.348 232.889C111.738 232.754 106.261 256.062 125.947 257.377C111.164 252.138 117.774 238.114 124.873 233.706C123.418 236.254 123.188 238.33 123.188 238.33C119.173 243.182 119.147 250.699 123.355 255.047C124.145 255.943 125.095 256.676 126.045 257.408C126.045 257.408 118.026 258.621 113.49 253.953C115.359 260.245 122.504 259.077 125.695 260.199C129.179 261.414 127.111 264.197 135.836 264.821C142.257 265.25 144.454 264.766 147.987 267.18C147.889 267.149 155.357 263.611 149.698 257.403Z" fill="#FFFBFB"/>
<path d="M147.151 230.254C129.273 219.194 119.213 241.366 130.091 250.093C132.115 251.167 134.196 251.721 136.34 252.08C124.486 245.408 129.892 226.378 142.114 229.19C129.711 232.019 130.925 249.499 142.544 253.193C134.71 244.359 136.563 233.122 143.92 230.947C133.423 242.66 149.47 245.612 149.601 257.372C156.317 244.027 136.138 242.233 147.151 230.254Z" fill="#F2EDE6"/>
<path d="M123.029 238.495C122.595 244.592 126.635 250.822 133.078 252.871C140.011 255.075 146.481 254.337 149.553 263.27C143.508 257.262 138.631 258.399 131.797 256.226C123.693 253.649 119.329 245.059 123.029 238.495Z" fill="#F2EDE6"/>
</g>
</g>
<defs>
<clipPath id="clip0_361_6148">
<rect width="358" height="358" fill="white" transform="translate(0.5)"/>
</clipPath>
<clipPath id="clip1_361_6148">
<rect width="86.7062" height="86.7062" fill="white" transform="matrix(-0.91871 0.394933 0.394933 0.91871 201.923 157.025)"/>
</clipPath>
<clipPath id="clip2_361_6148">
<rect width="137.612" height="137.612" fill="white" transform="translate(246.93 165.524) rotate(21.2581)"/>
</clipPath>
<clipPath id="clip3_361_6148">
<rect width="164.531" height="164.531" fill="white" transform="matrix(-0.993367 -0.114987 -0.114987 0.993367 174.42 201.007)"/>
</clipPath>
</defs>
</svg>
