<svg width="75" height="56" viewBox="0 0 75 56" fill="none" xmlns="http://www.w3.org/2000/svg">
<path d="M57.487 4.76308C58.6986 3.46298 65.5211 4.20687 67.2829 8.13143C69.2466 12.5057 69.8118 27.3621 62.0859 31.3019C50.8427 37.0352 36.8855 33.2839 30.9171 28.6021C26.1542 24.8658 26.8098 15.9341 30.4627 6.24553C32.0731 1.9742 38.8614 1.89457 39.6514 3.65829C40.1293 4.7251 39.4052 6.85589 39.4052 6.85589C45.2684 6.07202 47.9032 5.20296 57.0954 8.08303C57.0954 8.08303 55.8781 6.48959 57.487 4.76308Z" fill="#F87B7B"/>
<path d="M40.0354 19.6986C41.7886 21.7928 46.9453 24.9397 54.2369 22.0105M54.6178 18.7578C54.1949 19.4409 53.7883 20.7191 54.2369 22.0105M56.1858 24.2458C55.0962 23.5826 54.5091 22.7941 54.2369 22.0105" stroke="white" stroke-width="0.6272" stroke-linecap="round"/>
<ellipse cx="44.4573" cy="16.2798" rx="1.07187" ry="1.18431" transform="rotate(5.51081 44.4573 16.2798)" fill="white"/>
<ellipse cx="51.6607" cy="16.9439" rx="1.07187" ry="1.18431" transform="rotate(5.51081 51.6607 16.9439)" fill="white"/>
<path fill-rule="evenodd" clip-rule="evenodd" d="M57.854 19.5813C57.9806 19.449 58.2654 19.3119 58.3267 19.299C58.3534 19.2935 58.4098 19.2814 58.4671 19.2692C58.5249 19.2568 58.5835 19.2443 58.6129 19.2382C58.7927 19.2006 59.0088 19.1852 59.1895 19.2229C59.2367 19.2328 59.2834 19.2408 59.3296 19.2488C59.4923 19.2767 59.648 19.3034 59.7952 19.4059C59.9808 19.5352 60.0539 19.6991 60.1374 19.8864C60.1561 19.9284 60.1754 19.9716 60.1966 20.0159C60.4839 20.6163 60.6846 21.6235 60.0798 22.0974C59.9078 22.2322 59.7164 22.2354 59.5233 22.2386C59.4312 22.2402 59.3388 22.2417 59.2478 22.2575C58.9315 22.3126 58.5212 22.3342 58.1969 22.288C57.9348 22.2507 57.58 21.9806 57.3212 21.6704C57.2313 21.5627 57.1819 21.3557 57.1496 21.2201C57.1484 21.2151 57.1472 21.2101 57.1461 21.2053C57.0096 20.635 57.4838 19.968 57.854 19.5813Z" fill="#FFFCF4"/>
<path fill-rule="evenodd" clip-rule="evenodd" d="M56.4785 22.4607C56.5327 22.4098 56.6548 22.357 56.6811 22.3521C56.6925 22.3499 56.7167 22.3453 56.7412 22.3406C56.766 22.3359 56.7911 22.3311 56.8037 22.3287C56.8808 22.3142 56.9734 22.3083 57.0508 22.3228C57.0711 22.3266 57.0911 22.3297 57.1109 22.3328C57.1806 22.3435 57.2473 22.3538 57.3104 22.3932C57.3899 22.4429 57.4213 22.506 57.4571 22.578C57.4651 22.5942 57.4734 22.6108 57.4824 22.6278C57.6056 22.8587 57.6916 23.2461 57.4324 23.4284C57.3587 23.4802 57.2766 23.4815 57.1939 23.4827C57.1544 23.4833 57.1148 23.4839 57.0758 23.49C56.9403 23.5112 56.7644 23.5195 56.6255 23.5017C56.5131 23.4874 56.3611 23.3835 56.2501 23.2642C56.2116 23.2227 56.1904 23.1431 56.1766 23.091C56.1761 23.089 56.1756 23.0871 56.1751 23.0853C56.1166 22.8659 56.3198 22.6094 56.4785 22.4607Z" fill="#FFFCF4"/>
<ellipse cx="33.4871" cy="46.2341" rx="32.6519" ry="9.72043" fill="#E8F3FF"/>
<ellipse cx="33.4876" cy="46.235" rx="20.5802" ry="6.56508" fill="#E1ECFA"/>
<rect x="16.3516" y="46.3418" width="34.4935" height="2.74948" rx="1.2544" fill="black" style="mix-blend-mode:overlay"/>
<path d="M74.1625 44.8036C74.2141 39.1068 68.2088 36.5782 64.0182 38.5856C62.7036 39.2153 62.0538 39.4883 61.1955 41.0279C64.0024 42.6188 65.3427 44.246 65.6621 44.8608C65.1842 45.1577 64.5273 45.7884 63.8182 46.9437C63.3683 47.6767 62.8973 48.6208 62.4378 49.8249C60.9428 53.7418 64.5591 53.7799 66.5542 53.3093C69.0687 52.8477 74.1108 50.5003 74.1625 44.8036Z" fill="#F87B7B"/>
<path d="M51.4179 39.1248H18.2436V44.3029C18.215 44.7613 18.4284 45.678 19.5113 45.678H51.4179V39.1248Z" fill="#FDFDF3"/>
<path d="M26.838 15.2969C23.7941 16.2566 17.2767 19.9894 15.5579 27.2431H40.3535C41.694 24.3744 42.9867 23.4711 43.4655 23.3781L26.838 15.2969Z" fill="#F28D8A"/>
<path d="M15.5579 27.2431V29.9503H18.2436H40.5567C40.2945 28.9016 40.2799 27.886 40.3535 27.2431H15.5579Z" fill="#EF6A67"/>
<path d="M18.2436 39.1248H51.4179C48.5323 39.1248 46.3874 37.8791 44.929 36.4391H18.2436V29.9503H15.5579V46.2152C15.5579 47.5903 16.7754 48.1632 17.3842 48.2778H49.6131C51.0742 48.2778 51.4251 46.9887 51.4179 46.3441V45.678H19.5113C18.4284 45.678 18.215 44.7613 18.2436 44.3029V39.1248Z" fill="#FDEEBD"/>
<path d="M18.2436 29.9503V36.4391H44.929C43.7955 35.3198 43.0768 34.0831 42.7473 33.2228C41.5085 32.4485 40.8633 31.1767 40.5567 29.9503H18.2436Z" fill="#FFFCF4"/>
<path d="M46.5775 30.9486C46.3231 30.6902 46.0236 30.351 45.7118 29.9503C45.14 29.2156 44.5266 28.2739 44.0722 27.2431C43.9171 26.8912 43.7806 26.5289 43.6705 26.1609C43.0993 26.413 41.6768 27.5239 40.5567 29.9503C40.8633 31.1767 41.5085 32.4485 42.7473 33.2228C43.0768 34.0831 43.7955 35.3198 44.929 36.4391C46.1169 36.6065 48.4686 36.6465 48.3729 35.4668C48.0218 34.9733 47.6948 34.4753 47.4153 33.9921C46.7153 32.7821 46.3133 31.6657 46.5775 30.9486Z" fill="#F2EFE8"/>
<path d="M51.4179 39.1248C50.7671 38.4483 49.9122 37.4854 49.0979 36.4391C48.8502 36.1208 48.6062 35.7948 48.3729 35.4668C48.4686 36.6465 46.1169 36.6065 44.929 36.4391C46.3874 37.8791 48.5323 39.1248 51.4179 39.1248Z" fill="#F2E4B5"/>
<path d="M43.4655 23.3781C42.9867 23.4711 41.694 24.3744 40.3535 27.2431C40.2799 27.886 40.2945 28.9016 40.5567 29.9503C41.6768 27.5239 43.0993 26.413 43.6705 26.1609C43.3965 25.2444 43.287 24.2927 43.4655 23.3781Z" fill="#E36562"/>
<path d="M32.8457 18.12C32.1174 16.6205 30.9145 16.0992 30.4041 16.026C30.4111 17.1629 29.5349 17.2791 28.8972 17.8783C27.1879 17.6113 25.0972 17.8481 24.1736 18.1554C23.4111 17.597 23.1005 16.9168 21.8288 16.7275C19.7044 16.4111 18.9206 19.3275 20.3474 21.0239C21.4888 22.381 22.6056 22.9745 23.2334 22.8833C23.2334 22.8833 23.4742 23.091 23.7746 23.3148C25.5776 24.6582 28.6733 23.2459 29.6844 22.315C30.26 22.4519 30.9326 22.3334 31.554 22.1848C33.003 21.8383 33.756 19.9944 32.8457 18.12Z" fill="#FFF8E4"/>
<path d="M30.3985 15.6569C30.9393 17.7635 29.561 19.9375 27.32 20.5128C25.079 21.0881 22.824 19.8468 22.2832 17.7403C21.7424 15.6337 22.9479 13.5905 25.5284 13.5336C27.634 12.3011 29.8578 13.5504 30.3985 15.6569Z" fill="url(#paint0_linear_1822_10774)"/>
<path d="M30.3985 15.6569C30.9393 17.7635 29.561 19.9375 27.32 20.5128C25.079 21.0881 22.824 19.8468 22.2832 17.7403C21.7424 15.6337 22.9479 13.5905 25.5284 13.5336C27.634 12.3011 29.8578 13.5504 30.3985 15.6569Z" fill="url(#paint1_linear_1822_10774)" fill-opacity="0.2"/>
<path d="M25.0383 14.3223C25.2495 14.532 25.8602 14.7714 26.6142 14.0508" stroke="#525252" stroke-opacity="0.3" stroke-width="0.3136" stroke-linecap="round" style="mix-blend-mode:hard-light"/>
<path d="M25.8879 8.19754C22.9146 7.35293 24.4558 11.2838 25.9139 14.4931C26.2465 14.4077 24.8003 11.5661 24.5359 10.1511C24.2054 8.38233 27.4875 8.65192 25.8879 8.19754Z" fill="#A02B2B"/>
<path d="M19.9287 19.9757C20.4672 18.3871 21.6564 17.6983 22.1837 17.5524C22.3506 18.6786 23.2928 18.6676 24.0574 19.1689C25.8199 18.659 28.0619 18.5928 29.0834 18.7641C29.8022 18.1019 30.0257 17.3842 31.3384 17.0139C33.5312 16.3954 34.805 19.1689 33.5597 21.0527C32.5635 22.5598 31.4762 23.3078 30.7999 23.3078C30.7999 23.3078 30.5777 23.5479 30.295 23.8126C28.5987 25.4012 25.1163 24.4486 23.9068 23.6727C23.3206 23.8909 22.5928 23.8703 21.9144 23.8126C20.3326 23.678 19.2555 21.9615 19.9287 19.9757Z" fill="white"/>
<path fill-rule="evenodd" clip-rule="evenodd" d="M20.7571 10.3613C20.7614 11.6062 20.3558 13.858 23.4762 14.4023C21.5391 14.6941 20.7989 16.2567 20.7575 18.2611C20.71 16.7481 20.9088 15.0011 17.731 14.5222C20.781 14.2705 20.7386 11.6406 20.7571 10.3613Z" fill="#FBE750" stroke="#FBE750" stroke-width="0.3136" stroke-miterlimit="1.5" stroke-linecap="round" stroke-linejoin="round"/>
<path fill-rule="evenodd" clip-rule="evenodd" d="M17.2524 10.123C17.8469 10.7333 18.3182 11.4411 18.9281 12.0381L17.2524 10.123Z" fill="#FBE750"/>
<path d="M17.2524 10.123C17.8469 10.7333 18.3182 11.4411 18.9281 12.0381" stroke="#FBE750" stroke-width="0.3136" stroke-miterlimit="1.5" stroke-linecap="round" stroke-linejoin="round"/>
<path fill-rule="evenodd" clip-rule="evenodd" d="M22.2793 12.5172C22.7136 12.1618 23.1243 11.7571 23.4762 11.3203L22.2793 12.5172Z" fill="#FBE750"/>
<path d="M22.2793 12.5172C22.7136 12.1618 23.1243 11.7571 23.4762 11.3203" stroke="#FBE750" stroke-width="0.3136" stroke-miterlimit="1.5" stroke-linecap="round" stroke-linejoin="round"/>
<path fill-rule="evenodd" clip-rule="evenodd" d="M18.9278 16.5879C18.4208 17.0348 17.95 17.5323 17.4915 18.0242L18.9278 16.5879Z" fill="#FBE750"/>
<path d="M18.9278 16.5879C18.4208 17.0348 17.95 17.5323 17.4915 18.0242" stroke="#FBE750" stroke-width="0.3136" stroke-miterlimit="1.5" stroke-linecap="round" stroke-linejoin="round"/>
<path fill-rule="evenodd" clip-rule="evenodd" d="M22.2793 16.8262C22.8737 17.4364 23.345 18.1442 23.955 18.7413L22.2793 16.8262Z" fill="#FBE750"/>
<path d="M22.2793 16.8262C22.8737 17.4364 23.345 18.1442 23.955 18.7413" stroke="#FBE750" stroke-width="0.3136" stroke-miterlimit="1.5" stroke-linecap="round" stroke-linejoin="round"/>
<defs>
<linearGradient id="paint0_linear_1822_10774" x1="28.9825" y1="14.0736" x2="23.5963" y2="20.6567" gradientUnits="userSpaceOnUse">
<stop stop-color="#F94343"/>
<stop offset="1" stop-color="#E03C3C"/>
</linearGradient>
<linearGradient id="paint1_linear_1822_10774" x1="28.384" y1="14.9115" x2="28.384" y2="18.3825" gradientUnits="userSpaceOnUse">
<stop stop-color="white" stop-opacity="0"/>
<stop offset="1" stop-color="white"/>
</linearGradient>
</defs>
</svg>
