<svg width="50" height="50" viewBox="0 0 50 50" fill="none" xmlns="http://www.w3.org/2000/svg">
<rect width="50" height="50" rx="25" fill="#EB3323"/>
<path d="M40.0926 17.4098C39.9133 16.7419 39.5617 16.1329 39.073 15.6436C38.5844 15.1544 37.9758 14.802 37.3082 14.6219C34.8508 13.9609 25 13.9609 25 13.9609C25 13.9609 15.1492 13.9609 12.6918 14.6184C12.0239 14.7979 11.415 15.1501 10.9263 15.6394C10.4375 16.1288 10.0862 16.7381 9.90742 17.4062C9.25 19.8672 9.25 25 9.25 25C9.25 25 9.25 30.1328 9.90742 32.5902C10.2695 33.9473 11.3383 35.016 12.6918 35.3781C15.1492 36.0391 25 36.0391 25 36.0391C25 36.0391 34.8508 36.0391 37.3082 35.3781C38.6652 35.016 39.7305 33.9473 40.0926 32.5902C40.75 30.1328 40.75 25 40.75 25C40.75 25 40.75 19.8672 40.0926 17.4098ZM21.8711 29.7109V20.2891L30.0273 24.9648L21.8711 29.7109Z" fill="white"/>
</svg>
