<svg width="50" height="50" viewBox="0 0 50 50" fill="none" xmlns="http://www.w3.org/2000/svg">
<rect width="50" height="50" rx="25" fill="url(#paint0_linear_824_4968)"/>
<path d="M24.9989 16.7535C20.4387 16.7535 16.7583 20.4339 16.7583 24.9942C16.7583 29.5544 20.4387 33.2348 24.9989 33.2348C29.5592 33.2348 33.2396 29.5544 33.2396 24.9942C33.2396 20.4339 29.5592 16.7535 24.9989 16.7535ZM24.9989 30.35C22.0498 30.35 19.6431 27.9433 19.6431 24.9942C19.6431 22.0451 22.0498 19.6384 24.9989 19.6384C27.948 19.6384 30.3547 22.0451 30.3547 24.9942C30.3547 27.9433 27.948 30.35 24.9989 30.35ZM33.5771 14.4955C32.5123 14.4955 31.6525 15.3553 31.6525 16.4201C31.6525 17.4848 32.5123 18.3446 33.5771 18.3446C34.6418 18.3446 35.5016 17.4888 35.5016 16.4201C35.5019 16.1672 35.4524 15.9168 35.3558 15.6832C35.2592 15.4495 35.1174 15.2373 34.9386 15.0585C34.7599 14.8797 34.5476 14.738 34.3139 14.6414C34.0803 14.5447 33.8299 14.4952 33.5771 14.4955ZM41.0623 24.9942C41.0623 22.7763 41.0824 20.5785 40.9579 18.3647C40.8333 15.7933 40.2467 13.5111 38.3664 11.6308C36.482 9.7464 34.2038 9.16381 31.6324 9.03925C29.4146 8.9147 27.2168 8.93479 25.003 8.93479C22.7851 8.93479 20.5873 8.9147 18.3735 9.03925C15.8021 9.16381 13.5199 9.75041 11.6396 11.6308C9.75519 13.5151 9.1726 15.7933 9.04804 18.3647C8.92349 20.5826 8.94358 22.7803 8.94358 24.9942C8.94358 27.208 8.92349 29.4098 9.04804 31.6236C9.1726 34.1951 9.7592 36.4772 11.6396 38.3576C13.5239 40.2419 15.8021 40.8245 18.3735 40.9491C20.5913 41.0736 22.7891 41.0535 25.003 41.0535C27.2208 41.0535 29.4186 41.0736 31.6324 40.9491C34.2038 40.8245 36.486 40.2379 38.3664 38.3576C40.2507 36.4732 40.8333 34.1951 40.9579 31.6236C41.0864 29.4098 41.0623 27.212 41.0623 24.9942ZM37.5266 34.4683C37.2333 35.1995 36.8797 35.7459 36.3132 36.3084C35.7467 36.875 35.2043 37.2285 34.473 37.5218C32.3597 38.3616 27.3413 38.1727 24.9989 38.1727C22.6565 38.1727 17.6342 38.3616 15.5208 37.5259C14.7896 37.2326 14.2431 36.879 13.6806 36.3125C13.1141 35.7459 12.7605 35.2035 12.4672 34.4723C11.6315 32.3549 11.8204 27.3366 11.8204 24.9942C11.8204 22.6518 11.6315 17.6294 12.4672 15.516C12.7605 14.7848 13.1141 14.2384 13.6806 13.6759C14.2472 13.1134 14.7896 12.7558 15.5208 12.4625C17.6342 11.6268 22.6565 11.8156 24.9989 11.8156C27.3413 11.8156 32.3637 11.6268 34.4771 12.4625C35.2083 12.7558 35.7547 13.1093 36.3172 13.6759C36.8838 14.2424 37.2373 14.7848 37.5306 15.516C38.3664 17.6294 38.1775 22.6518 38.1775 24.9942C38.1775 27.3366 38.3664 32.3549 37.5266 34.4683Z" fill="white"/>
<defs>
<linearGradient id="paint0_linear_824_4968" x1="44.3548" y1="9.2742" x2="5.64516" y2="35.8871" gradientUnits="userSpaceOnUse">
<stop stop-color="#C1009B"/>
<stop offset="0.5" stop-color="#ED0019"/>
<stop offset="1" stop-color="#FDB81C"/>
</linearGradient>
</defs>
</svg>
